<svg xmlns="http://www.w3.org/2000/svg" width="1000" height="288" fill="none" viewBox="0 0 1000 288">
    <mask id="prefix__a" width="1000" height="289" x="0" y="0" maskUnits="userSpaceOnUse">
        <rect width="1000" height="288" fill="#F2F8FD" rx="16"/>
    </mask>
    <g mask="url(#prefix__a)">
        <path fill="#FBFCFD" d="M0 0H1000V288H0z"/>
        <path stroke="#3F6DB4" stroke-dasharray="4.26 4.26" stroke-width="1.5" d="M888.785 361c-15.961-49.714-13.885-176.42 37.774-137.885 25.568 19.073-13.458 39.083-21.595 14.695-9.016-27.022 8.45-63.47 47.259-60.656 81.687 5.923 49.547 111.621 116.207 104.429 53.33-5.753 81.27-72.017 88.57-104.429M-40 46.785C-1.094 30.824 98.068 32.9 67.91 84.56c-14.926 25.568-30.587-13.458-11.5-21.595 21.147-9.016 49.672 8.45 47.47 47.259-4.636 81.685-87.356 49.544-81.728 116.207 4.502 53.33 56.361 81.267 81.728 88.57"/>
    </g>
</svg>
