<svg xmlns="http://www.w3.org/2000/svg" width="375" height="424" fill="none" viewBox="0 0 375 424">
    <mask id="cdk0kkxawa" width="375" height="424" x="0" y="0" maskUnits="userSpaceOnUse">
        <path fill="#FFE9E9" d="M0 0H375V424H0z"/>
    </mask>
    <g mask="url(#cdk0kkxawa)">
        <rect width="327" height="304" x="23.997" y="52" fill="#F2F8FD" rx="16"/>
        <path stroke="#3F6DB4" stroke-dasharray="4.26 4.26" stroke-width="1.5" d="M318.5 371.569c-88-75.569-184-34.069-159.045 0C192.387 404.501 203.761 255.407 178 156.5 159.529 85.584 86 15-3.5 88" opacity=".4"/>
        <g filter="url(#filter0_d)">
            <rect width="104" height="60" fill="#C3D1E7" rx="8" transform="matrix(0 1 1 0 64 32)"/>
        </g>
        <circle cx="93.997" cy="52" r="5" fill="#fff"/>
        <path fill="#192D4D" stroke="#BCCEE7" stroke-width=".4" d="M103.981 46.69l.013.073.056.046 2.497 2.092c.756.633.947 1.712.455 2.567l-1.626 2.822-.037.063.013.072.569 3.208c.172.97-.375 1.92-1.302 2.259l-2.827 1.032-.132.048V74.77c0 .758-.416 1.446-1.088 1.797-.671.351-1.474.3-2.096-.131l-4.151-2.882-.115-.079-.113.08-4.152 2.88c-.347.242-.75.364-1.155.364-.322 0-.644-.077-.941-.232-.672-.351-1.088-1.04-1.088-1.797h0l-.01-13.676-.001-.14-.132-.047-2.746-.997c-.927-.337-1.476-1.286-1.306-2.257h0l.563-3.208.012-.072-.036-.063-1.631-2.82h0c-.494-.853-.305-1.933.45-2.568l-.126-.15.126.15 2.493-2.096.056-.046.013-.072.562-3.209h0c.17-.971 1.01-1.676 1.996-1.677l3.258-.003h.072l.056-.047 2.493-2.096-.128-.153.128.153c.755-.635 1.852-.636 2.608-.003h0l2.497 2.092.056.046h.072l3.258-.003h.002c.985 0 1.824.704 1.997 1.674l.568 3.208zM88.589 74.77v.383l.314-.218 4.786-3.323-.114-.164.114.165c.314-.218.73-.218 1.043 0l4.786 3.322.314.218V64.02l-.34.335c-.546.536-1.363.73-2.113.458l-3.061-1.111-.069-.025-.068.025-3.06 1.117c-.23.084-.465.123-.697.123-.565 0-1.11-.237-1.495-.66l-.349-.382v.517l.009 10.353v0zm14.963-20.026h0c-.083-.468.002-.954.24-1.366l1.626-2.823.084-.145-.129-.108-2.497-2.091c-.365-.306-.612-.732-.695-1.201l-.568-3.207-.03-.166h-.168l-3.257.003h0-.002c-.475 0-.938-.168-1.302-.473h0l-2.497-2.091-.129-.108-.128.108-2.494 2.096h0c-.364.306-.827.475-1.303.476h0l-3.257.003h-.168l-.029.165-.563 3.209h0c-.082.468-.328.895-.692 1.202h0L83.1 50.323l-.128.108.084.145 1.631 2.82.173-.1-.173.1c.239.411.325.896.242 1.365 0 0 0 0 0 0l-.562 3.209-.03.165.158.057 3.062 1.111c.284.104.54.269.75.482l.002.001.007.008.019.02.001.002c.11.116.206.242.285.378h0l1.631 2.82.084.145.158-.057 3.06-1.117s0 0 0 0c.447-.164.94-.164 1.387-.002L98 63.093l.003.001h.001l.002.002h.002l.064-.19-.064.19.156.052.081-.141 1.626-2.823c.042-.073.09-.143.145-.215h.001l.012-.017.016-.02h0l.002-.004c.232-.287.537-.51.885-.637l3.061-1.117.157-.057-.029-.165-.569-3.208z"/>
        <path fill="#192D4D" stroke="#BCCEE7" stroke-width=".4" d="M88.013 52.353c0-3.432 2.792-6.224 6.224-6.224 3.431 0 6.224 2.792 6.224 6.224 0 3.432-2.793 6.224-6.224 6.224-3.432 0-6.224-2.792-6.224-6.224zm1.828 0c0 2.424 1.972 4.396 4.396 4.396s4.396-1.972 4.396-4.396-1.972-4.396-4.396-4.396-4.396 1.972-4.396 4.396z"/>
        <g filter="url(#filter1_d)">
            <rect width="56" height="53.976" x="286.003" y="338" fill="#fff" rx="5.68"/>
        </g>
        <path fill="#192D4D" stroke="#fff" stroke-width=".2" d="M302.27 375.646v-.1H300.818c-1.622 0-2.942-1.319-2.942-2.941v-15.41c0-1.622 1.32-2.942 2.942-2.942h28.522c1.622 0 2.942 1.32 2.942 2.942v15.41c0 1.622-1.32 2.941-2.942 2.941h-15.51V379.972c0 1.063-.865 1.928-1.928 1.928h-7.705c-1.063 0-1.927-.865-1.927-1.928v-4.326zm9.632 4.426h.1V374.092c0-2.193-1.466-4.493-3.952-4.493-2.487 0-3.953 2.3-3.953 4.493V380.072h7.805zm1.91-6.446l.007.093h15.521c.614 0 1.114-.5 1.114-1.114v-15.41c0-.614-.5-1.114-1.114-1.114h-28.522c-.614 0-1.114.5-1.114 1.114v15.41c0 .614.5 1.114 1.114 1.114h1.463l.006-.093c.099-1.411.635-2.788 1.507-3.836h0c.369-.443.787-.818 1.243-1.12l.112-.074-.103-.086c-1.035-.863-1.695-2.161-1.695-3.61 0-2.591 2.108-4.699 4.699-4.699 2.591 0 4.699 2.108 4.699 4.699 0 1.449-.66 2.747-1.695 3.61l-.103.086.112.074c.456.302.874.677 1.242 1.12.872 1.048 1.409 2.425 1.507 3.836zm-5.762-11.597c-1.583 0-2.871 1.288-2.871 2.871s1.288 2.871 2.871 2.871 2.871-1.288 2.871-2.871-1.288-2.871-2.871-2.871z" opacity=".1"/>
        <mask id="speur1s51b" fill="#fff">
            <path d="M328.187 353h-28.522c-1.678 0-3.042 1.364-3.042 3.041v15.411c0 1.677 1.364 3.041 3.042 3.041h1.351v4.326c0 1.118.91 2.027 2.028 2.027h7.705c1.118 0 2.028-.909 2.028-2.027v-4.326h15.41c1.677 0 3.041-1.364 3.041-3.041v-15.411c0-1.677-1.364-3.041-3.041-3.041zm-17.438 25.819h-7.705v-5.88c0-2.16 1.441-4.394 3.853-4.394 2.411 0 3.852 2.234 3.852 4.394v5.88zm-6.624-15.072c0-1.528 1.244-2.772 2.772-2.772 1.527 0 2.771 1.244 2.771 2.772 0 1.528-1.244 2.771-2.771 2.771-1.528 0-2.772-1.243-2.772-2.771zm25.076 7.705c0 .559-.455 1.014-1.014 1.014h-15.428c-.1-1.431-.644-2.828-1.53-3.893-.375-.451-.8-.832-1.264-1.14 1.056-.881 1.73-2.206 1.73-3.686 0-2.646-2.152-4.799-4.798-4.799-2.647 0-4.799 2.153-4.799 4.799 0 1.48.674 2.805 1.731 3.686-.465.308-.89.689-1.265 1.14-.886 1.065-1.43 2.462-1.53 3.893h-1.369c-.559 0-1.014-.455-1.014-1.014v-15.411c0-.559.455-1.013 1.014-1.013h28.522c.559 0 1.014.454 1.014 1.013v15.411z"/>
        </mask>
        <path fill="#192D4D" d="M328.187 353h-28.522c-1.678 0-3.042 1.364-3.042 3.041v15.411c0 1.677 1.364 3.041 3.042 3.041h1.351v4.326c0 1.118.91 2.027 2.028 2.027h7.705c1.118 0 2.028-.909 2.028-2.027v-4.326h15.41c1.677 0 3.041-1.364 3.041-3.041v-15.411c0-1.677-1.364-3.041-3.041-3.041zm-17.438 25.819h-7.705v-5.88c0-2.16 1.441-4.394 3.853-4.394 2.411 0 3.852 2.234 3.852 4.394v5.88zm-6.624-15.072c0-1.528 1.244-2.772 2.772-2.772 1.527 0 2.771 1.244 2.771 2.772 0 1.528-1.244 2.771-2.771 2.771-1.528 0-2.772-1.243-2.772-2.771zm25.076 7.705c0 .559-.455 1.014-1.014 1.014h-15.428c-.1-1.431-.644-2.828-1.53-3.893-.375-.451-.8-.832-1.264-1.14 1.056-.881 1.73-2.206 1.73-3.686 0-2.646-2.152-4.799-4.798-4.799-2.647 0-4.799 2.153-4.799 4.799 0 1.48.674 2.805 1.731 3.686-.465.308-.89.689-1.265 1.14-.886 1.065-1.43 2.462-1.53 3.893h-1.369c-.559 0-1.014-.455-1.014-1.014v-15.411c0-.559.455-1.013 1.014-1.013h28.522c.559 0 1.014.454 1.014 1.013v15.411z"/>
        <path fill="#fff" d="M301.016 374.493h.2v-.2h-.2v.2zm11.761 0v-.2h-.2v.2h.2zm-2.028 4.326v.2h.2v-.2h-.2zm-7.705 0h-.2v.2h.2v-.2zm9.715-6.353l-.2.013.013.187h.187v-.2zm-1.53-3.893l.154-.128-.154.128zm-1.264-1.14l-.129-.153-.206.172.224.148.111-.167zm-6.136 0l.11.167.224-.148-.206-.172-.128.153zm-1.265 1.14l.154.128-.154-.128zm-1.53 3.893v.2h.187l.013-.187-.2-.013zm27.153-19.666h-28.522v.4h28.522v-.4zm-28.522 0c-1.788 0-3.242 1.454-3.242 3.241h.4c0-1.566 1.275-2.841 2.842-2.841v-.4zm-3.242 3.241v15.411h.4v-15.411h-.4zm0 15.411c0 1.787 1.454 3.241 3.242 3.241v-.4c-1.567 0-2.842-1.275-2.842-2.841h-.4zm3.242 3.241h1.351v-.4h-1.351v.4zm1.151-.2v4.326h.4v-4.326h-.4zm0 4.326c0 1.228.999 2.227 2.228 2.227v-.4c-1.008 0-1.828-.82-1.828-1.827h-.4zm2.228 2.227h7.705v-.4h-7.705v.4zm7.705 0c1.229 0 2.228-.999 2.228-2.227h-.4c0 1.007-.82 1.827-1.828 1.827v.4zm2.228-2.227v-4.326h-.4v4.326h.4zm-.2-4.126h15.41v-.4h-15.41v.4zm15.41 0c1.787 0 3.241-1.454 3.241-3.241h-.4c0 1.566-1.274 2.841-2.841 2.841v.4zm3.241-3.241v-15.411h-.4v15.411h.4zm0-15.411c0-1.787-1.454-3.241-3.241-3.241v.4c1.567 0 2.841 1.275 2.841 2.841h.4zm-20.679 22.578h-7.705v.4h7.705v-.4zm-7.505.2v-5.88h-.4v5.88h.4zm0-5.88c0-2.094 1.391-4.194 3.653-4.194v-.4c-2.562 0-4.053 2.368-4.053 4.594h.4zm3.653-4.194c2.261 0 3.652 2.1 3.652 4.194h.4c0-2.226-1.491-4.594-4.052-4.594v.4zm3.652 4.194v5.88h.4v-5.88h-.4zm-6.224-9.192c0-1.418 1.154-2.572 2.572-2.572v-.4c-1.639 0-2.972 1.333-2.972 2.972h.4zm2.572-2.572c1.417 0 2.571 1.154 2.571 2.572h.4c0-1.639-1.333-2.972-2.971-2.972v.4zm2.571 2.572c0 1.417-1.154 2.571-2.571 2.571v.4c1.638 0 2.971-1.333 2.971-2.971h-.4zm-2.571 2.571c-1.418 0-2.572-1.154-2.572-2.571h-.4c0 1.638 1.333 2.971 2.972 2.971v-.4zm22.104 5.134c0 .448-.366.814-.814.814v.4c.669 0 1.214-.545 1.214-1.214h-.4zm-.814.814h-15.428v.4h15.428v-.4zm-15.229.186c-.102-1.47-.661-2.908-1.575-4.007l-.308.256c.858 1.031 1.387 2.388 1.484 3.778l.399-.027zm-1.575-4.007c-.387-.465-.827-.86-1.308-1.178l-.221.333c.448.297.859.665 1.221 1.101l.308-.256zm-1.29-.858c1.1-.917 1.802-2.298 1.802-3.84h-.4c0 1.418-.645 2.688-1.659 3.533l.257.307zm1.802-3.84c0-2.757-2.242-4.999-4.998-4.999v.4c2.535 0 4.598 2.063 4.598 4.599h.4zm-4.998-4.999c-2.757 0-4.999 2.242-4.999 4.999h.4c0-2.536 2.063-4.599 4.599-4.599v-.4zm-4.999 4.999c0 1.542.702 2.923 1.802 3.84l.257-.307c-1.014-.845-1.659-2.115-1.659-3.533h-.4zm1.82 3.519c-.481.319-.921.714-1.308 1.179l.308.256c.362-.436.773-.804 1.221-1.101l-.221-.334zm-1.308 1.179c-.914 1.099-1.473 2.537-1.575 4.007l.399.027c.097-1.39.626-2.747 1.484-3.778l-.308-.256zm-1.376 3.821h-1.369v.4h1.369v-.4zm-1.369 0c-.449 0-.814-.366-.814-.814h-.4c0 .669.544 1.214 1.214 1.214v-.4zm-.814-.814v-15.411h-.4v15.411h.4zm0-15.411c0-.448.365-.813.814-.813v-.4c-.67 0-1.214.544-1.214 1.213h.4zm.814-.813h28.522v-.4h-28.522v.4zm28.522 0c.448 0 .814.365.814.813h.4c0-.669-.545-1.213-1.214-1.213v.4zm.814.813v15.411h.4v-15.411h-.4z" mask="url(#speur1s51b)"/>
        <g opacity=".1">
            <path fill="#FF696D" stroke="#fff" stroke-width=".2" d="M320.417 367.6h5.407c.505 0 .914.409.914.914 0 .505-.409.914-.914.914h-5.407c-.505 0-.914-.409-.914-.914 0-.505.409-.914.914-.914zM320.417 358.949h5.407c.505 0 .914.409.914.913 0 .505-.409.914-.914.914h-5.407c-.505 0-.914-.409-.914-.914 0-.504.409-.913.914-.913zM320.417 363.274h5.407c.505 0 .914.409.914.914 0 .505-.409.914-.914.914h-5.407c-.505 0-.914-.409-.914-.914 0-.505.409-.914.914-.914zM317.006 368.514c0 .505-.409.914-.914.914-.505 0-.914-.409-.914-.914 0-.505.409-.914.914-.914.505 0 .914.409.914.914zM317.006 364.188c0 .505-.409.914-.914.914-.505 0-.914-.409-.914-.914 0-.505.409-.914.914-.914.505 0 .914.409.914.914zM317.007 359.862c0 .505-.409.914-.914.914-.505 0-.914-.409-.914-.914 0-.504.409-.913.914-.913.505 0 .914.409.914.913z"/>
        </g>
        <path fill="#FF696D" stroke="#fff" stroke-width=".2" d="M319.267 366.447h5.407c.505 0 .914.409.914.914 0 .504-.409.913-.914.913h-5.407c-.505 0-.914-.409-.914-.913 0-.505.409-.914.914-.914zM319.267 357.795h5.407c.505 0 .914.409.914.914 0 .505-.409.914-.914.914h-5.407c-.505 0-.914-.409-.914-.914 0-.505.409-.914.914-.914zM319.267 362.121h5.407c.505 0 .914.409.914.914 0 .504-.409.914-.914.914h-5.407c-.505 0-.914-.41-.914-.914 0-.505.409-.914.914-.914zM315.854 367.361c0 .504-.409.913-.913.913-.505 0-.914-.409-.914-.913 0-.505.409-.914.914-.914.504 0 .913.409.913.914zM315.854 363.035c0 .505-.409.914-.913.914-.505 0-.914-.409-.914-.914 0-.505.409-.914.914-.914.504 0 .913.409.913.914zM315.853 358.709c0 .505-.409.914-.913.914-.505 0-.914-.409-.914-.914 0-.505.409-.914.914-.914.504 0 .913.409.913.914z"/>
    </g>
    <defs>
        <filter id="filter0_d" width="108" height="152" x="40" y="16" color-interpolation-filters="sRGB" filterUnits="userSpaceOnUse">
            <feFlood flood-opacity="0" result="BackgroundImageFix"/>
            <feColorMatrix in="SourceAlpha" values="0 0 0 0 0 0 0 0 0 0 0 0 0 0 0 0 0 0 127 0"/>
            <feOffset dy="8"/>
            <feGaussianBlur stdDeviation="12"/>
            <feColorMatrix values="0 0 0 0 0.875229 0 0 0 0 0.906421 0 0 0 0 1 0 0 0 0.2 0"/>
            <feBlend in2="BackgroundImageFix" result="effect1_dropShadow"/>
            <feBlend in="SourceGraphic" in2="effect1_dropShadow" result="shape"/>
        </filter>
        <filter id="filter1_d" width="96" height="93.976" x="266.003" y="318.947" color-interpolation-filters="sRGB" filterUnits="userSpaceOnUse">
            <feFlood flood-opacity="0" result="BackgroundImageFix"/>
            <feColorMatrix in="SourceAlpha" values="0 0 0 0 0 0 0 0 0 0 0 0 0 0 0 0 0 0 127 0"/>
            <feOffset dy=".947"/>
            <feGaussianBlur stdDeviation="10"/>
            <feColorMatrix values="0 0 0 0 0 0 0 0 0 0 0 0 0 0 0 0 0 0 0.05 0"/>
            <feBlend in2="BackgroundImageFix" mode="multiply" result="effect1_dropShadow"/>
            <feBlend in="SourceGraphic" in2="effect1_dropShadow" result="shape"/>
        </filter>
    </defs>
</svg>
