<svg xmlns="http://www.w3.org/2000/svg" width="581" height="478" fill="none" viewBox="0 0 581 478">
    <rect width="443" height="400" x="36" y="68" fill="#FFE9E9" rx="16"/>
    <g filter="url(#filter0_d)">
        <rect width="104" height="61" x="388" y="128" fill="#FED0D0" rx="8"/>
    </g>
    <path fill="#fff" stroke="#FF696D" stroke-linecap="round" stroke-width="1.5" d="M467.704 155.616c2.383 0 4.315-1.929 4.315-4.308 0-2.379-1.932-4.308-4.315-4.308-2.383 0-4.315 1.929-4.315 4.308 0 2.379 1.932 4.308 4.315 4.308z"/>
    <path fill="#fff" fill-rule="evenodd" stroke="#FF696D" stroke-linecap="round" stroke-width="1.5" d="M467.703 158.54c-3.606 0-7.532 1.51-9.418 4.116 0 0 1.561 1.501 2.103 2.734.482 1.093.611 2.997.611 2.997h17.184c0-5.439-4.692-9.847-10.48-9.847z" clip-rule="evenodd"/>
    <path stroke="#FF696D" stroke-linecap="round" stroke-width="1.5" d="M451.76 159.716c1.697 0 3.073-1.354 3.073-3.023s-1.376-3.022-3.073-3.022-3.072 1.353-3.072 3.022c0 1.669 1.375 3.023 3.072 3.023z"/>
    <path fill-rule="evenodd" stroke="#FF696D" stroke-linecap="round" stroke-width="1.5" d="M451.76 162.342c-3.734 0-6.76 2.707-6.76 6.045h13.52c0-3.338-3.027-6.045-6.76-6.045z" clip-rule="evenodd"/>
    <path stroke="#FF696D" stroke-dasharray="4.26 4.26" stroke-width="1.5" d="M580 473.769c-210.952 31.984-113.065-185.049-72.874-142.074 42.19 45.114-387.477 52.922-223.74-218.695" opacity=".5"/>
    <g filter="url(#filter1_d)">
        <rect width="417" height="412" x="20" y="20" fill="#fff" rx="6"/>
    </g>
    <g filter="url(#filter2_d)">
        <rect width="56" height="53.976" x="347" y="395" fill="#fff" rx="5.68"/>
    </g>
    <path fill="#fff" d="M381 409H393V418H381z"/>
    <path fill="#192D4D" d="M392.747 436.998l-2.109-1.758c-.294-.244-.747-.203-.99.09-.246.296-.205.744.09.99l.617.515h-30.191v-1.818l7.08-7.08c.419.247.907.39 1.428.39 1.539 0 2.792-1.242 2.812-2.776l7.366-1.801c.476.882 1.408 1.483 2.478 1.483 1.551 0 2.813-1.261 2.813-2.812 0-.477-.12-.926-.33-1.32L391 414.5c.283-.259.303-.711.044-.994-.253-.275-.707-.305-.993-.043l-7.19 6.602c-.441-.288-.968-.457-1.533-.457-1.539 0-2.792 1.243-2.811 2.777l-7.367 1.801c-.475-.883-1.408-1.484-2.478-1.484-1.551 0-2.813 1.262-2.813 2.813 0 .521.143 1.008.391 1.427l-6.086 6.086v-26.384l.515.618c.245.294.696.336.99.09.293-.246.335-.697.09-.99l-1.758-2.11c-.134-.161-.33-.253-.54-.253-.209 0-.406.092-.54.253l-1.758 2.11c-.12.144-.177.326-.16.514.017.187.106.355.25.476.294.245.745.205.991-.091l.514-.617v30.191h-1.055c-.387 0-.703.316-.703.703 0 .388.316.703.703.703h1.055v1.055c0 .387.316.703.703.703.387 0 .703-.316.703-.703v-1.055h30.191l-.618.515c-.294.246-.335.695-.09.99.134.161.331.253.54.253.165 0 .325-.058.45-.163l2.11-1.758c.161-.134.253-.33.253-.54 0-.209-.092-.406-.253-.54zm-11.419-15.983c.776 0 1.406.631 1.406 1.406 0 .775-.63 1.406-1.406 1.406-.775 0-1.406-.631-1.406-1.406 0-.775.631-1.406 1.406-1.406zm-12.656 3.093c.775 0 1.406.631 1.406 1.407 0 .775-.631 1.406-1.406 1.406-.775 0-1.406-.631-1.406-1.406 0-.776.631-1.407 1.406-1.407z"/>
    <path fill="#fff" fill-rule="evenodd" stroke="#FF696D" stroke-width="1.5" d="M368.497 423c-.689 0-1.314.28-1.765.732-.452.453-.732 1.078-.732 1.768s.28 1.315.732 1.768c.451.452 1.076.732 1.765.732.691 0 1.317-.28 1.77-.732.453-.453.733-1.078.733-1.768s-.28-1.315-.733-1.768c-.453-.452-1.079-.732-1.77-.732zM381.497 420c-.689 0-1.314.28-1.765.732-.452.453-.732 1.078-.732 1.768s.28 1.315.732 1.768c.451.452 1.076.732 1.765.732.691 0 1.317-.28 1.77-.732.453-.453.733-1.078.733-1.768s-.28-1.315-.733-1.768c-.453-.452-1.079-.732-1.77-.732z" clip-rule="evenodd"/>
    <path fill="#192D4D" d="M392.803 411.922c-.14-.148-.333-.227-.538-.219l-2.734.109c-.378.015-.689.352-.675.73.015.388.337.691.73.675l.789-.031-.734.672c-.283.259-.303.71-.045.993.259.283.711.303.994.045l.841-.771-.087.952c-.017.187.04.37.161.514.118.142.324.234.508.251.359 0 .699-.281.732-.638l.248-2.734c.018-.202-.051-.402-.19-.548zM368.672 431.492c.388 0 .703-.315.703-.703 0-.388-.315-.703-.703-.703-.388 0-.703.315-.703.703 0 .388.315.703.703.703zM368.672 434.656c.388 0 .703-.315.703-.703 0-.388-.315-.703-.703-.703-.388 0-.703.315-.703.703 0 .388.315.703.703.703zM381.328 431.562c.388 0 .703-.314.703-.703 0-.388-.315-.703-.703-.703-.388 0-.703.315-.703.703 0 .389.315.703.703.703zM381.328 434.727c.388 0 .703-.315.703-.704 0-.388-.315-.703-.703-.703-.388 0-.703.315-.703.703 0 .389.315.704.703.704zM381.328 428.398c.388 0 .703-.314.703-.703 0-.388-.315-.703-.703-.703-.388 0-.703.315-.703.703 0 .389.315.703.703.703z"/>
    <defs>
        <filter id="filter0_d" width="152" height="109" x="364" y="112" color-interpolation-filters="sRGB" filterUnits="userSpaceOnUse">
            <feFlood flood-opacity="0" result="BackgroundImageFix"/>
            <feColorMatrix in="SourceAlpha" values="0 0 0 0 0 0 0 0 0 0 0 0 0 0 0 0 0 0 127 0"/>
            <feOffset dy="8"/>
            <feGaussianBlur stdDeviation="12"/>
            <feColorMatrix values="0 0 0 0 0.875229 0 0 0 0 0.906421 0 0 0 0 1 0 0 0 0.2 0"/>
            <feBlend in2="BackgroundImageFix" result="effect1_dropShadow"/>
            <feBlend in="SourceGraphic" in2="effect1_dropShadow" result="shape"/>
        </filter>
        <filter id="filter1_d" width="457" height="452" x="0" y=".947" color-interpolation-filters="sRGB" filterUnits="userSpaceOnUse">
            <feFlood flood-opacity="0" result="BackgroundImageFix"/>
            <feColorMatrix in="SourceAlpha" values="0 0 0 0 0 0 0 0 0 0 0 0 0 0 0 0 0 0 127 0"/>
            <feOffset dy=".947"/>
            <feGaussianBlur stdDeviation="10"/>
            <feColorMatrix values="0 0 0 0 0 0 0 0 0 0 0 0 0 0 0 0 0 0 0.04 0"/>
            <feBlend in2="BackgroundImageFix" mode="multiply" result="effect1_dropShadow"/>
            <feBlend in="SourceGraphic" in2="effect1_dropShadow" result="shape"/>
        </filter>
        <filter id="filter2_d" width="96" height="93.976" x="327" y="375.947" color-interpolation-filters="sRGB" filterUnits="userSpaceOnUse">
            <feFlood flood-opacity="0" result="BackgroundImageFix"/>
            <feColorMatrix in="SourceAlpha" values="0 0 0 0 0 0 0 0 0 0 0 0 0 0 0 0 0 0 127 0"/>
            <feOffset dy=".947"/>
            <feGaussianBlur stdDeviation="10"/>
            <feColorMatrix values="0 0 0 0 0 0 0 0 0 0 0 0 0 0 0 0 0 0 0.05 0"/>
            <feBlend in2="BackgroundImageFix" mode="multiply" result="effect1_dropShadow"/>
            <feBlend in="SourceGraphic" in2="effect1_dropShadow" result="shape"/>
        </filter>
    </defs>
</svg>
