<svg xmlns="http://www.w3.org/2000/svg" width="527" height="467" fill="none" viewBox="0 0 527 467">
    <rect width="443" height="400" x="84" y="26" fill="#F2F8FD" rx="16"/>
    <path stroke="#192D4D" stroke-dasharray="4.26 4.26" d="M436 58c-149.748 0-136.267 184.763-172.722 182.472-137.03-8.611-127.184 192.724-72.208 147.618C243.44 345.123-21.038 240.472 17.938 466" opacity=".5"/>
    <g filter="url(#filter0_d)">
        <rect width="56" height="53.976" x="422" y="20" fill="#fff" rx="5.68"/>
    </g>
    <path fill="#fff" d="M456 34H468V43H456z"/>
    <path fill="#192D4D" stroke="#fff" stroke-width=".4" d="M455.371 32.425h13.453l.001 12.355H462.235l.104.271c.62 1.615.961 3.368.961 5.199 0 8.023-6.527 14.55-14.55 14.55s-14.55-6.527-14.55-14.55 6.527-14.55 14.55-14.55c2.269 0 4.418.523 6.334 1.453l.287.14v-4.868zm-12.91 28.698v.117l.102.057c1.831 1.03 3.942 1.618 6.187 1.618s4.356-.588 6.187-1.618l.102-.057v-3.212c0-2.605-2.119-4.725-4.725-4.725h-3.128c-2.606 0-4.725 2.12-4.725 4.725v3.095zm14.463-1.648v.452l.335-.304c2.551-2.318 4.156-5.662 4.156-9.373 0-1.913-.427-3.728-1.189-5.355l-.054-.115h-4.801v-5.323l-.097-.058c-1.906-1.15-4.139-1.814-6.524-1.814-6.984 0-12.665 5.681-12.665 12.665 0 3.711 1.605 7.055 4.156 9.373l.335.304v-1.899c0-2.84 1.8-5.267 4.319-6.2l.263-.098-.177-.217c-.689-.84-1.102-1.913-1.102-3.081 0-2.686 2.185-4.872 4.871-4.872 2.686 0 4.872 2.186 4.872 4.871 0 1.169-.414 2.242-1.102 3.082l-.178.217.263.097c2.52.934 4.319 3.362 4.319 6.201v1.447zm9.815-16.58h.2V34.31H457.256V42.893H461.155V37.66h1.885v5.235H466.739zm-20.975 5.537c0 1.646 1.339 2.986 2.986 2.986 1.647 0 2.986-1.34 2.986-2.986 0-1.647-1.339-2.987-2.986-2.987-1.647 0-2.986 1.34-2.986 2.987z"/>
    <path fill="#fff" d="M455 32H469V45H455z"/>
    <path stroke="#FF696D" stroke-width="1.35" d="M462 38.5V45m0 0h7V32h-3.5M462 45h-7V32h3.5m0 0s-.5-5 3.5-5 3.5 5 3.5 5m-7 0h7"/>
    <g filter="url(#filter1_d)">
        <rect width="104" height="61" x="24" y="133" fill="#C3D1E7" rx="8"/>
    </g>
    <path fill-rule="evenodd" stroke="#192D4D" stroke-width="1.5" d="M38.198 177.459V179c0 1.767 1.433 3.2 3.2 3.2h21.8c1.768 0 3.2-1.433 3.2-3.2v-23.346c0-1.708-.682-3.345-1.895-4.547l-2.275-2.253C61.03 147.666 59.411 147 57.724 147H41.398c-1.767 0-3.2 1.433-3.2 3.2v27.259z" clip-rule="evenodd"/>
    <path fill="#fff" stroke="#192D4D" stroke-linecap="round" stroke-width="1.5" d="M60.2 152h-16c-.553 0-1 .448-1 1v16c0 .552.447 1 1 1h16c.551 0 1-.448 1-1v-16c0-.552-.449-1-1-1z"/>
    <path stroke="#192D4D" stroke-linecap="round" stroke-width="1.5" d="M52.244 160.169c.89 0 1.61-.709 1.61-1.584 0-.876-.72-1.585-1.61-1.585-.89 0-1.611.709-1.611 1.585 0 .875.721 1.584 1.61 1.584z"/>
    <path fill-rule="evenodd" stroke="#192D4D" stroke-linecap="round" stroke-width="1.5" d="M52.243 162.546c-1.957 0-3.544 1.419-3.544 3.17h7.089c0-1.751-1.587-3.17-3.544-3.17z" clip-rule="evenodd"/>
    <path fill="#fff" stroke="#192D4D" stroke-width="1.5" d="M60.2 174h-5c-.553 0-1 .448-1 1v2c0 .552.447 1 1 1h5c.551 0 1-.448 1-1v-2c0-.552-.449-1-1-1z"/>
    <path stroke="#192D4D" stroke-linecap="round" stroke-width="1.5" d="M43.2 174h8M43.2 178h8"/>
    <g filter="url(#filter2_d)">
        <rect width="417" height="256" x="79" y="98" fill="#fff" rx="6"/>
    </g>
    <defs>
        <filter id="filter0_d" width="96" height="93.976" x="402" y=".947" color-interpolation-filters="sRGB" filterUnits="userSpaceOnUse">
            <feFlood flood-opacity="0" result="BackgroundImageFix"/>
            <feColorMatrix in="SourceAlpha" values="0 0 0 0 0 0 0 0 0 0 0 0 0 0 0 0 0 0 127 0"/>
            <feOffset dy=".947"/>
            <feGaussianBlur stdDeviation="10"/>
            <feColorMatrix values="0 0 0 0 0 0 0 0 0 0 0 0 0 0 0 0 0 0 0.05 0"/>
            <feBlend in2="BackgroundImageFix" mode="multiply" result="effect1_dropShadow"/>
            <feBlend in="SourceGraphic" in2="effect1_dropShadow" result="shape"/>
        </filter>
        <filter id="filter1_d" width="152" height="109" x="0" y="117" color-interpolation-filters="sRGB" filterUnits="userSpaceOnUse">
            <feFlood flood-opacity="0" result="BackgroundImageFix"/>
            <feColorMatrix in="SourceAlpha" values="0 0 0 0 0 0 0 0 0 0 0 0 0 0 0 0 0 0 127 0"/>
            <feOffset dy="8"/>
            <feGaussianBlur stdDeviation="12"/>
            <feColorMatrix values="0 0 0 0 0.875229 0 0 0 0 0.906421 0 0 0 0 1 0 0 0 0.2 0"/>
            <feBlend in2="BackgroundImageFix" result="effect1_dropShadow"/>
            <feBlend in="SourceGraphic" in2="effect1_dropShadow" result="shape"/>
        </filter>
        <filter id="filter2_d" width="465" height="304" x="55" y="82" color-interpolation-filters="sRGB" filterUnits="userSpaceOnUse">
            <feFlood flood-opacity="0" result="BackgroundImageFix"/>
            <feColorMatrix in="SourceAlpha" values="0 0 0 0 0 0 0 0 0 0 0 0 0 0 0 0 0 0 127 0"/>
            <feOffset dy="8"/>
            <feGaussianBlur stdDeviation="12"/>
            <feColorMatrix values="0 0 0 0 0.875229 0 0 0 0 0.906421 0 0 0 0 1 0 0 0 0.2 0"/>
            <feBlend in2="BackgroundImageFix" result="effect1_dropShadow"/>
            <feBlend in="SourceGraphic" in2="effect1_dropShadow" result="shape"/>
        </filter>
    </defs>
</svg>
