<svg xmlns="http://www.w3.org/2000/svg" width="520" height="427" fill="none" viewBox="0 0 520 427">
    <rect width="443" height="400" x="45" y="27" fill="#F2F8FD" rx="16"/>
    <g filter="url(#filter0_d)">
        <rect width="104" height="61" fill="#C3D1E7" rx="8" transform="matrix(-1 0 0 1 496 154)"/>
    </g>
    <circle cx="463" cy="178" r="5" fill="#fff"/>
    <path fill="#192D4D" stroke="#BCCEE7" stroke-width=".4" d="M472.981 172.691l.013.072.056.046 2.497 2.092c.756.633.947 1.712.455 2.567l.173.1-.173-.1-1.626 2.822-.037.064.013.071.569 3.208c.172.971-.375 1.921-1.302 2.259 0 0 0 0 0 0l-2.827 1.032-.132.048V200.771c0 .758-.416 1.446-1.088 1.797-.671.351-1.474.301-2.096-.131l-4.151-2.882-.114-.079-.115.079-4.151 2.882c-.347.241-.75.363-1.155.363-.322 0-.644-.077-.941-.232-.672-.351-1.088-1.039-1.088-1.797h0l-.011-13.676v-.14l-.132-.047-2.746-.997c-.927-.337-1.476-1.286-1.306-2.257h0l.563-3.208.012-.072-.036-.063-1.631-2.82h0c-.494-.853-.305-1.933.45-2.568l-.129-.153.129.153 2.493-2.096.056-.047.013-.071.562-3.209h0c.171-.971 1.01-1.676 1.996-1.677l3.257-.003h.073l.056-.047 2.493-2.096-.128-.153.128.153c.755-.635 1.852-.636 2.608-.003h0l2.497 2.092.056.046h.072l3.258-.003h.002c.985 0 1.824.704 1.997 1.674l.568 3.208zm-10.292 24.922l-.114-.165.114.165c.314-.218.729-.218 1.043 0l4.786 3.322.314.218V190.02l-.34.335c-.545.536-1.362.73-2.112.458 0 0 0 0 0 0l-3.062-1.111-.069-.025-.068.025-3.06 1.117c-.23.084-.465.124-.697.124-.565 0-1.109-.238-1.495-.661l-.348-.382v.517l.008 10.353v.383l.314-.218 4.786-3.322zm9.863-16.869h0c-.083-.468.002-.954.24-1.366l1.626-2.823.084-.145-.129-.108-2.497-2.091c-.365-.306-.612-.732-.695-1.201l-.568-3.207-.03-.166h-.168l-3.257.003h0-.002c-.475 0-.938-.168-1.302-.473h0l-2.497-2.091-.129-.108-.128.108-2.494 2.096h0c-.364.306-.827.475-1.303.476h0l-3.257.003h-.168l-.029.165-.563 3.208v.001c-.082.468-.328.895-.692 1.201v.001l-2.494 2.096-.128.108.084.145 1.631 2.819.173-.1-.173.1c.239.412.325.897.242 1.366 0 0 0 0 0 0l-.562 3.209-.029.165.157.057 3.062 1.112c.284.103.54.268.75.481l.002.001.007.008.019.021.001.001c.11.116.206.242.285.378h0l1.631 2.82.084.145.158-.057 3.06-1.117c.447-.164.94-.164 1.387-.002l3.059 1.111.003.001h.002l.002.001h.001l.001.001h.001l.062-.19-.062.19.154.05.081-.14 1.626-2.823c.042-.073.091-.144.145-.215l.001-.001.017-.023.011-.014h0l.002-.003c.232-.287.537-.509.885-.637 0 0 0 0 0 0l3.061-1.117.157-.057-.029-.165-.569-3.208z"/>
    <path fill="#192D4D" stroke="#BCCEE7" stroke-width=".4" d="M457.013 178.353c0-3.432 2.792-6.224 6.224-6.224 3.431 0 6.224 2.792 6.224 6.224 0 3.432-2.793 6.224-6.224 6.224-3.432 0-6.224-2.792-6.224-6.224zm1.828 0c0 2.424 1.971 4.396 4.396 4.396 2.424 0 4.396-1.972 4.396-4.396s-1.972-4.396-4.396-4.396c-2.425 0-4.396 1.972-4.396 4.396z"/>
    <path stroke="#3F6DB4" stroke-dasharray="4.26 4.26" stroke-width="1.5" d="M429 403.405c-169.267 35.586-90.723-205.893-58.474-158.077C404.379 295.523 59.616 304.211 190.998 2" opacity=".4"/>
    <g filter="url(#filter1_d)">
        <rect width="56" height="53.976" x="153" y="20" fill="#fff" rx="5.68"/>
    </g>
    <path fill="#192D4D" stroke="#fff" stroke-width=".2" d="M169.265 57.647v-.1H167.813c-1.622 0-2.942-1.32-2.942-2.942v-15.41c0-1.622 1.32-2.941 2.942-2.941h28.522c1.622 0 2.942 1.32 2.942 2.941v15.41c0 1.622-1.32 2.942-2.942 2.942h-15.51v4.425c0 1.063-.865 1.928-1.928 1.928h-7.705c-1.062 0-1.927-.865-1.927-1.928v-4.325zm9.632 4.425h.1V56.092c0-2.192-1.466-4.493-3.952-4.493-2.487 0-3.953 2.3-3.953 4.493V62.072h7.805zm1.91-6.446l.007.093h15.521c.615 0 1.114-.5 1.114-1.114v-15.41c0-.614-.499-1.114-1.114-1.114h-28.522c-.614 0-1.114.5-1.114 1.114v15.41c0 .614.5 1.114 1.114 1.114h1.463l.007-.093c.098-1.41.634-2.787 1.506-3.836l-.076-.064.076.064c.369-.443.787-.818 1.243-1.12l.112-.074-.103-.086c-1.035-.863-1.695-2.16-1.695-3.61 0-2.59 2.108-4.699 4.699-4.699 2.591 0 4.699 2.108 4.699 4.7 0 1.448-.66 2.746-1.695 3.609l-.103.086.112.074c.456.302.874.677 1.243 1.12.871 1.049 1.408 2.425 1.506 3.836zm-5.762-11.597c-1.583 0-2.871 1.288-2.871 2.871s1.288 2.871 2.871 2.871 2.871-1.288 2.871-2.87c0-1.584-1.288-2.872-2.871-2.872z" opacity=".1"/>
    <mask id="whx6mnejwa" fill="#fff">
        <path d="M195.183 35h-28.522c-1.677 0-3.042 1.364-3.042 3.041v15.41c0 1.678 1.365 3.042 3.042 3.042h1.351v4.326c0 1.118.91 2.027 2.028 2.027h7.705c1.118 0 2.028-.91 2.028-2.027v-4.326h15.41c1.677 0 3.041-1.364 3.041-3.041v-15.41c0-1.678-1.364-3.042-3.041-3.042zm-17.438 25.819h-7.705v-5.88c0-2.16 1.441-4.394 3.853-4.394 2.411 0 3.852 2.234 3.852 4.394v5.88zm-6.624-15.072c0-1.528 1.244-2.772 2.772-2.772 1.528 0 2.771 1.244 2.771 2.772 0 1.528-1.243 2.77-2.771 2.77-1.528 0-2.772-1.242-2.772-2.77zm25.076 7.705c0 .559-.455 1.014-1.014 1.014h-15.428c-.1-1.43-.644-2.828-1.53-3.893-.375-.45-.8-.832-1.264-1.14 1.056-.88 1.73-2.206 1.73-3.686 0-2.646-2.152-4.8-4.798-4.8s-4.799 2.154-4.799 4.8c0 1.48.674 2.805 1.731 3.686-.465.308-.89.69-1.265 1.14-.886 1.065-1.43 2.462-1.53 3.892h-1.369c-.559 0-1.014-.454-1.014-1.013v-15.41c0-.56.455-1.014 1.014-1.014h28.522c.559 0 1.014.455 1.014 1.014v15.41z"/>
    </mask>
    <path fill="#192D4D" d="M195.183 35h-28.522c-1.677 0-3.042 1.364-3.042 3.041v15.41c0 1.678 1.365 3.042 3.042 3.042h1.351v4.326c0 1.118.91 2.027 2.028 2.027h7.705c1.118 0 2.028-.91 2.028-2.027v-4.326h15.41c1.677 0 3.041-1.364 3.041-3.041v-15.41c0-1.678-1.364-3.042-3.041-3.042zm-17.438 25.819h-7.705v-5.88c0-2.16 1.441-4.394 3.853-4.394 2.411 0 3.852 2.234 3.852 4.394v5.88zm-6.624-15.072c0-1.528 1.244-2.772 2.772-2.772 1.528 0 2.771 1.244 2.771 2.772 0 1.528-1.243 2.77-2.771 2.77-1.528 0-2.772-1.242-2.772-2.77zm25.076 7.705c0 .559-.455 1.014-1.014 1.014h-15.428c-.1-1.43-.644-2.828-1.53-3.893-.375-.45-.8-.832-1.264-1.14 1.056-.88 1.73-2.206 1.73-3.686 0-2.646-2.152-4.8-4.798-4.8s-4.799 2.154-4.799 4.8c0 1.48.674 2.805 1.731 3.686-.465.308-.89.69-1.265 1.14-.886 1.065-1.43 2.462-1.53 3.892h-1.369c-.559 0-1.014-.454-1.014-1.013v-15.41c0-.56.455-1.014 1.014-1.014h28.522c.559 0 1.014.455 1.014 1.014v15.41z"/>
    <path fill="#fff" d="M168.012 56.493h.2v-.2h-.2v.2zm11.761 0v-.2h-.2v.2h.2zm-2.028 4.326v.2h.2v-.2h-.2zm-7.705 0h-.2v.2h.2v-.2zm9.715-6.354l-.2.014.013.187h.187v-.2zm-1.53-3.892l.154-.128-.154.128zm-1.264-1.14l-.128-.153-.207.172.224.148.111-.167zm-6.136 0l.11.167.224-.148-.206-.172-.128.153zm-1.265 1.14l.154.128-.154-.128zm-1.53 3.892v.2h.187l.013-.186-.2-.014zM195.183 34.8h-28.522v.4h28.522v-.4zm-28.522 0c-1.788 0-3.242 1.454-3.242 3.242h.4c0-1.567 1.275-2.842 2.842-2.842v-.4zm-3.242 3.242v15.41h.4v-15.41h-.4zm0 15.41c0 1.787 1.454 3.241 3.242 3.241v-.4c-1.567 0-2.842-1.275-2.842-2.841h-.4zm3.242 3.241h1.351v-.4h-1.351v.4zm1.151-.2v4.326h.4v-4.326h-.4zm0 4.326c0 1.228 1 2.227 2.228 2.227v-.4c-1.008 0-1.828-.82-1.828-1.827h-.4zm2.228 2.227h7.705v-.4h-7.705v.4zm7.705 0c1.229 0 2.228-.999 2.228-2.227h-.4c0 1.007-.82 1.828-1.828 1.828v.4zm2.228-2.227v-4.326h-.4v4.326h.4zm-.2-4.126h15.41v-.4h-15.41v.4zm15.41 0c1.788 0 3.241-1.454 3.241-3.241h-.4c0 1.566-1.274 2.841-2.841 2.841v.4zm3.241-3.241v-15.41h-.4v15.41h.4zm0-15.41c0-1.788-1.453-3.242-3.241-3.242v.4c1.567 0 2.841 1.275 2.841 2.841h.4zm-20.679 22.577h-7.705v.4h7.705v-.4zm-7.505.2v-5.88h-.4v5.88h.4zm0-5.88c0-2.094 1.391-4.194 3.653-4.194v-.4c-2.562 0-4.053 2.368-4.053 4.594h.4zm3.653-4.194c2.261 0 3.652 2.1 3.652 4.194h.4c0-2.226-1.491-4.594-4.052-4.594v.4zm3.652 4.194v5.88h.4v-5.88h-.4zm-6.224-9.192c0-1.418 1.154-2.572 2.572-2.572v-.4c-1.639 0-2.972 1.333-2.972 2.972h.4zm2.572-2.572c1.417 0 2.571 1.154 2.571 2.572h.4c0-1.639-1.333-2.971-2.971-2.971v.4zm2.571 2.572c0 1.417-1.154 2.57-2.571 2.57v.4c1.638 0 2.971-1.332 2.971-2.97h-.4zm-2.571 2.57c-1.418 0-2.572-1.153-2.572-2.57h-.4c0 1.638 1.333 2.97 2.972 2.97v-.4zm22.104 5.135c0 .448-.365.814-.814.814v.4c.669 0 1.214-.545 1.214-1.214h-.4zm-.814.814h-15.428v.4h15.428v-.4zm-15.229.186c-.102-1.47-.661-2.908-1.575-4.007l-.308.256c.858 1.031 1.388 2.388 1.484 3.778l.399-.027zm-1.575-4.007c-.387-.465-.827-.86-1.308-1.178l-.221.333c.448.297.859.665 1.221 1.1l.308-.255zm-1.29-.858c1.1-.917 1.802-2.298 1.802-3.84h-.4c0 1.418-.645 2.688-1.658 3.533l.256.307zm1.802-3.84c0-2.757-2.242-5-4.998-5v.4c2.535 0 4.598 2.064 4.598 4.6h.4zm-4.998-5c-2.757 0-4.999 2.243-4.999 5h.4c0-2.536 2.063-4.6 4.599-4.6v-.4zm-4.999 5c0 1.542.702 2.923 1.803 3.84l.256-.307c-1.014-.845-1.659-2.115-1.659-3.533h-.4zm1.82 3.52c-.481.318-.921.713-1.308 1.178l.308.256c.363-.436.773-.804 1.221-1.101l-.221-.334zm-1.308 1.178c-.914 1.1-1.473 2.537-1.575 4.007l.399.027c.097-1.39.626-2.747 1.484-3.778l-.308-.256zm-1.376 3.82h-1.369v.4h1.369v-.4zm-1.369 0c-.449 0-.814-.365-.814-.813h-.4c0 .67.544 1.214 1.214 1.214v-.4zm-.814-.813v-15.41h-.4v15.41h.4zm0-15.41c0-.45.365-.814.814-.814v-.4c-.67 0-1.214.544-1.214 1.213h.4zm.814-.814h28.522v-.4h-28.522v.4zm28.522 0c.449 0 .814.365.814.813h.4c0-.669-.545-1.213-1.214-1.213v.4zm.814.813v15.41h.4v-15.41h-.4z" mask="url(#whx6mnejwa)"/>
    <g opacity=".1">
        <path fill="#FF696D" stroke="#fff" stroke-width=".2" d="M187.412 49.6h5.407c.505 0 .914.41.914.914 0 .505-.409.914-.914.914h-5.407c-.504 0-.914-.41-.914-.914 0-.505.41-.914.914-.914zM187.412 40.949h5.407c.505 0 .914.409.914.913 0 .505-.409.914-.914.914h-5.407c-.504 0-.914-.409-.914-.914 0-.504.41-.913.914-.913zM187.412 45.274h5.407c.505 0 .914.41.914.914 0 .505-.409.914-.914.914h-5.407c-.504 0-.914-.41-.914-.914 0-.505.41-.914.914-.914zM184.002 50.514c0 .505-.409.914-.914.914-.505 0-.914-.41-.914-.914 0-.505.409-.914.914-.914.505 0 .914.41.914.914zM184.002 46.188c0 .505-.409.914-.914.914-.505 0-.914-.41-.914-.914 0-.505.409-.914.914-.914.505 0 .914.41.914.914zM184.002 41.863c0 .504-.409.913-.914.913-.505 0-.914-.409-.914-.913 0-.505.409-.914.914-.914.505 0 .914.409.914.914z"/>
    </g>
    <path fill="#FF696D" stroke="#fff" stroke-width=".2" d="M186.264 48.447h5.407c.505 0 .914.409.914.913 0 .505-.409.914-.914.914h-5.407c-.505 0-.914-.409-.914-.914 0-.504.409-.913.914-.913zM186.264 39.795h5.407c.505 0 .914.41.914.914 0 .505-.409.914-.914.914h-5.407c-.505 0-.914-.41-.914-.914 0-.505.409-.914.914-.914zM186.264 44.12h5.407c.505 0 .914.41.914.915 0 .504-.409.914-.914.914h-5.407c-.505 0-.914-.41-.914-.914 0-.505.409-.914.914-.914zM182.85 49.36c0 .505-.41.914-.914.914-.505 0-.914-.409-.914-.914 0-.504.409-.913.914-.913.504 0 .914.409.914.913zM182.85 45.035c0 .504-.41.914-.914.914-.505 0-.914-.41-.914-.914 0-.505.409-.914.914-.914.504 0 .914.409.914.914zM182.85 40.71c0 .504-.41.913-.914.913-.505 0-.914-.41-.914-.914 0-.505.409-.914.914-.914.504 0 .914.41.914.914z"/>
    <g filter="url(#filter2_d)">
        <rect width="417" height="256" x="24" y="99" fill="#fff" rx="6"/>
    </g>
    <defs>
        <filter id="filter0_d" width="152" height="109" x="368" y="138" color-interpolation-filters="sRGB" filterUnits="userSpaceOnUse">
            <feFlood flood-opacity="0" result="BackgroundImageFix"/>
            <feColorMatrix in="SourceAlpha" values="0 0 0 0 0 0 0 0 0 0 0 0 0 0 0 0 0 0 127 0"/>
            <feOffset dy="8"/>
            <feGaussianBlur stdDeviation="12"/>
            <feColorMatrix values="0 0 0 0 0.875229 0 0 0 0 0.906421 0 0 0 0 1 0 0 0 0.2 0"/>
            <feBlend in2="BackgroundImageFix" result="effect1_dropShadow"/>
            <feBlend in="SourceGraphic" in2="effect1_dropShadow" result="shape"/>
        </filter>
        <filter id="filter1_d" width="96" height="93.976" x="133" y=".947" color-interpolation-filters="sRGB" filterUnits="userSpaceOnUse">
            <feFlood flood-opacity="0" result="BackgroundImageFix"/>
            <feColorMatrix in="SourceAlpha" values="0 0 0 0 0 0 0 0 0 0 0 0 0 0 0 0 0 0 127 0"/>
            <feOffset dy=".947"/>
            <feGaussianBlur stdDeviation="10"/>
            <feColorMatrix values="0 0 0 0 0 0 0 0 0 0 0 0 0 0 0 0 0 0 0.05 0"/>
            <feBlend in2="BackgroundImageFix" mode="multiply" result="effect1_dropShadow"/>
            <feBlend in="SourceGraphic" in2="effect1_dropShadow" result="shape"/>
        </filter>
        <filter id="filter2_d" width="465" height="304" x="0" y="83" color-interpolation-filters="sRGB" filterUnits="userSpaceOnUse">
            <feFlood flood-opacity="0" result="BackgroundImageFix"/>
            <feColorMatrix in="SourceAlpha" values="0 0 0 0 0 0 0 0 0 0 0 0 0 0 0 0 0 0 127 0"/>
            <feOffset dy="8"/>
            <feGaussianBlur stdDeviation="12"/>
            <feColorMatrix values="0 0 0 0 0.875229 0 0 0 0 0.906421 0 0 0 0 1 0 0 0 0.2 0"/>
            <feBlend in2="BackgroundImageFix" result="effect1_dropShadow"/>
            <feBlend in="SourceGraphic" in2="effect1_dropShadow" result="shape"/>
        </filter>
    </defs>
</svg>
