<svg xmlns="http://www.w3.org/2000/svg" width="375" height="552" fill="none" viewBox="0 0 375 552">
    <mask id="ryy9vf2r3a" width="375" height="552" x="0" y="0" maskUnits="userSpaceOnUse">
        <path fill="#FFE9E9" d="M0 0H375V552H0z"/>
    </mask>
    <g mask="url(#ryy9vf2r3a)">
        <rect width="327" height="468" x="24" y="52" fill="#FFE9E9" rx="16"/>
        <path stroke="#FF696D" stroke-dasharray="4.26 4.26" stroke-width="1.5" d="M476.203 28.829c-52.288 142.681-170.684-5.891-126.101-13.086C423 13 276 210-7.001 11" opacity=".5"/>
        <g filter="url(#filter0_d)">
            <rect width="104" height="60" x="40" y="128" fill="#FED0D0" rx="8" transform="rotate(-90 40 128)"/>
        </g>
        <path fill="#fff" stroke="#FF696D" stroke-linecap="round" stroke-width="1.5" d="M75.704 51.616c2.383 0 4.315-1.929 4.315-4.308 0-2.38-1.932-4.308-4.315-4.308-2.383 0-4.315 1.929-4.315 4.308 0 2.38 1.932 4.308 4.315 4.308z"/>
        <path fill="#fff" fill-rule="evenodd" stroke="#FF696D" stroke-linecap="round" stroke-width="1.5" d="M75.704 54.54c-3.606 0-7.532 1.51-9.418 4.116 0 0 1.56 1.5 2.103 2.734.482 1.093.611 2.997.611 2.997h17.183c0-5.438-4.691-9.847-10.479-9.847z" clip-rule="evenodd"/>
        <path stroke="#FF696D" stroke-linecap="round" stroke-width="1.5" d="M59.76 55.716c1.697 0 3.073-1.354 3.073-3.023s-1.376-3.022-3.073-3.022-3.072 1.353-3.072 3.022c0 1.67 1.375 3.023 3.072 3.023z"/>
        <path fill-rule="evenodd" stroke="#FF696D" stroke-linecap="round" stroke-width="1.5" d="M59.76 58.342c-3.733 0-6.76 2.706-6.76 6.045h13.52c0-3.339-3.027-6.045-6.76-6.045z" clip-rule="evenodd"/>
        <g filter="url(#filter1_d)">
            <rect width="343" height="420" x="16" y="76" fill="#fff" rx="8"/>
        </g>
        <g filter="url(#filter2_d)">
            <rect width="56" height="53.976" x="299" y="457" fill="#fff" rx="5.68"/>
        </g>
        <path fill="#fff" d="M333 471H345V480H333z"/>
        <path fill="#192D4D" d="M344.747 498.998l-2.109-1.758c-.294-.244-.747-.203-.99.09-.246.296-.205.744.09.99l.617.515h-30.191v-1.818l7.08-7.08c.419.247.907.39 1.428.39 1.539 0 2.792-1.242 2.812-2.776l7.366-1.801c.476.882 1.408 1.483 2.478 1.483 1.551 0 2.813-1.261 2.813-2.812 0-.477-.12-.926-.33-1.32L343 476.5c.283-.259.303-.711.044-.994-.253-.275-.707-.305-.993-.043l-7.19 6.602c-.441-.288-.968-.457-1.533-.457-1.539 0-2.792 1.243-2.811 2.777l-7.367 1.801c-.475-.883-1.408-1.484-2.478-1.484-1.551 0-2.813 1.262-2.813 2.813 0 .521.143 1.008.391 1.427l-6.086 6.086v-26.384l.515.618c.245.294.696.336.99.09.293-.246.335-.697.09-.99l-1.758-2.11c-.134-.161-.33-.253-.54-.253-.209 0-.406.092-.54.253l-1.758 2.11c-.12.144-.177.326-.16.514.017.187.106.355.25.476.294.245.745.205.991-.091l.514-.617v30.191h-1.055c-.387 0-.703.316-.703.703 0 .388.316.703.703.703h1.055v1.055c0 .387.316.703.703.703.387 0 .703-.316.703-.703v-1.055h30.191l-.618.515c-.294.246-.335.695-.09.99.134.161.331.253.54.253.165 0 .325-.058.45-.163l2.11-1.758c.161-.134.253-.33.253-.54 0-.209-.092-.406-.253-.54zm-11.419-15.983c.776 0 1.406.631 1.406 1.406 0 .775-.63 1.406-1.406 1.406-.775 0-1.406-.631-1.406-1.406 0-.775.631-1.406 1.406-1.406zm-12.656 3.093c.775 0 1.406.631 1.406 1.407 0 .775-.631 1.406-1.406 1.406-.775 0-1.406-.631-1.406-1.406 0-.776.631-1.407 1.406-1.407z"/>
        <path fill="#fff" fill-rule="evenodd" stroke="#FF696D" stroke-width="1.5" d="M320.497 485c-.689 0-1.314.28-1.765.732-.452.453-.732 1.078-.732 1.768s.28 1.315.732 1.768c.451.452 1.076.732 1.765.732.691 0 1.317-.28 1.77-.732.453-.453.733-1.078.733-1.768s-.28-1.315-.733-1.768c-.453-.452-1.079-.732-1.77-.732zM333.497 482c-.689 0-1.314.28-1.765.732-.452.453-.732 1.078-.732 1.768s.28 1.315.732 1.768c.451.452 1.076.732 1.765.732.691 0 1.317-.28 1.77-.732.453-.453.733-1.078.733-1.768s-.28-1.315-.733-1.768c-.453-.452-1.079-.732-1.77-.732z" clip-rule="evenodd"/>
        <path fill="#192D4D" d="M344.803 473.922c-.14-.148-.333-.227-.538-.219l-2.734.109c-.378.015-.689.353-.675.73.015.388.337.691.73.675l.789-.031-.734.672c-.283.259-.303.71-.045.993.259.283.711.303.994.045l.841-.771-.087.952c-.017.187.04.37.161.514.118.142.324.234.508.251.359 0 .699-.281.732-.638l.248-2.734c.018-.202-.051-.402-.19-.548zM320.672 493.492c.388 0 .703-.315.703-.703 0-.388-.315-.703-.703-.703-.388 0-.703.315-.703.703 0 .388.315.703.703.703zM320.672 496.656c.388 0 .703-.315.703-.703 0-.388-.315-.703-.703-.703-.388 0-.703.315-.703.703 0 .388.315.703.703.703zM333.328 493.562c.388 0 .703-.314.703-.703 0-.388-.315-.703-.703-.703-.388 0-.703.315-.703.703 0 .389.315.703.703.703zM333.328 496.727c.388 0 .703-.315.703-.704 0-.388-.315-.703-.703-.703-.388 0-.703.315-.703.703 0 .389.315.704.703.704zM333.328 490.398c.388 0 .703-.314.703-.703 0-.388-.315-.703-.703-.703-.388 0-.703.315-.703.703 0 .389.315.703.703.703z"/>
    </g>
    <defs>
        <filter id="filter0_d" width="108" height="152" x="16" y="8" color-interpolation-filters="sRGB" filterUnits="userSpaceOnUse">
            <feFlood flood-opacity="0" result="BackgroundImageFix"/>
            <feColorMatrix in="SourceAlpha" values="0 0 0 0 0 0 0 0 0 0 0 0 0 0 0 0 0 0 127 0"/>
            <feOffset dy="8"/>
            <feGaussianBlur stdDeviation="12"/>
            <feColorMatrix values="0 0 0 0 0.875229 0 0 0 0 0.906421 0 0 0 0 1 0 0 0 0.2 0"/>
            <feBlend in2="BackgroundImageFix" result="effect1_dropShadow"/>
            <feBlend in="SourceGraphic" in2="effect1_dropShadow" result="shape"/>
        </filter>
        <filter id="filter1_d" width="383" height="460" x="-4" y="56.947" color-interpolation-filters="sRGB" filterUnits="userSpaceOnUse">
            <feFlood flood-opacity="0" result="BackgroundImageFix"/>
            <feColorMatrix in="SourceAlpha" values="0 0 0 0 0 0 0 0 0 0 0 0 0 0 0 0 0 0 127 0"/>
            <feOffset dy=".947"/>
            <feGaussianBlur stdDeviation="10"/>
            <feColorMatrix values="0 0 0 0 0 0 0 0 0 0 0 0 0 0 0 0 0 0 0.04 0"/>
            <feBlend in2="BackgroundImageFix" mode="multiply" result="effect1_dropShadow"/>
            <feBlend in="SourceGraphic" in2="effect1_dropShadow" result="shape"/>
        </filter>
        <filter id="filter2_d" width="96" height="93.976" x="279" y="437.947" color-interpolation-filters="sRGB" filterUnits="userSpaceOnUse">
            <feFlood flood-opacity="0" result="BackgroundImageFix"/>
            <feColorMatrix in="SourceAlpha" values="0 0 0 0 0 0 0 0 0 0 0 0 0 0 0 0 0 0 127 0"/>
            <feOffset dy=".947"/>
            <feGaussianBlur stdDeviation="10"/>
            <feColorMatrix values="0 0 0 0 0 0 0 0 0 0 0 0 0 0 0 0 0 0 0.05 0"/>
            <feBlend in2="BackgroundImageFix" mode="multiply" result="effect1_dropShadow"/>
            <feBlend in="SourceGraphic" in2="effect1_dropShadow" result="shape"/>
        </filter>
    </defs>
</svg>
