<svg xmlns="http://www.w3.org/2000/svg" width="568" height="483" fill="none" viewBox="0 0 568 483">
    <g clip-path="url(#clip0)">
        <rect width="443" height="400" x="99" y="23" fill="#FFE9E9" rx="16"/>
        <g filter="url(#filter0_d)">
            <rect width="104" height="61" x="451" y="114" fill="#FED0D0" rx="8"/>
        </g>
        <path fill="#FF696D" d="M505.421 141.385l.711-.703-.711-.72-.711.72.711.703zm12.658 12.807l-.711.703.711.72.711-.72-.711-.703zM542 130.994c-.003-.552-.454-.997-1.006-.994l-9 .053c-.552.003-.997.454-.994 1.006.003.552.454.997 1.006.994l8-.047.047 8c.003.552.454.997 1.006.994.552-.003.997-.454.994-1.006l-.053-9zm-52.289 27.709l16.421-16.615-1.422-1.406-16.421 16.615 1.422 1.406zm14.999-16.615l12.658 12.807 1.422-1.406-12.658-12.807-1.422 1.406zm14.08 12.807l22.921-23.192-1.422-1.406-22.921 23.192 1.422 1.406z"/>
        <path stroke="#FF696D" stroke-dasharray="4.26 4.26" stroke-width="1.5" d="M248.246 208c-22.231-128.213 128.619-68.719 98.749-44.292C315.638 189.351 310.211-71.794 499 27.722" opacity=".5"/>
        <g filter="url(#filter1_d)">
            <rect width="56" height="53.976" x="338" y="8" fill="#fff" rx="5.68"/>
        </g>
        <path fill="#192D4D" stroke="#fff" stroke-width=".2" d="M380.611 20.038l-.005.1c-2.557-.14-7.555-.004-12.332 2.467-2.433 1.258-5.01 3.395-7.068 5.862l-.043.052-.032.04-.027.032-.043.003-4.686.362c-.741.057-1.4.445-1.809 1.065l-3.197 4.836-.084-.056.084.056c-.305.46-.354 1.037-.13 1.542m29.372-16.361l-29.372 16.361m29.372-16.361l-.005.1c1.22.066 2.19 1.036 2.257 2.256.139 2.557.003 7.555-2.468 12.332l.089.046-.089-.046c-1.258 2.433-3.395 5.01-5.862 7.068l-.051.043-.04.033-.033.027-.003.042-.362 4.686c-.057.74-.445 1.4-1.065 1.81l-4.835 3.197c-.27.178-.578.268-.889.268-.221 0-.444-.046-.654-.139-.505-.223-.857-.682-.942-1.228l-.611-3.949-.016-.101-.101.018-.014.003-.215.038c-.129.021-.258.032-.387.032-.625 0-1.236-.25-1.688-.701l-5.5-5.5-.07.071m23.554-20.406l-23.554 20.406m-5.818-4.045c.223.506.683.857 1.229.942l3.948.611.101.016-.018.101-.003.013-.038.216h0c-.126.754.124 1.53.669 2.075l-.07.071m-5.818-4.045l5.818 4.045m-.553-9.818c-.221.017-.419.133-.541.319l-3.058 4.625-.086.13.154.024 3.847.596.087.014.025-.084c.571-1.945 1.487-3.87 2.716-5.704l.114-.171-.205.015-3.053.236zm0 0l.008.1-.008-.1h0zm10.772 19.401l.024.154.13-.085 4.626-3.059c.185-.122.301-.32.318-.54l.236-3.054.016-.205-.172.114c-1.834 1.229-3.759 2.145-5.704 2.716l-.084.025.014.087.596 3.847zm-8.964-10.838h0l-.103-.598-.099-.017s0 0 0 0c-.037.223.039.453.202.615zm10.674 4.151l.05.05.064-.03c1.363-.665 2.84-1.583 4.361-2.852 2.299-1.918 4.284-4.305 5.446-6.551 2.29-4.428 2.413-9.089 2.283-11.471-.02-.366-.31-.656-.675-.676l-.006.1.006-.1c-2.383-.13-7.044-.007-11.471 2.283-2.247 1.162-4.634 3.148-6.552 5.447-.919 1.102-1.981 2.581-2.852 4.36l-.031.063.051.051 9.326 9.326z" opacity=".1"/>
        <path fill="#192D4D" stroke="#fff" stroke-width=".2" d="M379.611 19.038l-.005.1c-2.557-.14-7.555-.004-12.332 2.467-2.433 1.258-5.01 3.395-7.068 5.862l-.043.052-.032.04-.027.032-.043.003-4.686.362c-.741.057-1.4.445-1.809 1.065l-3.197 4.836-.084-.056.084.056c-.305.46-.354 1.037-.13 1.542m29.372-16.361l-29.372 16.361m29.372-16.361l-.005.1c1.22.066 2.19 1.036 2.257 2.256.139 2.557.003 7.555-2.468 12.332l.089.046-.089-.046c-1.258 2.433-3.395 5.01-5.862 7.068l-.051.043-.04.033-.033.027-.003.042-.362 4.686c-.057.74-.445 1.4-1.065 1.81l-4.835 3.197c-.27.178-.578.268-.889.268-.221 0-.444-.046-.654-.139-.505-.223-.857-.682-.942-1.228l-.611-3.949-.016-.101-.101.018-.014.003-.215.038c-.129.021-.258.032-.387.032-.625 0-1.236-.25-1.688-.701l-5.5-5.5-.07.071m23.554-20.406l-23.554 20.406m-5.818-4.045c.223.506.683.857 1.229.942l3.948.611.101.016-.018.101-.003.013-.038.216h0c-.126.754.124 1.53.669 2.075l-.07.071m-5.818-4.045l5.818 4.045m-.553-9.818c-.221.017-.419.133-.541.319l-3.058 4.625-.086.13.154.024 3.847.596.087.014.025-.084c.571-1.945 1.487-3.87 2.716-5.704l.114-.171-.205.015-3.053.236zm0 0l.008.1-.008-.1h0zm10.772 19.401l.024.154.13-.085 4.626-3.059c.185-.122.301-.32.318-.54l.236-3.054.016-.205-.172.114c-1.834 1.229-3.759 2.145-5.704 2.716l-.084.025.014.087.596 3.847zm-8.964-10.838h0l-.103-.598-.099-.017s0 0 0 0c-.037.223.039.453.202.615zm10.674 4.151l.05.05.064-.03c1.363-.665 2.84-1.583 4.361-2.852 2.299-1.918 4.284-4.305 5.446-6.551 2.29-4.428 2.413-9.089 2.283-11.471-.02-.366-.31-.656-.675-.676l-.006.1.006-.1c-2.383-.13-7.044-.007-11.471 2.283-2.247 1.162-4.634 3.148-6.552 5.447-.919 1.102-1.981 2.581-2.852 4.36l-.031.063.051.051 9.326 9.326z"/>
        <path fill="#192D4D" stroke="#fff" stroke-width=".2" d="M375.164 25.836l.07-.07-.07.07c.866.867 1.343 2.019 1.343 3.244 0 1.226-.477 2.377-1.343 3.244l.07.07-.07-.07c-.895.894-2.069 1.341-3.244 1.341-1.175 0-2.35-.447-3.244-1.341-.866-.867-1.344-2.018-1.344-3.244 0-1.225.477-2.377 1.344-3.244h0c1.789-1.788 4.699-1.788 6.488 0zm-5.304 5.303l.071-.07-.071-4.048c-.55.55-.853 1.281-.853 2.06 0 .777.303 1.509.853 2.058zm2.06-4.97c-.746 0-1.492.284-2.06.852l4.048.07.071-.07s0 0 0 0c-.568-.568-1.314-.852-2.059-.852z"/>
        <path fill="#FF696D" stroke="#fff" stroke-width=".2" d="M351.549 45.026h0c-.163.163-.377.245-.592.245-.214 0-.429-.082-.592-.245h0c-.327-.327-.327-.858 0-1.185l-.07-.07.07.07 3.061-3.06c.327-.328.857-.328 1.184 0h0c.327.327.327.857 0 1.184l-3.061 3.06z"/>
        <path fill="#FF696D" stroke="#fff" stroke-width=".2" d="M352.549 46.026h0c-.163.163-.377.245-.592.245-.214 0-.429-.082-.592-.245h0c-.327-.327-.327-.858 0-1.185l-.07-.07.07.07 3.061-3.06c.327-.328.857-.328 1.184 0h0c.327.327.327.857 0 1.184l-3.061 3.06z" opacity=".1"/>
        <path fill="#FF696D" stroke="#fff" stroke-width=".2" d="M357.414 43.586h0c.327.327.327.857 0 1.184h0l-5.884 5.885h0c-.164.163-.378.245-.593.245-.214 0-.428-.082-.592-.245-.327-.327-.327-.858 0-1.185l5.885-5.884c.327-.327.857-.327 1.184 0zm-5.814 7.14l5.885-5.885-5.885 5.884z"/>
        <path fill="#FF696D" stroke="#fff" stroke-width=".2" d="M358.414 44.586h0c.327.327.327.857 0 1.184h0l-5.884 5.885h0c-.164.163-.378.245-.593.245-.214 0-.428-.082-.592-.245-.327-.327-.327-.858 0-1.185l5.885-5.884c.327-.327.857-.327 1.184 0zm-5.814 7.14l5.885-5.885-5.885 5.884z" opacity=".1"/>
        <path fill="#FF696D" stroke="#fff" stroke-width=".2" d="M359.035 46.39h0c.327-.326.857-.326 1.184 0h0c.327.328.327.858 0 1.185l-3.06 3.06h0c-.164.165-.378.246-.593.246-.214 0-.428-.081-.592-.245-.327-.327-.327-.857 0-1.184l3.061-3.061z"/>
        <path fill="#FF696D" stroke="#fff" stroke-width=".2" d="M360.035 47.39h0c.327-.326.857-.326 1.184 0h0c.327.328.327.858 0 1.185l-3.06 3.06h0c-.164.165-.378.246-.593.246-.214 0-.428-.081-.592-.245-.327-.327-.327-.857 0-1.184l3.061-3.061z" opacity=".1"/>
        <path stroke="#FF696D" stroke-dasharray="4.26 4.26" stroke-width="1.5" d="M197.246 451c-22.231-128.213 128.619-68.719 98.749-44.292C264.638 432.351 259.211 171.206 448 270.722" opacity=".5"/>
        <g filter="url(#filter2_d)">
            <rect width="417" height="292" x="83" y="77" fill="#fff" rx="6"/>
        </g>
    </g>
    <defs>
        <filter id="filter0_d" width="152" height="109" x="427" y="98" color-interpolation-filters="sRGB" filterUnits="userSpaceOnUse">
            <feFlood flood-opacity="0" result="BackgroundImageFix"/>
            <feColorMatrix in="SourceAlpha" values="0 0 0 0 0 0 0 0 0 0 0 0 0 0 0 0 0 0 127 0"/>
            <feOffset dy="8"/>
            <feGaussianBlur stdDeviation="12"/>
            <feColorMatrix values="0 0 0 0 0.875229 0 0 0 0 0.906421 0 0 0 0 1 0 0 0 0.2 0"/>
            <feBlend in2="BackgroundImageFix" result="effect1_dropShadow"/>
            <feBlend in="SourceGraphic" in2="effect1_dropShadow" result="shape"/>
        </filter>
        <filter id="filter1_d" width="96" height="93.976" x="318" y="-11.053" color-interpolation-filters="sRGB" filterUnits="userSpaceOnUse">
            <feFlood flood-opacity="0" result="BackgroundImageFix"/>
            <feColorMatrix in="SourceAlpha" values="0 0 0 0 0 0 0 0 0 0 0 0 0 0 0 0 0 0 127 0"/>
            <feOffset dy=".947"/>
            <feGaussianBlur stdDeviation="10"/>
            <feColorMatrix values="0 0 0 0 0 0 0 0 0 0 0 0 0 0 0 0 0 0 0.05 0"/>
            <feBlend in2="BackgroundImageFix" mode="multiply" result="effect1_dropShadow"/>
            <feBlend in="SourceGraphic" in2="effect1_dropShadow" result="shape"/>
        </filter>
        <filter id="filter2_d" width="457" height="332" x="63" y="57.947" color-interpolation-filters="sRGB" filterUnits="userSpaceOnUse">
            <feFlood flood-opacity="0" result="BackgroundImageFix"/>
            <feColorMatrix in="SourceAlpha" values="0 0 0 0 0 0 0 0 0 0 0 0 0 0 0 0 0 0 127 0"/>
            <feOffset dy=".947"/>
            <feGaussianBlur stdDeviation="10"/>
            <feColorMatrix values="0 0 0 0 0 0 0 0 0 0 0 0 0 0 0 0 0 0 0.04 0"/>
            <feBlend in2="BackgroundImageFix" mode="multiply" result="effect1_dropShadow"/>
            <feBlend in="SourceGraphic" in2="effect1_dropShadow" result="shape"/>
        </filter>
        <clipPath id="clip0">
            <path fill="#fff" d="M0 0H568V483H0z"/>
        </clipPath>
    </defs>
</svg>
