<svg xmlns="http://www.w3.org/2000/svg" width="375" height="520" fill="none" viewBox="0 0 375 520">
    <mask id="p1gv6kbi7a" width="375" height="520" x="0" y="0" maskUnits="userSpaceOnUse">
        <path fill="#FFE9E9" d="M0 0H375V520H0z"/>
    </mask>
    <g mask="url(#p1gv6kbi7a)">
        <rect width="327" height="372" x="24" y="100" fill="#FFE9E9" rx="16"/>
        <g filter="url(#filter0_d)">
            <rect width="104" height="60" x="56" y="184" fill="#FED0D0" rx="8" transform="rotate(-90 56 184)"/>
        </g>
        <path fill="#FF696D" d="M78.421 101.385l.711-.703-.71-.72-.712.72.711.703zm12.658 12.807l-.711.703.712.721.711-.722-.712-.702zM111 94.992c-.004-.551-.455-.996-1.007-.992l-9 .064c-.552.004-.997.455-.993 1.007.004.552.455.997 1.007.993l8-.057.057 8c.004.552.455.997 1.007.993.552-.004.997-.455.993-1.007l-.064-9zm-48.289 23.711l16.421-16.615-1.422-1.406-16.421 16.615 1.422 1.406zm14.999-16.615l12.658 12.807 1.422-1.406-12.658-12.807-1.422 1.406zm14.081 12.806l18.921-19.192-1.424-1.404-18.921 19.192 1.424 1.404z"/>
        <path stroke="#FF696D" stroke-dasharray="4.26 4.26" stroke-width="1.5" d="M181.246 231c-22.231-128.213 128.619-68.719 98.749-44.292C248.638 212.351 243.211-48.794 432 50.722" opacity=".5"/>
        <g filter="url(#filter1_d)">
            <rect width="56" height="53.976" x="271" y="31" fill="#fff" rx="5.68"/>
        </g>
        <path fill="#192D4D" stroke="#fff" stroke-width=".2" d="M289.504 53.626c-.221.017-.419.133-.541.319l-3.058 4.625-.086.13.154.024 3.847.596.087.014.025-.084c.571-1.945 1.487-3.87 2.716-5.704l.114-.172-.205.016-3.053.236zm0 0l.008.1-.008-.1h0zm24.102-10.489l.005-.1-.005.1c1.22.067 2.19 1.037 2.257 2.257.139 2.557.003 7.555-2.468 12.332l.089.046-.089-.046c-1.258 2.433-3.395 5.01-5.862 7.068l-.091.076-.033.026-.003.043-.362 4.686c-.057.74-.445 1.4-1.065 1.81l-4.835 3.197c-.27.178-.578.268-.889.268-.221 0-.444-.046-.654-.139-.505-.223-.857-.682-.942-1.228l-.611-3.949-.016-.101-.101.018-.014.003-.215.038c-.129.021-.258.032-.387.032-.625 0-1.236-.25-1.688-.701l-5.5-5.5-.07.07.07-.07c-.545-.545-.795-1.321-.669-2.075h0l.038-.216.003-.013.018-.1-.101-.017-3.948-.611c-.546-.085-1.006-.437-1.229-.942-.224-.505-.175-1.082.13-1.543l-.084-.055.084.055 3.197-4.835c.409-.62 1.068-1.008 1.809-1.065l4.686-.362.043-.003.027-.033.032-.04.043-.051c2.058-2.467 4.635-4.604 7.068-5.862 4.777-2.47 9.775-2.607 12.332-2.468zm-13.33 29.89l.024.154.13-.086 4.626-3.058c.185-.122.301-.32.318-.541l.236-3.053.016-.205-.172.114c-1.834 1.228-3.759 2.144-5.704 2.716l-.084.025.014.087.596 3.847zm-8.964-10.838h0l-.103-.598-.099-.017s0 0 0 0c-.037.223.039.452.202.615zm10.674 4.151l.05.05.064-.03c1.363-.665 2.84-1.584 4.361-2.852 2.299-1.918 4.284-4.305 5.446-6.551 2.29-4.428 2.413-9.09 2.283-11.471-.02-.366-.31-.656-.675-.676l-.006.1.006-.1c-2.383-.13-7.044-.008-11.471 2.283-2.247 1.162-4.634 3.147-6.552 5.447-.919 1.102-1.981 2.581-2.852 4.36l-.031.063.051.05 9.326 9.327z" opacity=".1"/>
        <path fill="#192D4D" stroke="#fff" stroke-width=".2" d="M288.504 52.626c-.221.017-.419.133-.541.319l-3.058 4.625-.086.13.154.024 3.847.596.087.014.025-.084c.571-1.945 1.487-3.87 2.716-5.704l.114-.172-.205.016-3.053.236zm0 0l.008.1-.008-.1h0zm24.102-10.489l.005-.1-.005.1c1.22.067 2.19 1.037 2.257 2.257.139 2.557.003 7.555-2.468 12.332l.089.046-.089-.046c-1.258 2.433-3.395 5.01-5.862 7.068l-.091.076-.033.027-.003.042-.362 4.686c-.057.74-.445 1.4-1.065 1.81l-4.835 3.197c-.27.178-.578.268-.889.268-.221 0-.444-.046-.654-.139-.505-.223-.857-.682-.942-1.228l-.611-3.949-.016-.101-.101.018-.014.003-.215.038c-.129.021-.258.032-.387.032-.625 0-1.236-.25-1.688-.701l-5.5-5.5-.07.07.07-.07c-.545-.545-.795-1.321-.669-2.075h0l.038-.216.003-.013.018-.1-.101-.017-3.948-.611c-.546-.085-1.006-.437-1.229-.942-.224-.505-.175-1.082.13-1.543l-.084-.055.084.055 3.197-4.835c.409-.62 1.068-1.008 1.809-1.065l4.686-.362.043-.003.027-.033.032-.04.043-.051c2.058-2.467 4.635-4.604 7.068-5.862 4.777-2.47 9.775-2.607 12.332-2.468zm-13.33 29.89l.024.154.13-.086 4.626-3.058c.185-.122.301-.32.318-.541l.236-3.053.016-.205-.172.114c-1.834 1.228-3.759 2.144-5.704 2.716l-.084.025.014.087.596 3.847zm-8.964-10.838h0l-.103-.598-.099-.017s0 0 0 0c-.037.223.039.452.202.615zm10.674 4.151l.05.05.064-.03c1.363-.665 2.84-1.584 4.361-2.852 2.299-1.918 4.284-4.305 5.446-6.551 2.29-4.428 2.413-9.09 2.283-11.471-.02-.366-.31-.656-.675-.676l-.006.1.006-.1c-2.383-.13-7.044-.008-11.471 2.283-2.247 1.162-4.634 3.147-6.552 5.447-.919 1.102-1.981 2.581-2.852 4.36l-.031.063.051.05 9.326 9.327z"/>
        <path fill="#192D4D" stroke="#fff" stroke-width=".2" d="M308.164 48.836l.07-.07-.07.07c.866.867 1.343 2.019 1.343 3.244s-.477 2.377-1.343 3.244l.07.07-.07-.07c-.895.894-2.069 1.34-3.244 1.341-1.175 0-2.35-.447-3.244-1.341-.866-.867-1.344-2.019-1.344-3.244s.477-2.377 1.344-3.244h0c1.789-1.788 4.699-1.788 6.488 0zm-5.304 5.303l.071-.07-.071-4.049c-.55.55-.853 1.282-.853 2.06s.303 1.51.853 2.06zm2.06-4.97c-.746 0-1.492.284-2.06.852l4.048.07.071-.07s0 0 0 0c-.568-.568-1.314-.852-2.059-.852z"/>
        <path fill="#FF696D" stroke="#fff" stroke-width=".2" d="M284.549 68.026h0c-.163.163-.377.245-.592.245-.214 0-.429-.082-.592-.245h0c-.327-.328-.327-.858 0-1.185l-.071-.07.071.07 3.061-3.06c.327-.328.857-.328 1.184 0h0c.327.326.327.857 0 1.184l-3.061 3.06z"/>
        <path fill="#FF696D" stroke="#fff" stroke-width=".2" d="M285.549 69.026h0c-.163.163-.377.245-.592.245-.214 0-.429-.082-.592-.245h0c-.327-.328-.327-.858 0-1.185l-.071-.07.071.07 3.061-3.06c.327-.328.857-.328 1.184 0h0c.327.326.327.857 0 1.184l-3.061 3.06z" opacity=".1"/>
        <path fill="#FF696D" stroke="#fff" stroke-width=".2" d="M284.53 73.655h0c-.164.163-.378.245-.593.245-.214 0-.428-.082-.592-.245-.327-.327-.327-.858 0-1.185l5.885-5.885c.327-.326.857-.326 1.184 0l.071-.07-.071.07c.327.328.327.858 0 1.185h0l-5.884 5.885zm.07.07l5.885-5.884c.366-.366.366-.96 0-1.326-.366-.366-.96-.366-1.326 0l-5.884 5.885c-.367.366-.367.96 0 1.325.183.183.423.275.662.275.24 0 .48-.092.663-.275z"/>
        <path fill="#FF696D" stroke="#fff" stroke-width=".2" d="M285.53 74.655h0c-.164.163-.378.245-.593.245-.214 0-.428-.082-.592-.245-.327-.327-.327-.858 0-1.185l5.885-5.885c.327-.326.857-.326 1.184 0l.071-.07-.071.07c.327.328.327.858 0 1.185h0l-5.884 5.885zm.07.07l5.885-5.884c.366-.366.366-.96 0-1.326-.366-.366-.96-.366-1.326 0l-5.884 5.885c-.367.366-.367.96 0 1.325.183.183.423.275.662.275.24 0 .48-.092.663-.275z" opacity=".1"/>
        <path fill="#FF696D" stroke="#fff" stroke-width=".2" d="M292.035 69.39h0c.327-.326.857-.326 1.184 0h0c.327.328.327.858 0 1.185l-3.06 3.06h0c-.164.164-.378.246-.593.246-.214 0-.428-.082-.592-.245-.327-.327-.327-.857 0-1.184l3.061-3.061zm1.255 1.256c.366-.366.366-.96 0-1.326-.366-.366-.96-.366-1.326 0l-3.061 3.06c-.366.367-.366.96 0 1.327.184.183.423.274.663.274.24 0 .48-.091.663-.274l3.061-3.061z"/>
        <path fill="#FF696D" stroke="#fff" stroke-width=".2" d="M293.035 70.39h0c.327-.326.857-.326 1.184 0h0c.327.328.327.858 0 1.185l-3.06 3.06h0c-.164.164-.378.246-.593.246-.214 0-.428-.082-.592-.245-.327-.327-.327-.857 0-1.184l3.061-3.061zm1.255 1.256c.366-.366.366-.96 0-1.326-.366-.366-.96-.366-1.326 0l-3.061 3.06c-.366.367-.366.96 0 1.327.184.183.423.274.663.274.24 0 .48-.091.663-.274l3.061-3.061z" opacity=".1"/>
        <path stroke="#FF696D" stroke-dasharray="4.26 4.26" stroke-width="1.5" d="M106.246 530c-22.23-128.213 128.619-68.719 98.749-44.292C173.638 511.351 168.211 250.206 357 349.722" opacity=".5"/>
        <g filter="url(#filter2_d)">
            <rect width="343" height="308" x="16" y="132" fill="#fff" rx="8"/>
        </g>
    </g>
    <defs>
        <filter id="filter0_d" width="108" height="152" x="32" y="64" color-interpolation-filters="sRGB" filterUnits="userSpaceOnUse">
            <feFlood flood-opacity="0" result="BackgroundImageFix"/>
            <feColorMatrix in="SourceAlpha" values="0 0 0 0 0 0 0 0 0 0 0 0 0 0 0 0 0 0 127 0"/>
            <feOffset dy="8"/>
            <feGaussianBlur stdDeviation="12"/>
            <feColorMatrix values="0 0 0 0 0.875229 0 0 0 0 0.906421 0 0 0 0 1 0 0 0 0.2 0"/>
            <feBlend in2="BackgroundImageFix" result="effect1_dropShadow"/>
            <feBlend in="SourceGraphic" in2="effect1_dropShadow" result="shape"/>
        </filter>
        <filter id="filter1_d" width="96" height="93.976" x="251" y="11.947" color-interpolation-filters="sRGB" filterUnits="userSpaceOnUse">
            <feFlood flood-opacity="0" result="BackgroundImageFix"/>
            <feColorMatrix in="SourceAlpha" values="0 0 0 0 0 0 0 0 0 0 0 0 0 0 0 0 0 0 127 0"/>
            <feOffset dy=".947"/>
            <feGaussianBlur stdDeviation="10"/>
            <feColorMatrix values="0 0 0 0 0 0 0 0 0 0 0 0 0 0 0 0 0 0 0.05 0"/>
            <feBlend in2="BackgroundImageFix" mode="multiply" result="effect1_dropShadow"/>
            <feBlend in="SourceGraphic" in2="effect1_dropShadow" result="shape"/>
        </filter>
        <filter id="filter2_d" width="383" height="348" x="-4" y="112.947" color-interpolation-filters="sRGB" filterUnits="userSpaceOnUse">
            <feFlood flood-opacity="0" result="BackgroundImageFix"/>
            <feColorMatrix in="SourceAlpha" values="0 0 0 0 0 0 0 0 0 0 0 0 0 0 0 0 0 0 127 0"/>
            <feOffset dy=".947"/>
            <feGaussianBlur stdDeviation="10"/>
            <feColorMatrix values="0 0 0 0 0 0 0 0 0 0 0 0 0 0 0 0 0 0 0.04 0"/>
            <feBlend in2="BackgroundImageFix" mode="multiply" result="effect1_dropShadow"/>
            <feBlend in="SourceGraphic" in2="effect1_dropShadow" result="shape"/>
        </filter>
    </defs>
</svg>
