<svg xmlns="http://www.w3.org/2000/svg" width="40" height="44" fill="none" viewBox="0 0 40 44">
    <g clip-path="url(#prefix__clip0)">
        <path stroke="#1A3154" stroke-linecap="round" stroke-width="1.5" d="M39.492 43.997v2.028c0 1.034-.107 1.41-.31 1.788-.202.378-.499.675-.877.877-.378.202-.753.31-1.788.31H9.975c-1.034 0-1.41-.108-1.788-.31-.378-.202-.675-.5-.877-.877-.202-.379-.31-.754-.31-1.788V11.36c0-1.035.108-1.41.31-1.788.202-.378.5-.675.877-.877.379-.203.754-.31 1.788-.31h26.542c1.035 0 1.41.107 1.788.31.378.202.675.499.877.877.203.378.31.753.31 1.788V15.4"/>
        <path stroke="#FF696D" stroke-linecap="round" stroke-width="1.5" d="M42.974 37.976V19.989m0 0l-3.482 4.062m3.482-4.062l3.48 4.062"/>
        <path stroke="#1A3154" stroke-linecap="round" stroke-width="1.5" d="M32 8V6c0-.552-.448-1-1-1H16c-.552 0-1 .448-1 1v2"/>
        <path fill="#1A3154" fill-rule="evenodd" d="M34.221 21.15c.347 0 .629.28.629.628 0 .347-.282.628-.629.628H13.43c-.347 0-.629-.281-.629-.628s.282-.629.629-.629H34.22zM34.221 28.112c.347 0 .629.281.629.629 0 .347-.282.628-.629.628H13.43c-.347 0-.629-.281-.629-.628 0-.348.282-.63.629-.63H34.22zM28.418 35.075c.348 0 .629.28.629.628 0 .347-.282.629-.629.629H13.43c-.347 0-.628-.282-.628-.629 0-.347.281-.629.628-.629h14.99z" clip-rule="evenodd"/>
    </g>
    <defs>
        <clipPath id="prefix__clip0">
            <path fill="#fff" d="M0 0H39.455V44H0z"/>
        </clipPath>
    </defs>
</svg>
