<svg xmlns="http://www.w3.org/2000/svg" width="54" height="54" fill="none" viewBox="0 0 54 54">
    <path fill="#192D4D" stroke="#fff" stroke-width=".4" d="M27.5 39.903h0c3.29-.003 6.442-1.311 8.767-3.636 2.325-2.326 3.633-5.479 3.637-8.767v0c0-2.453-.727-4.852-2.09-6.891-1.363-2.04-3.3-3.63-5.567-4.569-2.266-.939-4.76-1.184-7.166-.706-2.407.479-4.617 1.66-6.351 3.395-1.735 1.735-2.916 3.945-3.395 6.35-.479 2.407-.233 4.9.706 7.167.939 2.267 2.529 4.204 4.568 5.567 2.04 1.363 4.438 2.09 6.891 2.09zm-7.85-24.152c2.324-1.553 5.056-2.382 7.85-2.382 3.747.004 7.338 1.494 9.987 4.143 2.65 2.65 4.14 6.241 4.144 9.988 0 2.795-.829 5.526-2.382 7.85-1.552 2.324-3.76 4.135-6.341 5.204-2.582 1.07-5.423 1.35-8.164.805-2.741-.546-5.26-1.891-7.235-3.868-1.976-1.976-3.322-4.494-3.868-7.235-.545-2.74-.265-5.582.804-8.164 1.07-2.582 2.881-4.789 5.205-6.341z"/>
    <path fill="#FF696D" d="M34.399 22.379c.166.22.48.264.7.098.22-.167.265-.48.098-.7l-.798.602zm-14.112 3.59c.134.242.438.329.68.195l3.933-2.186c.242-.134.329-.438.194-.68-.134-.241-.438-.328-.68-.194l-3.496 1.943-1.943-3.497c-.134-.241-.438-.328-.68-.194-.241.134-.328.438-.194.68l2.186 3.933zm14.91-4.193c-2.203-2.918-5.403-3.908-8.34-3.167-2.93.739-5.528 3.18-6.614 6.98l.961.275c1-3.498 3.353-5.643 5.897-6.286 2.537-.64 5.33.194 7.298 2.8l.798-.602zM21.122 31.369c-.166-.22-.48-.264-.7-.098-.22.166-.264.48-.098.7l.798-.602zm14.113-3.59c-.134-.242-.439-.329-.68-.195l-3.934 2.186c-.241.134-.328.438-.194.68.134.24.439.328.68.194l3.497-1.943 1.942 3.497c.134.241.439.328.68.194.242-.134.328-.439.194-.68l-2.185-3.934zm-14.91 4.192c2.202 2.918 5.403 3.909 8.34 3.168 2.929-.74 5.528-3.18 6.614-6.98l-.962-.275c-1 3.497-3.352 5.643-5.897 6.285-2.536.64-5.33-.194-7.298-2.8l-.798.602z"/>
    <mask id="prefix__a" fill="#fff">
        <path d="M50.936 23.232h-4.215c-.492-2.24-1.376-4.374-2.613-6.304l2.982-2.98c.099-.098.177-.215.23-.344.054-.13.082-.268.082-.407 0-.14-.028-.278-.081-.407-.054-.13-.132-.246-.23-.345l-4.534-4.533c-.2-.199-.47-.31-.752-.31-.282 0-.552.111-.751.31l-2.981 2.978c-1.93-1.236-4.065-2.12-6.304-2.612V4.063c0-.14-.027-.278-.08-.407-.054-.129-.132-.246-.231-.345-.099-.098-.216-.177-.345-.23-.13-.054-.268-.081-.407-.081h-6.411c-.14 0-.278.027-.407.08-.13.054-.247.133-.345.231-.099.1-.177.216-.23.345-.054.13-.082.268-.081.407v4.215c-2.24.492-4.374 1.377-6.304 2.613l-2.98-2.982c-.199-.199-.469-.31-.75-.31-.283 0-.553.111-.753.31l-4.533 4.533c-.098.099-.177.216-.23.345-.054.129-.081.267-.081.407 0 .14.027.278.08.407.054.129.133.246.231.345l2.978 2.98c-1.236 1.93-2.12 4.065-2.612 6.304H4.063c-.14 0-.278.028-.407.081-.129.053-.246.132-.345.23-.098.1-.177.217-.23.346-.054.129-.081.267-.081.407v6.41c0 .14.027.279.08.407.054.13.133.247.231.346.1.098.216.177.345.23.13.053.268.081.407.08h4.215c.492 2.24 1.377 4.374 2.613 6.305L7.91 41.054c-.099.098-.177.215-.23.344-.054.13-.082.268-.082.408 0 .14.028.278.081.407.054.129.132.246.23.344l4.534 4.533c.2.2.47.311.752.311.282 0 .552-.112.751-.31l2.98-2.982c1.93 1.236 4.065 2.121 6.304 2.613v4.215c0 .14.028.278.081.407.053.129.132.246.23.345.1.099.217.177.346.23.129.054.267.081.407.081h6.41c.14 0 .279-.027.407-.08.13-.054.247-.133.346-.231.098-.099.177-.216.23-.345.053-.13.081-.268.08-.407V46.72c2.24-.492 4.374-1.376 6.305-2.613l2.982 2.982c.199.199.47.31.751.31.282 0 .553-.111.752-.31l4.533-4.533c.099-.099.177-.216.23-.345.054-.129.082-.267.082-.407 0-.14-.028-.278-.081-.407-.054-.13-.132-.246-.23-.345l-2.982-2.98c1.236-1.93 2.12-4.065 2.613-6.304h4.215c.14 0 .278-.027.407-.08.129-.054.246-.132.345-.231.099-.099.177-.216.23-.345.054-.13.081-.268.081-.407v-6.411c0-.14-.027-.278-.08-.407-.054-.13-.133-.247-.232-.345-.098-.1-.216-.177-.345-.23-.129-.054-.267-.082-.407-.081zm-1.063 6.41h-4.027c-.25 0-.493.088-.685.25-.191.16-.32.384-.362.631-.438 2.546-1.439 4.961-2.93 7.07-.144.205-.211.455-.19.704.022.25.13.484.308.66l2.847 2.848-3.029 3.03-2.848-2.848c-.177-.177-.41-.286-.66-.308-.25-.021-.5.046-.704.19-2.109 1.49-4.524 2.492-7.07 2.93-.247.043-.47.171-.632.363-.161.192-.25.434-.25.685v4.026h-4.283v-4.026c0-.25-.088-.493-.25-.685-.161-.192-.385-.32-.632-.363-2.545-.438-4.96-1.44-7.07-2.93-.204-.144-.454-.211-.703-.19-.25.022-.484.13-.66.308l-2.849 2.847-3.03-3.029 2.848-2.847c.178-.177.287-.411.308-.66.022-.25-.046-.5-.19-.704-1.49-2.11-2.492-4.525-2.93-7.07-.042-.248-.17-.471-.362-.633-.192-.161-.434-.25-.685-.25H5.127v-4.283h4.026c.25 0 .493-.088.685-.25.192-.161.32-.385.363-.632.437-2.546 1.438-4.961 2.93-7.07.143-.205.21-.454.19-.704-.022-.25-.131-.483-.309-.66l-2.847-2.848 3.03-3.03 2.847 2.848c.177.178.411.287.66.308.25.022.5-.045.704-.19 2.11-1.49 4.525-2.492 7.07-2.93.247-.042.47-.171.632-.363.162-.191.25-.434.25-.684V5.127h4.283v4.026c0 .25.089.493.25.684.162.192.386.32.632.363 2.546.438 4.961 1.44 7.07 2.93.205.145.454.212.704.19.25-.021.483-.13.66-.308l2.848-2.847 3.03 3.03-2.848 2.847c-.177.177-.286.41-.308.66-.021.25.046.499.19.704 1.491 2.109 2.492 4.524 2.93 7.07.042.247.17.47.362.632.192.162.435.25.685.25h4.027v4.283z"/>
    </mask>
    <path fill="#192D4D" stroke="#fff" stroke-width=".8" d="M50.936 23.232h-4.215c-.492-2.24-1.376-4.374-2.613-6.304l2.982-2.98c.099-.098.177-.215.23-.344.054-.13.082-.268.082-.407 0-.14-.028-.278-.081-.407-.054-.13-.132-.246-.23-.345l-4.534-4.533c-.2-.199-.47-.31-.752-.31-.282 0-.552.111-.751.31l-2.981 2.978c-1.93-1.236-4.065-2.12-6.304-2.612V4.063c0-.14-.027-.278-.08-.407-.054-.129-.132-.246-.231-.345-.099-.098-.216-.177-.345-.23-.13-.054-.268-.081-.407-.081h-6.411c-.14 0-.278.027-.407.08-.13.054-.247.133-.345.231-.099.1-.177.216-.23.345-.054.13-.082.268-.081.407v4.215c-2.24.492-4.374 1.377-6.304 2.613l-2.98-2.982c-.199-.199-.469-.31-.75-.31-.283 0-.553.111-.753.31l-4.533 4.533c-.098.099-.177.216-.23.345-.054.129-.081.267-.081.407 0 .14.027.278.08.407.054.129.133.246.231.345l2.978 2.98c-1.236 1.93-2.12 4.065-2.612 6.304H4.063c-.14 0-.278.028-.407.081-.129.053-.246.132-.345.23-.098.1-.177.217-.23.346-.054.129-.081.267-.081.407v6.41c0 .14.027.279.08.407.054.13.133.247.231.346.1.098.216.177.345.23.13.053.268.081.407.08h4.215c.492 2.24 1.377 4.374 2.613 6.305L7.91 41.054c-.099.098-.177.215-.23.344-.054.13-.082.268-.082.408 0 .14.028.278.081.407.054.129.132.246.23.344l4.534 4.533c.2.2.47.311.752.311.282 0 .552-.112.751-.31l2.98-2.982c1.93 1.236 4.065 2.121 6.304 2.613v4.215c0 .14.028.278.081.407.053.129.132.246.23.345.1.099.217.177.346.23.129.054.267.081.407.081h6.41c.14 0 .279-.027.407-.08.13-.054.247-.133.346-.231.098-.099.177-.216.23-.345.053-.13.081-.268.08-.407V46.72c2.24-.492 4.374-1.376 6.305-2.613l2.982 2.982c.199.199.47.31.751.31.282 0 .553-.111.752-.31l4.533-4.533c.099-.099.177-.216.23-.345.054-.129.082-.267.082-.407 0-.14-.028-.278-.081-.407-.054-.13-.132-.246-.23-.345l-2.982-2.98c1.236-1.93 2.12-4.065 2.613-6.304h4.215c.14 0 .278-.027.407-.08.129-.054.246-.132.345-.231.099-.099.177-.216.23-.345.054-.13.081-.268.081-.407v-6.411c0-.14-.027-.278-.08-.407-.054-.13-.133-.247-.232-.345-.098-.1-.216-.177-.345-.23-.129-.054-.267-.082-.407-.081zm-1.063 6.41h-4.027c-.25 0-.493.088-.685.25-.191.16-.32.384-.362.631-.438 2.546-1.439 4.961-2.93 7.07-.144.205-.211.455-.19.704.022.25.13.484.308.66l2.847 2.848-3.029 3.03-2.848-2.848c-.177-.177-.41-.286-.66-.308-.25-.021-.5.046-.704.19-2.109 1.49-4.524 2.492-7.07 2.93-.247.043-.47.171-.632.363-.161.192-.25.434-.25.685v4.026h-4.283v-4.026c0-.25-.088-.493-.25-.685-.161-.192-.385-.32-.632-.363-2.545-.438-4.96-1.44-7.07-2.93-.204-.144-.454-.211-.703-.19-.25.022-.484.13-.66.308l-2.849 2.847-3.03-3.029 2.848-2.847c.178-.177.287-.411.308-.66.022-.25-.046-.5-.19-.704-1.49-2.11-2.492-4.525-2.93-7.07-.042-.248-.17-.471-.362-.633-.192-.161-.434-.25-.685-.25H5.127v-4.283h4.026c.25 0 .493-.088.685-.25.192-.161.32-.385.363-.632.437-2.546 1.438-4.961 2.93-7.07.143-.205.21-.454.19-.704-.022-.25-.131-.483-.309-.66l-2.847-2.848 3.03-3.03 2.847 2.848c.177.178.411.287.66.308.25.022.5-.045.704-.19 2.11-1.49 4.525-2.492 7.07-2.93.247-.042.47-.171.632-.363.162-.191.25-.434.25-.684V5.127h4.283v4.026c0 .25.089.493.25.684.162.192.386.32.632.363 2.546.438 4.961 1.44 7.07 2.93.205.145.454.212.704.19.25-.021.483-.13.66-.308l2.848-2.847 3.03 3.03-2.848 2.847c-.177.177-.286.41-.308.66-.021.25.046.499.19.704 1.491 2.109 2.492 4.524 2.93 7.07.042.247.17.47.362.632.192.162.435.25.685.25h4.027v4.283z" mask="url(#prefix__a)"/>
</svg>
