<svg xmlns="http://www.w3.org/2000/svg" width="54" height="54" fill="none" viewBox="0 0 54 54">
    <path stroke="#1A3154" stroke-linecap="round" stroke-width="1.5" d="M5 48h3m42 0h-3M8 48V27c0-.552.448-1 1-1h7.5c.552 0 1 .448 1 1v21M8 48h9.5m0 0h6m0 0V23c0-.552.448-1 1-1h7c.552 0 1 .448 1 1v25m-9 0h9m0 0H38m0 0V29c0-.552.448-1 1-1h7c.552 0 1 .448 1 1v19m-9 0h9"/>
    <path stroke="#FF696D" stroke-linecap="round" stroke-width="1.5" d="M5.5 8.5l7.5 5L28 6l14 8.5 8-4.5m0 0l-5.5-1.5M50 10l-.5 5.5"/>
</svg>
