<svg xmlns="http://www.w3.org/2000/svg" width="57" height="54" fill="none" viewBox="0 0 57 54">
    <ellipse cx="39.071" cy="38.733" fill="#fff" stroke="#FF696D" stroke-linecap="round" stroke-width="1.5" rx="13.499" ry="13.268"/>
    <path stroke="#192D4D" stroke-linecap="square" stroke-width="1.5" d="M36 21.953V6.527c0-.552-.447-1-1-1H6.147c-.553 0-1 .448-1 1v39.066c0 .552.447 1 1 1h17.641"/>
    <path stroke="#192D4D" stroke-linecap="round" stroke-width="1.5" d="M10.932 29.047l5.142-5.055 3.857 1.896 7.071-6.318m0 0h-6.428m6.428 0v6.318"/>
    <path fill="#FF696D" d="M39.505 32.766c1.046 0 1.878.283 2.496.85.63.555.944 1.33.944 2.327 0 1.11-.352 1.944-1.056 2.5-.693.545-1.648.828-2.864.85v1.855H37.65v-2.83h.64c.982 0 1.76-.169 2.336-.504.587-.336.88-.96.88-1.871 0-.619-.186-1.106-.56-1.463-.362-.356-.858-.535-1.488-.535-.66 0-1.194.184-1.6.55-.394.368-.592.85-.592 1.448h-1.408c0-.63.15-1.185.448-1.667.3-.483.726-.855 1.28-1.117.555-.262 1.195-.393 1.92-.393zm-.272 9.844v1.683h-1.76V42.61h1.76z"/>
</svg>
