<svg xmlns="http://www.w3.org/2000/svg" width="14" height="14" fill="none" viewBox="0 0 14 14">
    <path fill="#C4C4C4" fill-opacity=".01" d="M0 0H14V14H0z"/>
    <path fill="#192D4D" fill-rule="evenodd" d="M.7 2.5c-.387 0-.7.313-.7.7 0 .387.313.7.7.7h12.6c.387 0 .7-.313.7-.7 0-.387-.313-.7-.7-.7H.7zM2 7.2c0-.387.313-.7.7-.7h8.6c.387 0 .7.313.7.7 0 .387-.313.7-.7.7H2.7c-.387 0-.7-.313-.7-.7zm2 4c0-.387.313-.7.7-.7h4.6c.387 0 .7.313.7.7 0 .387-.313.7-.7.7H4.7c-.387 0-.7-.313-.7-.7z" clip-rule="evenodd"/>
</svg>
