<svg xmlns="http://www.w3.org/2000/svg" width="551" height="477" fill="none" viewBox="0 0 551 477">
    <g clip-path="url(#prefix__clip0)">
        <rect width="410" height="400" x="128" y="51" fill="#FFE9E9" rx="20"/>
        <path stroke="#192D4D" stroke-dasharray="4.26 4.26" d="M356 55.995c36.833-15.667 109.711-40.403 105.5-2.495-2 18.005-21.659 9-12-11.005 14-28.995 81-9 77.5 52.5-2.8 49.2-27.167 129.166-39 163"/>
        <g clip-path="url(#prefix__clip1)">
            <g filter="url(#prefix__filter0_d)">
                <rect width="370" height="114" fill="#FBFBFB" rx="7.12"/>
            </g>
            <path fill="#0D1331" d="M23.266 20.238c0 .418-.096.802-.288 1.15-.192.343-.486.621-.884.833-.397.213-.89.32-1.48.32h-1.09v2.59h-1.757v-7.216h2.847c.576 0 1.062.1 1.46.298.397.199.695.473.894.822.199.35.298.75.298 1.203zm-2.785.904c.335 0 .585-.078.75-.236.164-.158.246-.38.246-.668 0-.288-.082-.51-.246-.668-.165-.158-.415-.237-.75-.237h-.956v1.81h.956zm9.106 1.028c0 .164-.01.336-.03.514h-3.978c.027.356.14.63.339.822.206.185.456.278.75.278.439 0 .744-.185.915-.555h1.87c-.095.377-.27.716-.524 1.017-.246.302-.558.538-.935.71-.377.17-.798.256-1.264.256-.562 0-1.062-.12-1.5-.36-.44-.24-.782-.582-1.029-1.027-.246-.445-.37-.966-.37-1.562 0-.597.12-1.117.36-1.563.247-.445.59-.788 1.028-1.027.438-.24.942-.36 1.51-.36.556 0 1.05.116 1.48.35.433.232.768.564 1.008.996.247.432.37.936.37 1.511zm-1.799-.463c0-.3-.102-.54-.308-.719-.205-.178-.462-.267-.77-.267-.295 0-.545.085-.751.257-.199.171-.322.414-.37.73h2.2zm6.22-2.374c.672 0 1.207.22 1.604.658.405.432.607 1.028.607 1.788v3.351H34.47v-3.114c0-.384-.099-.682-.298-.894-.198-.213-.465-.319-.801-.319s-.603.106-.802.319c-.199.212-.298.51-.298.894v3.114h-1.758v-5.735h1.758v.76c.178-.253.418-.452.72-.596.3-.15.64-.226 1.017-.226zm3.083 2.92c0-.59.11-1.107.328-1.553.227-.445.532-.788.915-1.027.384-.24.812-.36 1.285-.36.377 0 .72.079 1.028.236.315.158.562.37.74.637v-2.662h1.757v7.606h-1.757v-.822c-.165.274-.401.493-.71.658-.3.164-.654.246-1.058.246-.473 0-.901-.12-1.285-.36-.384-.246-.688-.592-.915-1.037-.219-.453-.328-.973-.328-1.563zm4.296.01c0-.439-.123-.785-.37-1.039-.24-.253-.535-.38-.884-.38-.35 0-.648.127-.894.38-.24.247-.36.59-.36 1.028 0 .439.12.788.36 1.049.246.253.544.38.894.38s.644-.127.884-.38c.246-.254.37-.6.37-1.038zm3.913-3.464c-.308 0-.562-.09-.76-.267-.193-.185-.288-.412-.288-.679 0-.274.095-.5.287-.678.199-.185.453-.278.76-.278.302 0 .549.093.74.278.2.178.299.404.299.678 0 .267-.1.494-.298.679-.192.178-.439.267-.74.267zm.873.596v5.735h-1.757v-5.735h1.758zm4.769-.062c.671 0 1.206.22 1.603.658.404.432.606 1.028.606 1.788v3.351h-1.747v-3.114c0-.384-.1-.682-.298-.894-.199-.213-.466-.319-.802-.319-.335 0-.602.106-.801.319-.199.212-.298.51-.298.894v3.114h-1.758v-5.735h1.758v.76c.178-.253.418-.452.72-.596.3-.15.64-.226 1.017-.226zm5.61-.02c.404 0 .757.082 1.058.246.309.165.545.38.71.648v-.812h1.757v5.725c0 .527-.106 1.004-.318 1.428-.206.432-.525.775-.956 1.028-.425.254-.956.38-1.593.38-.85 0-1.539-.201-2.066-.606-.528-.397-.83-.939-.905-1.624h1.737c.055.22.185.39.39.514.206.13.46.196.761.196.363 0 .651-.107.864-.32.219-.205.329-.537.329-.996v-.812c-.172.267-.408.486-.71.658-.301.164-.654.246-1.058.246-.473 0-.901-.12-1.285-.36-.384-.246-.689-.592-.915-1.037-.219-.453-.329-.973-.329-1.563 0-.589.11-1.106.33-1.552.225-.445.53-.788.914-1.027.384-.24.812-.36 1.285-.36zm1.768 2.95c0-.439-.124-.785-.37-1.039-.24-.253-.535-.38-.884-.38-.35 0-.648.127-.895.38-.24.247-.36.59-.36 1.028 0 .439.12.788.36 1.049.247.253.545.38.895.38s.644-.127.884-.38c.246-.254.37-.6.37-1.038zm6.964-4.348v7.215h-1.757v-7.215h1.757zm4.769 1.418c.671 0 1.206.22 1.603.658.404.432.606 1.028.606 1.788v3.351h-1.747v-3.114c0-.384-.1-.682-.298-.894-.199-.213-.466-.319-.802-.319-.335 0-.603.106-.801.319-.2.212-.298.51-.298.894v3.114h-1.758v-5.735h1.758v.76c.178-.253.418-.452.719-.596.302-.15.64-.226 1.018-.226zm6.01 4.153l1.244-4.091h1.87l-2.034 5.735h-2.169l-2.035-5.735h1.88l1.245 4.09zm4.739-4.687c-.309 0-.562-.09-.761-.267-.192-.185-.288-.412-.288-.679 0-.274.096-.5.288-.678.199-.185.452-.278.76-.278.302 0 .549.093.74.278.2.178.299.404.299.678 0 .267-.1.494-.299.679-.191.178-.438.267-.74.267zm.873.596v5.735h-1.757v-5.735h1.757zm4.47 4.245v1.49h-.894c-.637 0-1.134-.154-1.49-.462-.357-.316-.535-.826-.535-1.532v-2.281h-.699v-1.46h.7v-1.398h1.757v1.398h1.151v1.46h-1.151v2.302c0 .171.041.294.123.37.082.075.22.113.411.113h.627zm6.386-1.47c0 .164-.01.336-.031.514h-3.978c.027.356.14.63.34.822.205.185.455.278.75.278.438 0 .743-.185.914-.555h1.87c-.095.377-.27.716-.523 1.017-.247.302-.559.538-.936.71-.376.17-.798.256-1.264.256-.562 0-1.062-.12-1.5-.36-.439-.24-.782-.582-1.028-1.027-.247-.445-.37-.966-.37-1.562 0-.597.12-1.117.36-1.563.246-.445.589-.788 1.027-1.027.439-.24.942-.36 1.511-.36.555 0 1.049.116 1.48.35.432.232.768.564 1.007.996.247.432.37.936.37 1.511zm-1.8-.463c0-.3-.102-.54-.307-.719-.206-.178-.463-.267-.771-.267-.295 0-.545.085-.75.257-.2.171-.323.414-.37.73h2.199zm5.06 3.505c-.5 0-.946-.085-1.336-.257-.39-.17-.7-.404-.925-.698-.226-.302-.353-.638-.38-1.008h1.736c.021.199.114.36.278.483.164.124.367.185.606.185.22 0 .388-.04.504-.123.123-.09.185-.202.185-.34 0-.164-.086-.284-.257-.359-.171-.082-.449-.171-.832-.267-.412-.096-.754-.195-1.028-.298-.274-.11-.51-.278-.71-.504-.198-.233-.298-.545-.298-.935 0-.329.09-.627.268-.894.185-.274.452-.49.801-.648.357-.157.778-.236 1.264-.236.72 0 1.285.178 1.696.534.418.356.658.83.72 1.419h-1.624c-.028-.2-.117-.357-.267-.473-.144-.117-.336-.175-.576-.175-.205 0-.363.041-.473.123-.11.076-.164.182-.164.319 0 .165.086.288.257.37.178.082.452.165.822.247.425.11.771.219 1.038.329.267.102.5.274.7.514.205.233.31.548.318.945 0 .336-.096.637-.288.905-.185.26-.456.465-.812.616-.35.151-.757.226-1.223.226z"/>
            <g filter="url(#prefix__filter1_d)">
                <path fill="#fff" fill-rule="evenodd" d="M193.571 46.249c4.257 0 7.834-2.912 8.848-6.852H345.25c2.558 0 3.838 0 4.815.498.859.438 1.558 1.136 1.996 1.996.498.977.498 2.256.498 4.815v47.05c0 2.559 0 3.838-.498 4.815-.438.86-1.137 1.559-1.996 1.997-.977.497-2.257.497-4.815.497H202.419c-1.014-3.94-4.591-6.852-8.848-6.852-4.257 0-7.834 2.912-8.848 6.852H24.439c-2.559 0-3.838 0-4.815-.497-.86-.438-1.558-1.137-1.996-1.997-.498-.977-.498-2.256-.498-4.814V46.706c0-2.559 0-3.838.498-4.815.438-.86 1.137-1.558 1.996-1.996.977-.498 2.256-.498 4.815-.498h160.284c1.014 3.94 4.591 6.852 8.848 6.852z" clip-rule="evenodd"/>
            </g>
            <g clip-path="url(#prefix__clip2)">
                <g filter="url(#prefix__filter2_d)">
                    <rect width="103.923" height="27.408" x="226.104" y="56.527" fill="#FF696D" rx="4.568"/>
                </g>
                <path fill="#fff" d="M251.975 72.457h-2.222l-.368 1.064h-1.175l2.006-5.588h1.303l2.007 5.588h-1.183l-.368-1.064zm-.304-.895l-.807-2.334-.808 2.334h1.615zm5.059-2.534c.528 0 .954.168 1.279.504.325.33.488.794.488 1.39v2.599h-1.12v-2.447c0-.351-.087-.62-.263-.807-.176-.192-.416-.288-.72-.288-.309 0-.554.096-.735.288-.176.187-.264.456-.264.808v2.446h-1.119v-4.429h1.119v.552c.149-.192.338-.342.568-.448.234-.112.49-.168.767-.168zm4.526 4.565c-.363 0-.688-.064-.976-.192-.287-.133-.517-.312-.687-.536-.165-.224-.256-.471-.272-.743h1.127c.022.17.104.311.248.423.149.112.333.168.552.168.213 0 .378-.042.495-.128.123-.085.184-.194.184-.327 0-.144-.074-.25-.224-.32-.144-.075-.375-.155-.695-.24-.331-.08-.602-.162-.816-.248-.207-.085-.389-.216-.543-.392-.149-.175-.224-.413-.224-.711 0-.245.069-.469.208-.671.144-.203.346-.363.607-.48.267-.117.579-.176.936-.176.527 0 .948.133 1.263.4.314.26.487.615.519 1.063h-1.071c-.016-.176-.09-.315-.224-.416-.128-.106-.301-.16-.519-.16-.203 0-.36.038-.472.112-.107.075-.16.179-.16.312 0 .15.075.264.224.344.149.074.381.152.696.232.319.08.583.162.791.247.208.086.386.219.536.4.154.176.234.41.239.704 0 .255-.072.485-.215.687-.139.203-.342.363-.608.48-.261.112-.568.168-.919.168zm8.801-4.501l-1.296 4.429h-1.207l-.807-3.094-.807 3.094h-1.216l-1.303-4.429h1.136l.783 3.374.847-3.374h1.184l.831 3.365.783-3.365h1.072zm4.722 2.118c0 .16-.011.304-.032.432h-3.238c.027.32.139.57.336.752.197.18.44.271.728.271.415 0 .711-.178.887-.535h1.207c-.128.426-.373.778-.735 1.055-.363.272-.808.408-1.335.408-.427 0-.81-.094-1.152-.28-.335-.192-.599-.461-.791-.808-.186-.346-.28-.746-.28-1.199 0-.458.094-.86.28-1.207.187-.346.448-.613.783-.8.336-.186.723-.279 1.16-.279.421 0 .796.09 1.127.272.336.181.594.44.775.775.187.33.28.712.28 1.143zm-1.159-.32c-.005-.287-.109-.516-.312-.687-.202-.176-.45-.264-.743-.264-.277 0-.512.086-.704.256-.186.165-.301.397-.344.696h2.103zm3.095-1.11c.144-.235.331-.419.56-.552.234-.133.501-.2.799-.2v1.175h-.296c-.351 0-.618.083-.799.248-.176.165-.264.453-.264.863v2.207h-1.119v-4.429h1.119v.687zm5.944 3.797c-.389 0-.74-.067-1.055-.2-.309-.133-.554-.325-.735-.576-.182-.25-.275-.546-.28-.887h1.199c.016.229.096.41.24.543.149.134.352.2.607.2.261 0 .467-.061.616-.183.149-.129.224-.294.224-.496 0-.165-.051-.301-.152-.408-.101-.106-.229-.19-.384-.248-.149-.064-.357-.133-.623-.207-.363-.107-.659-.211-.888-.312-.224-.107-.418-.264-.583-.472-.16-.213-.24-.496-.24-.847 0-.33.082-.618.248-.864.165-.245.397-.431.695-.56.299-.133.64-.2 1.023-.2.576 0 1.042.142 1.399.425.363.277.563.666.6 1.167h-1.231c-.011-.192-.093-.35-.248-.472-.149-.128-.349-.192-.6-.192-.218 0-.394.056-.527.168-.128.112-.192.275-.192.488 0 .149.048.274.144.375.101.096.224.176.368.24.149.059.357.128.623.208.363.107.658.213.887.32.23.106.427.266.592.48.165.213.248.493.248.839 0 .298-.077.575-.232.831-.155.256-.381.461-.679.616-.299.149-.653.224-1.064.224zm7.126-4.485v4.429h-1.127v-.56c-.144.192-.333.344-.568.456-.229.106-.479.16-.751.16-.347 0-.653-.072-.919-.216-.267-.15-.477-.365-.632-.648-.149-.287-.224-.629-.224-1.023v-2.598h1.119v2.438c0 .352.088.624.264.816.176.186.416.28.72.28.309 0 .551-.094.727-.28.176-.192.264-.464.264-.816v-2.438h1.127zm2.223.687c.144-.234.331-.418.56-.551.235-.133.501-.2.799-.2v1.175h-.295c-.352 0-.619.083-.8.248-.176.165-.264.453-.264.863v2.207h-1.119v-4.429h1.119v.687zm3.96 2.71l1.119-3.397h1.191l-1.639 4.429h-1.359l-1.63-4.429h1.199l1.119 3.397zm7.056-1.279c0 .16-.011.304-.032.432h-3.238c.027.32.139.57.336.752.197.18.44.271.727.271.416 0 .712-.178.888-.535h1.207c-.128.426-.373.778-.736 1.055-.362.272-.807.408-1.335.408-.426 0-.81-.094-1.151-.28-.336-.192-.599-.461-.791-.808-.187-.346-.28-.746-.28-1.199 0-.458.093-.86.28-1.207.186-.346.447-.613.783-.8.336-.186.722-.279 1.159-.279.421 0 .797.09 1.128.272.335.181.594.44.775.775.186.33.28.712.28 1.143zm-1.159-.32c-.006-.287-.11-.516-.312-.687-.203-.176-.451-.264-.744-.264-.277 0-.511.086-.703.256-.187.165-.301.397-.344.696h2.103zm6.212-1.798l-2.741 6.523h-1.192l.96-2.206-1.775-4.317h1.255l1.143 3.094 1.159-3.094h1.191z"/>
            </g>
            <g clip-path="url(#prefix__clip3)">
                <path fill="#D8D8D8" fill-rule="evenodd" d="M44.538 83.935c7.569 0 13.704-6.136 13.704-13.704 0-7.569-6.135-13.704-13.704-13.704-7.569 0-13.704 6.135-13.704 13.704 0 7.568 6.135 13.704 13.704 13.704z" clip-rule="evenodd"/>
                <mask id="prefix__a" width="29" height="28" x="30" y="56" maskUnits="userSpaceOnUse">
                    <path fill="#fff" fill-rule="evenodd" d="M44.538 83.935c7.569 0 13.704-6.136 13.704-13.704 0-7.569-6.135-13.704-13.704-13.704-7.569 0-13.704 6.135-13.704 13.704 0 7.568 6.135 13.704 13.704 13.704z" clip-rule="evenodd"/>
                </mask>
                <g mask="url(#prefix__a)">
                    <path fill="#111E8A" d="M23.877 83.928h41.427V56.529H23.877v27.399z"/>
                    <path fill="#FCFC02" fill-rule="evenodd" d="M43.97 61.599l-.292.903.767-.558.767.559-.294-.904.768-.559h-.948l-.293-.904-.293.904h-.948l.767.559zm4.304 2.206l.294-.904-.768-.558h.948l.294-.904.292.904h.95l-.768.558.293.904-.767-.558-.768.558zm-8.838-.826l-.293.904.767-.559.767.559-.293-.904.767-.559h-.948l-.293-.903-.292.903h-.949l.767.56zm-3.328 3.21l-.292.905.767-.56.766.56-.292-.904.766-.558h-.948l-.292-.905-.293.904h-.949l.767.558zm-1.114 4.514l-.293.903.767-.558.767.558-.292-.903.767-.56h-.949l-.293-.902-.293.902h-.948l.767.56zm8.823 9.618l.293-.902-.767-.559h.948l.293-.904.293.904h.948l-.767.559.293.902-.767-.558-.767.558zm-7.94-4.435l.293-.903-.766-.559h.948l.292-.904.294.904h.948l-.768.558.294.904-.768-.558-.767.558zm3.636 2.355l-.293.903.767-.56.768.56-.294-.904.768-.559h-.949l-.293-.903-.293.903h-.948l.767.56zm8.823.81l.294-.904-.768-.559h.948l.293-.903.294.903h.947l-.766.559.292.903-.767-.558-.767.558zm3.512-4.1l-.293.904.767-.559.767.559-.292-.903.766-.558h-.948l-.293-.904-.293.904h-.948l.767.558zm1.101-3.547l.292-.903-.767-.56h.949l.293-.903.291.904h.95l-.768.559.293.903-.766-.558-.767.558zm-1.055-5.354l-.292.904.767-.559.767.559-.293-.904.767-.559h-.948l-.293-.903-.294.903h-.948l.767.559z" clip-rule="evenodd"/>
                </g>
                <path fill="#0D1331" d="M69.316 62.974c-.102-.187-.248-.328-.44-.424-.187-.101-.408-.152-.664-.152-.442 0-.796.146-1.063.44-.266.287-.4.674-.4 1.159 0 .517.14.922.416 1.215.283.288.669.431 1.16.431.335 0 .617-.085.847-.255.234-.17.405-.416.511-.736H67.95v-1.007h2.973v1.271c-.1.341-.274.658-.52.951-.239.293-.546.53-.918.712-.374.181-.795.272-1.264.272-.554 0-1.05-.12-1.486-.36-.432-.245-.77-.584-1.016-1.015-.24-.432-.36-.925-.36-1.48 0-.553.12-1.047.36-1.478.245-.437.584-.776 1.016-1.015.431-.246.924-.368 1.478-.368.672 0 1.237.162 1.695.488.464.325.77.775.92 1.35h-1.511zm4.466-1.775c.592 0 1.109.117 1.55.352.443.234.784.564 1.024.99.245.422.368.91.368 1.464 0 .549-.123 1.036-.368 1.463-.24.426-.583.756-1.031.99-.442.235-.957.353-1.543.353H71.68v-5.612h2.102zm-.088 4.428c.517 0 .92-.14 1.207-.423.288-.283.432-.682.432-1.2 0-.516-.144-.919-.432-1.206-.288-.288-.69-.432-1.207-.432h-.647v3.261h.647zm8.07-2.621c0 .325-.074.623-.223.895-.15.266-.379.482-.688.647-.309.165-.692.248-1.15.248h-.848v2.015h-1.367v-5.612h2.214c.448 0 .826.077 1.135.232.31.154.541.367.696.64.154.27.232.583.232.934zm-2.166.703c.261 0 .456-.061.584-.184.128-.122.192-.296.192-.52 0-.223-.064-.397-.192-.52-.128-.122-.323-.183-.584-.183h-.743v1.407h.743zm5.74 3.102l-1.167-2.119h-.328v2.119h-1.367v-5.612h2.295c.442 0 .818.077 1.127.232.314.154.549.367.703.64.155.266.232.564.232.895 0 .373-.106.706-.32.999-.208.293-.517.5-.927.623l1.295 2.223h-1.543zm-1.495-3.086h.848c.25 0 .437-.061.56-.184.127-.122.191-.296.191-.52 0-.213-.064-.38-.192-.503-.122-.123-.309-.184-.56-.184h-.847v1.39zm9.82-.72c0 .325-.075.624-.225.896-.149.266-.378.482-.687.647-.31.165-.693.248-1.151.248h-.848v2.015h-1.367v-5.612H91.6c.447 0 .826.077 1.135.232.309.154.54.367.695.64.155.27.232.583.232.934zm-2.167.704c.26 0 .455-.061.583-.184.128-.122.192-.296.192-.52 0-.223-.064-.397-.192-.52-.128-.122-.322-.183-.583-.183h-.744v1.407h.744zm4.245-.616c.16-.245.36-.437.6-.575.24-.144.506-.216.799-.216v1.447h-.376c-.341 0-.597.075-.767.224-.171.144-.256.4-.256.767v2.07h-1.367v-4.46h1.367v.743zm4.083 3.782c-.437 0-.832-.094-1.183-.28-.347-.187-.621-.453-.824-.8-.197-.346-.296-.751-.296-1.215 0-.458.102-.86.304-1.207.203-.352.48-.62.831-.807.352-.187.747-.28 1.184-.28.437 0 .831.093 1.183.28.351.186.629.455.831.807.203.347.304.749.304 1.207 0 .459-.104.864-.312 1.215-.202.347-.482.613-.839.8-.352.186-.746.28-1.183.28zm0-1.183c.261 0 .482-.096.663-.288.187-.192.28-.467.28-.824 0-.357-.091-.631-.272-.823-.176-.192-.394-.288-.655-.288-.267 0-.488.096-.664.288-.176.186-.264.46-.264.823 0 .357.085.632.256.824.176.192.394.288.656.288zm2.787-1.112c0-.463.094-.868.28-1.215.192-.346.456-.613.791-.8.342-.186.731-.279 1.168-.279.559 0 1.026.146 1.399.44.378.293.626.706.743 1.239h-1.455c-.122-.341-.36-.512-.711-.512-.251 0-.451.099-.6.296-.149.192-.224.469-.224.831 0 .363.075.642.224.84.149.192.349.287.6.287.351 0 .589-.17.711-.511h1.455c-.117.522-.365.933-.743 1.23-.379.3-.845.449-1.399.449-.437 0-.826-.094-1.168-.28-.335-.187-.599-.453-.791-.8-.186-.346-.28-.751-.28-1.215zm9.317-.072c0 .128-.008.261-.024.4h-3.094c.022.277.11.49.264.64.16.144.355.215.584.215.341 0 .578-.144.711-.431h1.455c-.074.293-.21.557-.408.791-.191.235-.434.418-.727.552-.293.133-.621.2-.983.2-.437 0-.826-.094-1.167-.28-.341-.187-.608-.453-.8-.8-.192-.346-.288-.751-.288-1.215 0-.463.094-.868.28-1.215.192-.346.459-.613.8-.8.341-.186.732-.279 1.175-.279.431 0 .815.09 1.151.272.336.181.597.44.783.775.192.336.288.728.288 1.175zm-1.399-.36c0-.234-.08-.42-.24-.559-.16-.139-.359-.208-.599-.208-.229 0-.424.067-.584.2-.154.133-.25.322-.288.568h1.711zm3.935 2.727c-.389 0-.736-.067-1.039-.2-.304-.133-.544-.315-.72-.544-.176-.234-.274-.496-.296-.783h1.351c.016.154.088.28.216.375.128.096.285.144.472.144.17 0 .301-.032.392-.096.096-.069.144-.157.144-.263 0-.128-.067-.222-.2-.28-.134-.064-.349-.133-.648-.208-.32-.075-.586-.152-.799-.232-.213-.085-.397-.216-.552-.392-.154-.18-.232-.423-.232-.727 0-.256.07-.488.208-.695.144-.214.352-.382.624-.504.277-.123.605-.184.983-.184.56 0 .999.139 1.319.416.325.277.512.645.56 1.103h-1.263c-.022-.155-.091-.277-.208-.368-.112-.09-.261-.136-.448-.136-.16 0-.282.032-.368.096-.085.059-.128.141-.128.248 0 .128.067.224.2.288.139.064.352.128.64.192.33.085.599.17.807.255.208.08.389.214.544.4.16.181.242.427.248.736 0 .26-.075.495-.224.703-.144.203-.355.363-.632.48-.272.117-.589.176-.951.176zm4.458 0c-.389 0-.736-.067-1.04-.2-.303-.133-.543-.315-.719-.544-.176-.234-.275-.496-.296-.783h1.351c.016.154.088.28.216.375.128.096.285.144.472.144.17 0 .301-.032.391-.096.096-.069.144-.157.144-.263 0-.128-.066-.222-.2-.28-.133-.064-.349-.133-.647-.208-.32-.075-.586-.152-.8-.232-.213-.085-.397-.216-.551-.392-.155-.18-.232-.423-.232-.727 0-.256.069-.488.208-.695.144-.214.352-.382.623-.504.277-.123.605-.184.984-.184.559 0 .999.139 1.319.416.325.277.511.645.559 1.103h-1.263c-.021-.155-.09-.277-.208-.368-.112-.09-.261-.136-.447-.136-.16 0-.283.032-.368.096-.085.059-.128.141-.128.248 0 .128.067.224.2.288.138.064.352.128.639.192.331.085.6.17.808.255.208.08.389.214.543.4.16.181.243.427.248.736 0 .26-.074.495-.224.703-.143.203-.354.363-.631.48-.272.117-.589.176-.951.176zm10.692-5.676v5.612h-1.367v-3.366l-1.255 3.366h-1.103l-1.263-3.374v3.374h-1.367v-5.612h1.614l1.575 3.885 1.559-3.885h1.607zm.711 3.373c0-.458.085-.86.256-1.207.176-.346.413-.613.711-.8.299-.186.632-.279 1-.279.314 0 .589.064.823.192.24.128.424.296.552.503v-.631h1.367v4.46h-1.367v-.63c-.134.207-.32.375-.56.503-.234.128-.509.192-.823.192-.363 0-.693-.094-.992-.28-.298-.192-.535-.461-.711-.808-.171-.351-.256-.756-.256-1.215zm3.342.008c0-.34-.096-.61-.288-.807-.187-.197-.416-.296-.688-.296-.271 0-.503.099-.695.296-.187.192-.28.458-.28.8 0 .34.093.612.28.815.192.197.424.295.695.295.272 0 .501-.098.688-.295.192-.198.288-.467.288-.808zm3.723-1.599c.133-.207.317-.375.551-.503.235-.128.509-.192.824-.192.367 0 .7.093.999.28.298.186.533.453.703.8.176.346.264.748.264 1.206 0 .459-.088.864-.264 1.215-.17.347-.405.616-.703.808-.299.186-.632.28-.999.28-.31 0-.584-.064-.824-.192-.234-.128-.418-.293-.551-.496v2.75h-1.367V62.35h1.367v.631zm1.95 1.591c0-.34-.096-.607-.288-.8-.186-.196-.418-.295-.695-.295-.272 0-.504.099-.696.296-.186.197-.279.466-.279.807s.093.61.279.808c.192.197.424.295.696.295.272 0 .503-.098.695-.295.192-.203.288-.475.288-.816zm3.475-1.59c.133-.208.317-.376.552-.504.234-.128.509-.192.823-.192.368 0 .701.093 1 .28.298.186.532.453.703.8.176.346.264.748.264 1.206 0 .459-.088.864-.264 1.215-.171.347-.405.616-.703.808-.299.186-.632.28-1 .28-.309 0-.583-.064-.823-.192-.235-.128-.419-.293-.552-.496v2.75h-1.367V62.35h1.367v.631zm1.951 1.59c0-.34-.096-.607-.288-.8-.187-.196-.418-.295-.695-.295-.272 0-.504.099-.696.296-.186.197-.28.466-.28.807s.094.61.28.808c.192.197.424.295.696.295.271 0 .503-.098.695-.295.192-.203.288-.475.288-.816zm2.795-2.686c-.239 0-.437-.069-.591-.208-.149-.143-.224-.32-.224-.527 0-.213.075-.39.224-.528.154-.144.352-.216.591-.216.235 0 .427.072.576.216.155.139.232.315.232.528 0 .208-.077.383-.232.527-.149.139-.341.208-.576.208zm.68.464v4.46h-1.367v-4.46h1.367zm3.709-.048c.522 0 .938.17 1.247.512.314.335.471.799.471 1.39v2.607h-1.359v-2.423c0-.298-.077-.53-.232-.695-.154-.165-.362-.248-.623-.248s-.469.083-.624.248c-.154.165-.231.397-.231.695v2.423h-1.367V62.35h1.367v.591c.138-.197.325-.351.559-.463.235-.117.498-.176.792-.176zm4.363-.016c.314 0 .589.064.823.192.24.128.424.296.552.503v-.631h1.367v4.453c0 .41-.083.78-.248 1.11-.16.337-.408.603-.743.8-.331.197-.744.296-1.239.296-.661 0-1.197-.157-1.607-.472-.411-.309-.645-.73-.704-1.263h1.351c.043.17.144.304.304.4.16.101.357.152.592.152.282 0 .506-.083.671-.248.171-.16.256-.418.256-.775v-.632c-.133.208-.317.378-.552.512-.234.128-.509.192-.823.192-.368 0-.701-.094-.999-.28-.299-.192-.536-.461-.712-.808-.17-.351-.256-.756-.256-1.215 0-.458.086-.86.256-1.207.176-.346.413-.613.712-.8.298-.186.631-.279.999-.279zm1.375 2.294c0-.34-.096-.61-.288-.807-.186-.197-.416-.296-.687-.296-.272 0-.504.099-.696.296-.186.192-.28.458-.28.8 0 .34.094.612.28.815.192.197.424.295.696.295.271 0 .501-.098.687-.295.192-.198.288-.467.288-.808z"/>
                <g clip-path="url(#prefix__clip4)">
                    <path fill="#8A91A5" d="M66.5 75.303v1.254h1.712v.74H66.5v1.302h1.919v.774h-2.885v-4.838h2.885v.768h-1.919zm4.942 4.07l-.863-1.22-.726 1.22H68.79l1.254-1.98-1.282-1.816h1.083l.843 1.199.726-1.2h1.062l-1.274 1.926 1.322 1.87h-1.083zm3.847-3.844c.32 0 .608.077.863.233.256.155.455.381.597.678.146.292.219.637.219 1.035 0 .397-.073.744-.22 1.041-.141.293-.34.516-.596.672-.255.155-.543.233-.863.233-.32 0-.594-.076-.822-.226-.224-.156-.384-.361-.48-.617v2.604h-.966v-5.605h.966v.788c.096-.256.256-.46.48-.61.228-.15.502-.226.822-.226zm-.301.843c-.293 0-.535.1-.727.301-.187.197-.28.464-.28.802 0 .333.093.6.28.801.192.197.434.295.727.295.301 0 .543-.096.726-.288.183-.196.274-.466.274-.808 0-.343-.091-.612-.274-.809-.183-.196-.425-.294-.726-.294zm2.554-1.885c0-.155.055-.28.164-.377.11-.1.254-.15.432-.15s.322.05.432.15c.11.096.164.222.164.377 0 .151-.055.277-.164.377-.11.096-.254.144-.432.144s-.322-.048-.432-.144c-.11-.1-.164-.226-.164-.377zm1.076 1.09v3.796h-.966v-3.796h.966zm1.84.726c.141-.242.329-.432.562-.569.233-.141.493-.212.78-.212v1.035h-.28c-.708 0-1.062.328-1.062.986v1.83h-.966v-3.796h.966v.726zm5.448 1.028c0 .096-.012.205-.035.329H83.09c.014.338.105.587.274.747.17.16.38.24.63.24.225 0 .41-.055.556-.165.15-.11.246-.258.288-.445h1.02c-.05.265-.157.502-.322.712-.164.21-.376.375-.637.494-.256.118-.541.178-.856.178-.37 0-.7-.078-.987-.233-.288-.16-.512-.386-.672-.679-.16-.292-.24-.637-.24-1.034 0-.398.08-.743.24-1.035.16-.297.384-.523.672-.678.288-.156.617-.233.987-.233.374 0 .7.077.98.233.283.155.5.37.65.644.156.27.234.578.234.925zm-.974-.096c.014-.31-.068-.546-.246-.706-.174-.16-.389-.24-.644-.24-.26 0-.48.08-.658.24-.178.16-.276.395-.295.706h1.844zm2.968-1.706c.462 0 .831.116 1.11.35.279.232.452.543.52.931h-.904c-.036-.183-.118-.329-.246-.438-.128-.11-.295-.165-.5-.165-.165 0-.293.039-.384.117-.092.077-.137.182-.137.315 0 .105.036.19.11.253.073.064.164.115.274.151.11.037.267.08.472.13.288.064.521.133.7.206.182.068.337.18.465.336.133.15.199.356.199.616 0 .325-.128.587-.384.788-.251.201-.591.302-1.02.302-.494 0-.89-.11-1.186-.33-.297-.223-.478-.54-.542-.952h.925c.023.188.106.336.247.446.142.105.327.157.555.157.165 0 .29-.038.377-.116.087-.082.13-.187.13-.315 0-.11-.039-.199-.116-.268-.073-.068-.167-.12-.281-.157-.11-.037-.267-.08-.473-.13-.283-.064-.514-.128-.692-.192-.174-.069-.324-.176-.452-.322-.124-.146-.185-.347-.185-.603 0-.33.125-.596.377-.802.25-.206.598-.308 1.041-.308zm3.781-1.042c0-.155.055-.28.164-.377.11-.1.254-.15.432-.15s.322.05.432.15c.11.096.164.222.164.377 0 .151-.055.277-.164.377-.11.096-.254.144-.432.144s-.322-.048-.432-.144c-.11-.1-.164-.226-.164-.377zm1.076 1.09v3.796h-.966v-3.796h.966zm3.135-.055c.439 0 .788.144 1.048.432.26.287.39.692.39 1.212v2.207h-.958v-2.097c0-.301-.078-.534-.233-.699-.156-.169-.368-.253-.638-.253-.274 0-.493.089-.657.267-.165.178-.247.434-.247.767v2.015h-.966v-3.796h.966v.76c.1-.255.265-.454.493-.596.233-.146.5-.22.802-.22zm3.235-.007v1.007h-1.042v-1.007h1.042zm0 2.85v1.008h-1.042v-1.008h1.042z"/>
                    <path fill="#3F6DB4" d="M105.889 78.612c1.549-1.073 2.323-1.964 2.323-2.672 0-.215-.052-.384-.157-.507-.101-.124-.261-.185-.48-.185-.452 0-.692.308-.72.925h-.938c.027-.571.201-1.003.52-1.295.32-.297.724-.446 1.213-.446.498 0 .88.13 1.145.391.269.256.404.598.404 1.028 0 .338-.101.678-.302 1.02-.196.339-.447.652-.753.94-.306.283-.629.527-.967.733h2.118v.788h-3.406v-.72zm10.992-3.035l-1.021 3.796h-1.069l-.815-2.762-.836 2.762h-1.069l-1.014-3.796h.966l.617 2.932.843-2.932h1.021l.849 2.932.624-2.932h.904zm4.052 1.754c0 .096-.012.205-.035.329h-2.781c.013.338.105.587.274.747.169.16.379.24.63.24.224 0 .409-.055.555-.165.151-.11.247-.258.288-.445h1.021c-.05.264-.158.502-.322.712-.165.21-.377.375-.638.494-.255.118-.541.178-.856.178-.37 0-.699-.078-.987-.233-.288-.16-.511-.386-.671-.679-.16-.292-.24-.637-.24-1.034 0-.398.08-.743.24-1.035.16-.297.383-.523.671-.678.288-.156.617-.233.987-.233.375 0 .701.077.98.233.283.155.5.37.651.644.155.27.233.578.233.925zm-.973-.096c.013-.31-.069-.546-.247-.706-.174-.16-.388-.24-.644-.24-.26 0-.48.08-.658.24-.178.16-.276.395-.294.706h1.843zm5.229.096c0 .096-.012.205-.035.329h-2.782c.014.338.105.587.274.747.169.16.38.24.631.24.224 0 .409-.055.555-.165.151-.11.246-.258.288-.445h1.021c-.051.264-.158.502-.323.712-.164.21-.376.375-.637.494-.256.118-.541.178-.856.178-.37 0-.699-.078-.987-.233-.288-.16-.512-.386-.671-.679-.16-.292-.24-.637-.24-1.034 0-.398.08-.743.24-1.035.159-.297.383-.523.671-.678.288-.156.617-.233.987-.233.374 0 .701.077.98.233.283.155.5.37.651.644.155.27.233.578.233.925zm-.973-.096c.013-.31-.069-.546-.247-.706-.174-.16-.388-.24-.644-.24-.261 0-.48.08-.658.24-.178.16-.276.395-.295.706h1.844zm3.878 2.138l-1.254-1.658v1.658h-.966v-5.07h.966v2.85l1.248-1.576h1.144l-1.597 1.89 1.638 1.906h-1.179zm2.957-3.844c.461 0 .831.116 1.11.35.278.232.452.543.521.931h-.905c-.036-.183-.119-.329-.247-.439-.127-.11-.294-.164-.5-.164-.164 0-.292.039-.384.117-.091.077-.137.182-.137.315 0 .105.037.19.11.253.073.064.165.115.274.151.11.037.267.08.473.13.288.064.521.133.699.206.183.068.338.18.466.336.132.15.199.356.199.616 0 .325-.128.587-.384.788-.251.201-.592.302-1.021.302-.493 0-.889-.11-1.186-.33-.296-.223-.477-.54-.541-.952h.925c.023.188.105.336.247.446.141.105.326.157.555.157.164 0 .29-.038.377-.116.087-.082.13-.187.13-.315 0-.11-.039-.199-.117-.268-.073-.068-.166-.12-.281-.157-.109-.037-.267-.08-.472-.13-.284-.064-.514-.128-.692-.192-.174-.069-.325-.176-.453-.322-.123-.146-.185-.347-.185-.603 0-.33.126-.596.377-.802.251-.206.599-.308 1.042-.308z"/>
                </g>
            </g>
            <path stroke="#CBD0DF" stroke-dasharray="2.86" stroke-linecap="square" stroke-opacity=".504" stroke-width=".571" d="M193.571 46.248v46.823"/>
        </g>
        <g filter="url(#prefix__filter3_d)">
            <rect width="463.274" height="349" x="53" y="113" fill="#fff" rx="8"/>
        </g>
        <rect width="392.239" height="67.947" x="83.885" y="225.73" fill="#fff" rx="12.354"/>
        <rect width="390.695" height="66.403" x="84.657" y="226.502" stroke="#CBD0DF" stroke-opacity=".295" stroke-width="1.544" rx="11.582"/>
        <g clip-path="url(#prefix__clip5)">
            <path fill="#0D1331" d="M142.232 256.412V264h-1.849v-4.745L138.74 264h-1.6l-1.654-4.756V264h-1.848v-7.588h2.259l2.065 5.286 2.021-5.286h2.249zm3.568 1.481c.461 0 .857.104 1.189.313.331.209.576.494.735.854v-1.092h1.837V264h-1.837v-1.092c-.159.361-.404.645-.735.854-.332.209-.728.314-1.189.314-.498 0-.944-.123-1.341-.368-.389-.252-.699-.612-.929-1.081-.224-.468-.335-1.016-.335-1.643 0-.634.111-1.182.335-1.643.23-.468.54-.825.929-1.07.397-.252.843-.378 1.341-.378zm.594 1.621c-.396 0-.717.13-.962.389-.238.26-.357.62-.357 1.081 0 .461.119.822.357 1.081.245.259.566.389.962.389.389 0 .706-.133.951-.4.253-.266.379-.623.379-1.07 0-.454-.126-.811-.379-1.07-.245-.267-.562-.4-.951-.4zm6.289-.411c.23-.367.526-.659.886-.875.368-.217.764-.325 1.189-.325v1.978h-.53c-.49 0-.872.105-1.145.314-.267.209-.4.562-.4 1.059V264h-1.849v-6.032h1.849v1.135zm6.502 4.897l-1.805-2.562V264h-1.848v-7.999h1.848v4.389l1.805-2.422h2.173l-2.432 3.016 2.486 3.016h-2.227zm8.631-3.178c0 .151-.018.317-.054.497h-4.183c.022.454.137.782.346.984.209.194.476.292.8.292.274 0 .501-.069.681-.206.18-.137.299-.313.357-.529h1.956c-.079.425-.252.807-.519 1.146-.266.331-.605.594-1.016.789-.411.187-.868.281-1.373.281-.591 0-1.117-.123-1.578-.368-.454-.252-.811-.612-1.07-1.081-.26-.468-.389-1.016-.389-1.643 0-.634.126-1.182.378-1.643.26-.468.62-.825 1.081-1.07.461-.252.987-.378 1.578-.378.598 0 1.124.122 1.578.367.455.245.804.591 1.049 1.038.252.439.378.947.378 1.524zm-1.87-.281c.008-.396-.101-.692-.324-.887-.216-.201-.486-.302-.811-.302-.338 0-.619.101-.843.302-.223.202-.349.498-.378.887h2.356zm6.25 1.87V264h-.833c-.706 0-1.257-.173-1.653-.519-.39-.353-.584-.933-.584-1.74v-2.216h-.811v-1.557h.811v-1.481h1.848v1.481h1.211v1.557h-1.211v2.248c0 .238.047.404.141.497.101.094.267.141.497.141h.584zm.866-6.14c0-.281.101-.512.302-.692.202-.187.469-.281.8-.281.332 0 .599.094.8.281.202.18.303.411.303.692 0 .274-.101.504-.303.692-.201.18-.468.27-.8.27-.331 0-.598-.09-.8-.27-.201-.188-.302-.418-.302-.692zm2.021 1.697V264h-1.848v-6.032h1.848zm5.103-.065c.692 0 1.24.231 1.643.692.411.461.616 1.096.616 1.903V264h-1.848v-3.286c0-.404-.108-.717-.324-.941-.209-.23-.49-.346-.844-.346-.374 0-.673.119-.897.357-.216.238-.324.577-.324 1.016v3.2h-1.849v-6.032h1.849v1.103c.173-.361.429-.645.767-.854.346-.209.75-.314 1.211-.314zm5.77-.01c.461 0 .858.104 1.189.313.332.209.577.494.735.854v-1.092h1.838v6c0 .562-.108 1.066-.324 1.513-.217.454-.548.814-.995 1.081-.447.267-1.002.4-1.665.4-.908 0-1.635-.216-2.183-.649-.541-.425-.865-1.005-.973-1.74h1.827c.057.245.187.436.389.573.209.137.479.205.811.205.382 0 .688-.111.919-.335.237-.216.356-.566.356-1.048v-1.06c-.158.361-.403.645-.735.854-.331.209-.728.314-1.189.314-.497 0-.944-.123-1.34-.368-.389-.252-.699-.612-.93-1.081-.223-.468-.335-1.016-.335-1.643 0-.634.112-1.182.335-1.643.231-.468.541-.825.93-1.07.396-.252.843-.378 1.34-.378zm.595 1.621c-.397 0-.717.13-.962.389-.238.26-.357.62-.357 1.081 0 .461.119.822.357 1.081.245.259.565.389.962.389.389 0 .706-.133.951-.4.252-.266.378-.623.378-1.07 0-.454-.126-.811-.378-1.07-.245-.267-.562-.4-.951-.4zm8.895-1.621c.462 0 .858.104 1.189.313.332.209.577.494.735.854v-1.092h1.838V264h-1.838v-1.092c-.158.361-.403.645-.735.854-.331.209-.727.314-1.189.314-.497 0-.944-.123-1.34-.368-.389-.252-.699-.612-.93-1.081-.223-.468-.335-1.016-.335-1.643 0-.634.112-1.182.335-1.643.231-.468.541-.825.93-1.07.396-.252.843-.378 1.34-.378zm.595 1.621c-.397 0-.717.13-.962.389-.238.26-.357.62-.357 1.081 0 .461.119.822.357 1.081.245.259.565.389.962.389.389 0 .706-.133.951-.4.252-.266.378-.623.378-1.07 0-.454-.126-.811-.378-1.07-.245-.267-.562-.4-.951-.4zm8.266-1.611c.692 0 1.24.231 1.644.692.41.461.616 1.096.616 1.903V264h-1.849v-3.286c0-.404-.108-.717-.324-.941-.209-.23-.49-.346-.843-.346-.375 0-.674.119-.897.357-.217.238-.325.577-.325 1.016v3.2h-1.848v-6.032h1.848v1.103c.173-.361.429-.645.768-.854.346-.209.749-.314 1.21-.314zm5.77-.01c.462 0 .858.104 1.19.313.331.209.572.494.724.854v-3.059h1.848V264h-1.848v-1.092c-.152.361-.393.645-.724.854-.332.209-.728.314-1.19.314-.497 0-.944-.123-1.34-.368-.389-.252-.699-.612-.93-1.081-.223-.468-.335-1.016-.335-1.643 0-.634.112-1.182.335-1.643.231-.468.541-.825.93-1.07.396-.252.843-.378 1.34-.378zm.595 1.621c-.396 0-.717.13-.962.389-.238.26-.357.62-.357 1.081 0 .461.119.822.357 1.081.245.259.566.389.962.389.389 0 .706-.133.951-.4.252-.266.379-.623.379-1.07 0-.454-.127-.811-.379-1.07-.245-.267-.562-.4-.951-.4zm12.095 2.335c0 .403-.104.775-.313 1.113-.202.339-.505.609-.908.811-.397.202-.879.303-1.449.303-.857 0-1.563-.209-2.118-.627-.555-.418-.858-1.002-.908-1.751h1.967c.029.288.13.515.303.681.18.165.407.248.681.248.237 0 .425-.065.562-.194.137-.13.205-.303.205-.519 0-.195-.065-.357-.194-.487-.123-.129-.278-.234-.465-.313-.188-.087-.447-.188-.779-.303-.482-.166-.879-.324-1.189-.476-.302-.158-.565-.389-.789-.691-.216-.31-.324-.71-.324-1.2 0-.454.115-.847.346-1.178.23-.332.548-.584.951-.757.411-.18.879-.27 1.405-.27.851 0 1.525.201 2.022.605.504.404.789.958.854 1.665h-2c-.036-.253-.13-.451-.281-.595-.144-.151-.342-.227-.595-.227-.216 0-.392.058-.529.173-.13.115-.195.285-.195.508 0 .18.058.335.173.465.123.122.274.223.454.303.18.079.44.18.778.302.49.166.89.332 1.2.498.31.158.577.392.8.702.224.31.335.714.335 1.211zm3.314-3.956c.461 0 .858.104 1.189.313.332.209.577.494.735.854v-1.092h1.838V264h-1.838v-1.092c-.158.361-.403.645-.735.854-.331.209-.728.314-1.189.314-.497 0-.944-.123-1.34-.368-.39-.252-.7-.612-.93-1.081-.224-.468-.335-1.016-.335-1.643 0-.634.111-1.182.335-1.643.23-.468.54-.825.93-1.07.396-.252.843-.378 1.34-.378zm.594 1.621c-.396 0-.717.13-.962.389-.237.26-.356.62-.356 1.081 0 .461.119.822.356 1.081.245.259.566.389.962.389.39 0 .707-.133.952-.4.252-.266.378-.623.378-1.07 0-.454-.126-.811-.378-1.07-.245-.267-.562-.4-.952-.4zm6.289-3.513V264h-1.849v-7.999h1.849zm7.005 4.821c0 .151-.018.317-.054.497h-4.183c.021.454.137.782.346.984.209.194.475.292.8.292.274 0 .501-.069.681-.206.18-.137.299-.313.356-.529h1.957c-.079.425-.252.807-.519 1.146-.267.331-.605.594-1.016.789-.411.187-.868.281-1.373.281-.591 0-1.117-.123-1.578-.368-.454-.252-.811-.612-1.07-1.081-.26-.468-.389-1.016-.389-1.643 0-.634.126-1.182.378-1.643.259-.468.62-.825 1.081-1.07.461-.252.987-.378 1.578-.378.598 0 1.124.122 1.578.367.454.245.804.591 1.049 1.038.252.439.378.947.378 1.524zm-1.87-.281c.007-.396-.101-.692-.324-.887-.216-.201-.487-.302-.811-.302-.339 0-.62.101-.843.302-.223.202-.35.498-.378.887h2.356zm5.028-2.648c.764 0 1.373.19 1.827.572.461.382.75.887.865 1.514h-1.73c-.05-.245-.165-.436-.346-.573-.173-.144-.392-.216-.659-.216-.209 0-.368.047-.476.14-.108.087-.162.213-.162.379 0 .187.097.327.292.421.202.094.515.187.941.281.461.108.839.22 1.135.335.295.108.551.289.767.541.216.252.324.591.324 1.016 0 .346-.093.652-.281.919-.187.266-.457.475-.81.627-.354.151-.772.227-1.254.227-.815 0-1.467-.18-1.957-.541-.49-.36-.789-.875-.897-1.546h1.783c.029.26.137.458.325.595.194.137.443.205.746.205.209 0 .367-.047.475-.14.108-.101.162-.231.162-.389 0-.209-.101-.357-.302-.444-.195-.093-.516-.191-.962-.291-.447-.094-.815-.195-1.103-.303-.288-.108-.537-.281-.746-.519-.209-.245-.313-.576-.313-.994 0-.541.205-.977.616-1.308.411-.339.991-.508 1.74-.508z"/>
            <rect width="18.531" height="18.531" x="102.415" y="250.438" fill="#fff" rx="3.088"/>
            <rect width="16.987" height="16.987" x="103.187" y="251.21" stroke="#CBD0DF" stroke-opacity=".295" stroke-width="1.544" rx="2.316"/>
        </g>
        <g clip-path="url(#prefix__clip6)">
            <rect width="30.885" height="30.885" x="426.707" y="244.261" fill="#fff" rx="15.443"/>
            <rect width="27.797" height="27.797" x="428.252" y="245.805" fill="#8A91A5" rx="13.898"/>
            <path fill="#fff" d="M441.672 260.793h-2.043v2.098h-1.427v-2.098h-2.043v-1.318h2.043v-2.097h1.427v2.097h2.043v1.318zm1.479-2.616c.036-.72.288-1.275.757-1.664.475-.397 1.099-.595 1.87-.595.526 0 .976.094 1.351.281.375.18.656.429.843.746.195.31.292.663.292 1.06 0 .454-.119.839-.357 1.156-.23.31-.508.519-.832.627v.043c.418.13.742.361.973.692.238.332.357.757.357 1.276 0 .432-.101.818-.303 1.156-.195.339-.486.606-.876.8-.382.188-.843.281-1.383.281-.815 0-1.478-.205-1.989-.616-.512-.411-.782-1.016-.811-1.816h1.47c.015.353.133.638.357.854.23.209.544.314.94.314.368 0 .649-.101.843-.303.202-.209.303-.476.303-.8 0-.432-.137-.742-.411-.93-.273-.187-.699-.281-1.275-.281h-.314v-1.243h.314c1.023 0 1.535-.342 1.535-1.027 0-.31-.094-.551-.281-.724-.18-.173-.443-.259-.789-.259-.339 0-.602.093-.789.281-.181.18-.285.41-.314.691h-1.481z"/>
        </g>
        <g clip-path="url(#prefix__clip7)">
            <rect width="30.885" height="30.885" x="401.228" y="244.261" fill="#fff" rx="15.443"/>
            <rect width="27.797" height="27.797" x="402.771" y="245.805" fill="#57C2DB" rx="13.898"/>
            <path fill="#fff" d="M414.075 260.112c.425.08.774.292 1.048.638.274.346.411.742.411 1.189 0 .404-.101.761-.303 1.07-.194.303-.479.541-.854.714-.375.173-.818.259-1.329.259h-3.254v-7.545h3.113c.512 0 .951.083 1.319.249.375.165.656.396.843.692.195.295.292.63.292 1.005 0 .439-.119.807-.357 1.102-.23.296-.54.505-.929.627zm-2.768-.562h1.384c.36 0 .638-.079.832-.238.195-.165.292-.399.292-.702 0-.303-.097-.537-.292-.703-.194-.166-.472-.248-.832-.248h-1.384v1.891zm1.524 3.2c.368 0 .653-.086.854-.259.209-.173.314-.418.314-.736 0-.324-.108-.576-.324-.756-.217-.188-.508-.281-.876-.281h-1.492v2.032h1.524zm3.541-2.551c0-.742.166-1.405.498-1.989.338-.591.796-1.049 1.373-1.373.583-.331 1.235-.497 1.956-.497.843 0 1.582.216 2.216.648.634.433 1.077 1.031 1.33 1.795h-1.741c-.173-.361-.418-.631-.735-.811-.31-.18-.67-.27-1.081-.27-.439 0-.832.104-1.178.313-.339.202-.605.49-.8.865-.187.375-.281.814-.281 1.319 0 .497.094.937.281 1.319.195.374.461.666.8.875.346.202.739.303 1.178.303.411 0 .771-.09 1.081-.27.317-.188.562-.462.735-.822h1.741c-.253.771-.696 1.373-1.33 1.805-.627.426-1.366.638-2.216.638-.721 0-1.373-.162-1.956-.486-.577-.332-1.035-.789-1.373-1.373-.332-.584-.498-1.247-.498-1.989z"/>
        </g>
        <g clip-path="url(#prefix__clip8)">
            <rect width="30.885" height="30.885" x="375.747" y="244.261" fill="#fff" rx="15.443"/>
            <rect width="27.797" height="27.797" x="377.292" y="245.805" fill="#D788D7" rx="13.898"/>
            <path fill="#fff" d="M391.152 256.437v7.545h-1.513v-4.907l-2.021 4.907h-1.146l-2.032-4.907v4.907h-1.514v-7.545h1.719l2.4 5.61 2.399-5.61h1.708zm6.75 2.27c-.173-.317-.411-.558-.713-.724-.303-.166-.656-.249-1.06-.249-.446 0-.843.101-1.189.303-.346.202-.616.49-.81.865-.195.374-.292.807-.292 1.297 0 .504.097.944.292 1.319.201.374.479.663.832.864.353.202.764.303 1.232.303.577 0 1.049-.151 1.416-.454.368-.31.609-.739.725-1.286h-2.595v-1.157h4.086v1.319c-.101.526-.317 1.012-.648 1.459-.332.447-.761.807-1.287 1.081-.518.267-1.102.4-1.751.4-.728 0-1.387-.162-1.978-.486-.584-.332-1.045-.789-1.384-1.373-.331-.584-.497-1.247-.497-1.989s.166-1.405.497-1.989c.339-.591.8-1.049 1.384-1.373.591-.331 1.247-.497 1.967-.497.851 0 1.589.209 2.216.627.627.411 1.06.991 1.298 1.74h-1.741z"/>
        </g>
        <g clip-path="url(#prefix__clip9)">
            <rect width="30.885" height="30.885" x="350.268" y="244.261" fill="#fff" rx="15.443"/>
            <rect width="27.797" height="27.797" x="351.812" y="245.805" fill="#DDBE7D" rx="13.898"/>
            <path fill="#fff" d="M361.757 256.437c.792 0 1.488.155 2.086.465.605.31 1.07.753 1.394 1.33.332.569.497 1.232.497 1.989 0 .756-.165 1.419-.497 1.989-.324.562-.789.998-1.394 1.307-.598.31-1.294.465-2.086.465h-2.638v-7.545h2.638zm-.055 6.259c.793 0 1.406-.216 1.838-.649.433-.432.649-1.041.649-1.826 0-.786-.216-1.399-.649-1.838-.432-.447-1.045-.67-1.838-.67h-1.07v4.983h1.07zm9.057 1.286l-1.665-2.94h-.713v2.94h-1.514v-7.545h2.832c.584 0 1.081.105 1.492.314.411.201.717.479.919.832.209.346.314.735.314 1.167 0 .498-.145.948-.433 1.352-.288.396-.717.67-1.286.821l1.805 3.059h-1.751zm-2.378-4.075h1.264c.411 0 .717-.097.919-.292.202-.202.303-.479.303-.832 0-.346-.101-.613-.303-.8-.202-.195-.508-.292-.919-.292h-1.264v2.216z"/>
        </g>
        <rect width="3.088" height="148.248" x="482.301" y="225.73" fill="#F4F4F7" rx="1.544"/>
        <rect width="3.088" height="74.124" x="482.301" y="225.73" fill="#8A91A5" rx="1.544"/>
        <rect width="392.239" height="67.947" x="83.885" y="302.942" fill="#fff" rx="12.354"/>
        <rect width="390.695" height="66.403" x="84.657" y="303.715" stroke="#CBD0DF" stroke-opacity=".295" stroke-width="1.544" rx="11.582"/>
        <g clip-path="url(#prefix__clip10)">
            <path fill="#0D1331" d="M135.787 338.514v2.681h-1.848v-7.643h2.994c.908 0 1.6.227 2.075.681.476.447.714 1.052.714 1.816 0 .476-.108.901-.325 1.276-.209.367-.522.659-.94.875-.418.209-.926.314-1.524.314h-1.146zm.94-1.481c.743 0 1.114-.328 1.114-.984 0-.67-.371-1.005-1.114-1.005h-.94v1.989h.94zm5.753-.735c.23-.368.526-.66.886-.876.368-.216.764-.324 1.189-.324v1.978h-.529c-.49 0-.872.105-1.146.314-.267.209-.4.562-.4 1.059v2.746h-1.849v-6.032h1.849v1.135zm5.67-1.211c.598 0 1.132.126 1.6.379.476.245.847.601 1.113 1.07.274.468.411 1.016.411 1.643s-.137 1.174-.411 1.643c-.266.468-.637.829-1.113 1.081-.468.245-1.002.367-1.6.367-.598 0-1.135-.122-1.61-.367-.476-.252-.851-.613-1.125-1.081-.266-.469-.4-1.016-.4-1.643s.134-1.175.4-1.643c.274-.469.649-.825 1.125-1.07.475-.253 1.012-.379 1.61-.379zm0 1.6c-.353 0-.652.13-.897.389-.238.252-.357.62-.357 1.103s.119.85.357 1.102c.245.253.544.379.897.379s.649-.126.887-.379c.237-.252.356-.619.356-1.102 0-.483-.119-.851-.356-1.103-.238-.259-.534-.389-.887-.389zm6.807-1.6c.778 0 1.43.216 1.956.649.526.425.858 1.012.995 1.762h-1.957c-.057-.26-.176-.461-.356-.606-.181-.144-.408-.216-.681-.216-.325 0-.591.13-.8.389-.209.253-.314.624-.314 1.114 0 .49.105.865.314 1.124.209.252.475.378.8.378.273 0 .5-.072.681-.216.18-.144.299-.346.356-.605h1.957c-.137.749-.469 1.34-.995 1.773-.526.425-1.178.637-1.956.637-.591 0-1.117-.122-1.578-.367-.454-.252-.811-.613-1.071-1.081-.259-.469-.389-1.016-.389-1.643 0-.634.126-1.182.379-1.643.259-.469.619-.825 1.081-1.07.461-.253.987-.379 1.578-.379zm9.645 2.93c0 .151-.018.317-.054.497h-4.184c.022.454.137.782.346.984.209.194.476.291.8.291.274 0 .501-.068.681-.205.18-.137.299-.313.357-.53h1.957c-.08.426-.253.807-.519 1.146-.267.332-.606.595-1.016.789-.411.188-.869.281-1.373.281-.591 0-1.117-.122-1.578-.367-.454-.252-.811-.613-1.071-1.081-.259-.469-.389-1.016-.389-1.643 0-.634.126-1.182.379-1.643.259-.469.619-.825 1.081-1.07.461-.253.987-.379 1.578-.379.598 0 1.124.123 1.578.368.454.245.804.591 1.049 1.037.252.44.378.948.378 1.525zm-1.87-.281c.007-.397-.101-.692-.324-.887-.217-.202-.487-.303-.811-.303-.339 0-.62.101-.843.303-.224.202-.35.497-.379.887h2.357zm5.028-2.649c.764 0 1.373.191 1.827.573.461.382.749.886.864 1.513h-1.729c-.051-.245-.166-.436-.346-.572-.173-.145-.393-.217-.659-.217-.209 0-.368.047-.476.141-.108.086-.162.212-.162.378 0 .188.097.328.292.422.201.093.515.187.94.281.461.108.84.22 1.135.335.296.108.551.288.768.54.216.253.324.591.324 1.017 0 .345-.094.652-.281.918-.187.267-.458.476-.811.627-.353.152-.771.227-1.254.227-.814 0-1.466-.18-1.956-.54-.49-.36-.789-.876-.898-1.546h1.784c.029.259.137.458.324.595.195.137.444.205.746.205.209 0 .368-.047.476-.141.108-.1.162-.23.162-.389 0-.209-.101-.356-.303-.443-.194-.094-.515-.191-.962-.292-.447-.093-.814-.194-1.102-.302-.289-.109-.537-.281-.746-.519-.209-.245-.314-.577-.314-.995 0-.54.206-.976.616-1.308.411-.338.991-.508 1.741-.508zm5.996 0c.764 0 1.373.191 1.827.573.461.382.749.886.864 1.513h-1.729c-.051-.245-.166-.436-.346-.572-.173-.145-.393-.217-.659-.217-.209 0-.368.047-.476.141-.108.086-.162.212-.162.378 0 .188.097.328.292.422.202.093.515.187.94.281.461.108.84.22 1.135.335.296.108.551.288.768.54.216.253.324.591.324 1.017 0 .345-.094.652-.281.918-.187.267-.458.476-.811.627-.353.152-.771.227-1.254.227-.814 0-1.466-.18-1.956-.54-.49-.36-.789-.876-.898-1.546h1.784c.029.259.137.458.324.595.195.137.444.205.746.205.209 0 .368-.047.476-.141.108-.1.162-.23.162-.389 0-.209-.101-.356-.303-.443-.194-.094-.515-.191-.962-.292-.447-.093-.814-.194-1.102-.302-.289-.109-.537-.281-.746-.519-.209-.245-.314-.577-.314-.995 0-.54.206-.976.617-1.308.41-.338.99-.508 1.74-.508zm7.996 1.546v1.535h-4.767v-1.535h4.767zm5.307-3.2c.721 0 1.373.17 1.957.508.59.332 1.055.797 1.394 1.395.339.591.508 1.261.508 2.01 0 .75-.173 1.424-.519 2.022-.339.598-.803 1.066-1.394 1.405-.584.332-1.233.497-1.946.497-.714 0-1.366-.165-1.957-.497-.583-.339-1.048-.807-1.394-1.405-.339-.598-.508-1.272-.508-2.022 0-.749.169-1.419.508-2.01.346-.598.811-1.063 1.394-1.395.591-.338 1.243-.508 1.957-.508zm0 1.719c-.605 0-1.088.198-1.449.595-.353.389-.529.922-.529 1.599 0 .671.176 1.204.529 1.6.361.397.844.595 1.449.595.598 0 1.077-.198 1.438-.595.36-.396.54-.929.54-1.6 0-.67-.18-1.203-.54-1.599-.353-.397-.833-.595-1.438-.595zm13.718.011l-1.546 6.032h-2.064l-1.092-4.043-1.103 4.043h-2.064l-1.546-6.032h1.848l.8 4.345 1.124-4.345h1.968l1.157 4.356.799-4.356h1.719zm4.496-.065c.692 0 1.24.231 1.643.692.411.461.616 1.095.616 1.902v3.503h-1.848v-3.286c0-.404-.108-.718-.324-.941-.209-.231-.49-.346-.843-.346-.375 0-.674.119-.898.357-.216.238-.324.576-.324 1.016v3.2h-1.848v-6.032h1.848v1.102c.173-.36.429-.645.768-.854.345-.209.749-.313 1.21-.313zm9.208 2.919c0 .151-.018.317-.054.497h-4.184c.022.454.137.782.346.984.209.194.476.291.8.291.274 0 .501-.068.681-.205.18-.137.299-.313.357-.53h1.956c-.079.426-.252.807-.518 1.146-.267.332-.606.595-1.016.789-.411.188-.869.281-1.373.281-.591 0-1.117-.122-1.579-.367-.454-.252-.81-.613-1.07-1.081-.259-.469-.389-1.016-.389-1.643 0-.634.126-1.182.378-1.643.26-.469.62-.825 1.081-1.07.462-.253.988-.379 1.579-.379.598 0 1.124.123 1.578.368.454.245.803.591 1.048 1.037.253.44.379.948.379 1.525zm-1.87-.281c.007-.397-.101-.692-.325-.887-.216-.202-.486-.303-.81-.303-.339 0-.62.101-.843.303-.224.202-.35.497-.379.887h2.357zm4.682-1.438c.23-.368.526-.66.886-.876.368-.216.764-.324 1.189-.324v1.978h-.529c-.49 0-.872.105-1.146.314-.267.209-.4.562-.4 1.059v2.746h-1.849v-6.032h1.849v1.135zm5.043-1.211c.764 0 1.373.191 1.827.573.461.382.75.886.865 1.513h-1.73c-.05-.245-.165-.436-.346-.572-.172-.145-.392-.217-.659-.217-.209 0-.367.047-.476.141-.108.086-.162.212-.162.378 0 .188.098.328.292.422.202.093.515.187.941.281.461.108.839.22 1.135.335.295.108.551.288.767.54.216.253.324.591.324 1.017 0 .345-.093.652-.281.918-.187.267-.457.476-.81.627-.353.152-.771.227-1.254.227-.815 0-1.467-.18-1.957-.54-.49-.36-.789-.876-.897-1.546h1.784c.028.259.136.458.324.595.194.137.443.205.746.205.209 0 .367-.047.475-.141.108-.1.163-.23.163-.389 0-.209-.101-.356-.303-.443-.195-.094-.515-.191-.962-.292-.447-.093-.815-.194-1.103-.302-.288-.109-.537-.281-.746-.519-.209-.245-.313-.577-.313-.995 0-.54.205-.976.616-1.308.411-.338.991-.508 1.74-.508z"/>
            <rect width="16.531" height="16.531" x="103.415" y="328.65" fill="#fff" stroke="#3F6DB4" stroke-width="2" rx="2"/>
            <path fill="#3F6DB4" d="M115.775 334.227c-.301-.303-.792-.303-1.092 0l-3.876 3.898-1.49-1.497c-.3-.302-.791-.302-1.092 0-.3.302-.3.796 0 1.098l2.035 2.047c.301.302.792.302 1.092 0l4.423-4.448c.3-.302.3-.796 0-1.098z"/>
        </g>
        <g clip-path="url(#prefix__clip11)">
            <rect width="30.885" height="30.885" x="426.707" y="321.473" fill="#fff" rx="15.443"/>
            <rect width="27.797" height="27.797" x="428.252" y="323.018" fill="#8A91A5" rx="13.898"/>
            <path fill="#fff" d="M441.45 338.006h-2.043v2.097h-1.427v-2.097h-2.043v-1.319h2.043v-2.097h1.427v2.097h2.043v1.319zm5.544-2.724c-.072-.303-.198-.53-.378-.681-.173-.152-.426-.227-.757-.227-.497 0-.865.202-1.103.605-.23.396-.349 1.045-.356 1.946.173-.288.425-.512.756-.67.332-.166.692-.249 1.081-.249.469 0 .883.101 1.243.303.361.201.642.497.844.886.201.382.302.843.302 1.384 0 .511-.104.969-.313 1.373-.202.396-.501.706-.898.929-.396.224-.868.335-1.416.335-.749 0-1.34-.165-1.772-.497-.426-.331-.725-.793-.898-1.384-.165-.598-.248-1.333-.248-2.205 0-1.319.227-2.313.681-2.983.454-.678 1.171-1.016 2.151-1.016.757 0 1.344.205 1.762.616.418.411.659.922.724 1.535h-1.405zm-1.103 1.967c-.382 0-.702.112-.962.335-.259.224-.389.548-.389.973 0 .425.119.76.357 1.005.245.245.587.368 1.027.368.389 0 .695-.119.919-.357.23-.238.345-.558.345-.962 0-.418-.111-.749-.335-.994-.216-.245-.536-.368-.962-.368z"/>
        </g>
        <g clip-path="url(#prefix__clip12)">
            <rect width="30.885" height="30.885" x="401.228" y="321.473" fill="#fff" rx="15.443"/>
            <rect width="27.797" height="27.797" x="402.771" y="323.018" fill="#F995C4" rx="13.898"/>
            <path fill="#fff" d="M414.002 341.195l-1.665-2.941h-.713v2.941h-1.513v-7.546h2.832c.583 0 1.081.105 1.491.314.411.202.718.479.919.832.209.346.314.735.314 1.168 0 .497-.144.947-.433 1.351-.288.396-.717.67-1.286.822l1.805 3.059h-1.751zm-2.378-4.076h1.265c.41 0 .717-.097.919-.291.201-.202.302-.48.302-.833 0-.346-.101-.612-.302-.8-.202-.194-.509-.292-.919-.292h-1.265v2.216zm12.189-3.47l-2.767 7.546h-1.838l-2.767-7.546h1.621l2.076 6 2.065-6h1.61z"/>
        </g>
        <g clip-path="url(#prefix__clip13)">
            <rect width="30.885" height="30.885" x="375.747" y="321.473" fill="#fff" rx="15.443"/>
            <rect width="27.797" height="27.797" x="377.292" y="323.018" fill="#57C2DB" rx="13.898"/>
            <path fill="#fff" d="M389.072 341.195l-1.665-2.941h-.714v2.941h-1.513v-7.546h2.832c.584 0 1.081.105 1.492.314.411.202.717.479.919.832.209.346.313.735.313 1.168 0 .497-.144.947-.432 1.351-.288.396-.717.67-1.287.822l1.806 3.059h-1.751zm-2.379-4.076h1.265c.411 0 .717-.097.919-.291.202-.202.303-.48.303-.833 0-.346-.101-.612-.303-.8-.202-.194-.508-.292-.919-.292h-1.265v2.216zm8.017 4.151c-.526 0-1.002-.09-1.427-.27-.418-.18-.749-.439-.994-.778s-.371-.739-.379-1.2h1.622c.022.31.13.555.324.735.202.18.476.27.822.27.353 0 .63-.083.832-.248.202-.173.303-.397.303-.671 0-.223-.069-.407-.206-.551-.137-.144-.31-.256-.519-.335-.201-.086-.482-.18-.843-.281-.49-.144-.89-.285-1.2-.422-.302-.144-.565-.356-.789-.637-.216-.289-.324-.671-.324-1.146 0-.447.112-.836.335-1.168.224-.331.537-.583.941-.756.403-.181.864-.271 1.383-.271.779 0 1.409.191 1.892.573.49.375.76.901.811 1.579h-1.665c-.014-.26-.126-.473-.335-.638-.202-.173-.472-.26-.811-.26-.295 0-.533.076-.713.227-.173.152-.26.371-.26.66 0 .201.065.371.195.508.137.129.303.238.497.324.202.079.483.173.843.281.49.144.89.288 1.2.432.31.145.577.361.8.649.223.288.335.667.335 1.135 0 .404-.104.778-.313 1.124-.209.346-.516.624-.919.833-.404.201-.883.302-1.438.302z"/>
        </g>
        <g clip-path="url(#prefix__clip14)">
            <rect width="30.885" height="30.885" x="350.268" y="321.473" fill="#fff" rx="15.443"/>
            <rect width="27.797" height="27.797" x="351.812" y="323.018" fill="#D788D7" rx="13.898"/>
            <path fill="#fff" d="M366.052 333.649v7.546h-1.513v-4.908l-2.022 4.908h-1.146l-2.032-4.908v4.908h-1.513v-7.546h1.719l2.399 5.611 2.4-5.611h1.708zm2.988 0v4.67c0 .512.133.905.4 1.179.267.266.641.4 1.124.4.49 0 .869-.134 1.135-.4.267-.274.4-.667.4-1.179v-4.67h1.524v4.659c0 .642-.14 1.186-.421 1.633-.274.439-.645.771-1.114.994-.461.224-.976.335-1.545.335-.563 0-1.074-.111-1.535-.335-.454-.223-.815-.555-1.081-.994-.267-.447-.4-.991-.4-1.633v-4.659h1.513z"/>
        </g>
        <g clip-path="url(#prefix__clip15)">
            <rect width="92.655" height="37.062" x="392.734" y="394.053" fill="#3F6DB4" rx="6.177"/>
            <path fill="#fff" d="M433.937 416.863h-1.514l-3.426-5.178v5.178h-1.514v-7.556h1.514l3.426 5.189v-5.189h1.514v7.556zm7.062-3.124c0 .216-.014.411-.043.584h-4.378c.036.432.187.771.454 1.016s.595.367.984.367c.562 0 .962-.241 1.2-.724h1.632c-.173.576-.505 1.052-.995 1.427-.49.367-1.091.551-1.805.551-.576 0-1.095-.126-1.556-.378-.454-.26-.811-.624-1.071-1.092-.252-.468-.378-1.009-.378-1.621 0-.62.126-1.164.378-1.633.253-.468.606-.828 1.06-1.081.454-.252.976-.378 1.567-.378.569 0 1.078.122 1.524.368.454.245.804.594 1.049 1.048.252.447.378.962.378 1.546zm-1.567-.433c-.007-.389-.148-.699-.422-.929-.274-.238-.609-.357-1.005-.357-.375 0-.692.115-.951.346-.253.223-.408.537-.465.94h2.843zm5.98 3.557l-1.233-1.859-1.091 1.859h-1.622l1.957-3.005-1.979-2.984h1.708l1.222 1.849 1.102-1.849h1.622l-1.967 2.984 1.989 3.005h-1.708zm4.291-4.746v2.897c0 .202.047.35.141.444.101.086.267.129.497.129h.703v1.276h-.951c-1.276 0-1.914-.62-1.914-1.859v-2.887h-.713v-1.243h.713v-1.481h1.524v1.481h1.341v1.243h-1.341z"/>
        </g>
        <g clip-path="url(#prefix__clip16)">
            <rect width="148.248" height="37.062" x="83.885" y="394.053" fill="#EFF3F9" rx="6.177"/>
            <path fill="#3F6DB4" d="M135.602 415.425h-3.005l-.498 1.438h-1.589l2.714-7.556h1.762l2.713 7.556h-1.6l-.497-1.438zm-.411-1.211l-1.092-3.156-1.092 3.156h2.184zm3.133-.367c0-.605.119-1.142.357-1.611.245-.468.576-.828.994-1.081.418-.252.883-.378 1.395-.378.389 0 .76.086 1.113.259.353.166.634.39.843.671v-2.843h1.535v7.999h-1.535v-.887c-.187.296-.45.534-.789.714-.339.18-.731.27-1.178.27-.505 0-.966-.13-1.384-.389-.418-.259-.749-.623-.994-1.092-.238-.475-.357-1.02-.357-1.632zm4.713.022c0-.368-.072-.681-.216-.941-.144-.267-.339-.468-.584-.605-.245-.144-.508-.216-.789-.216s-.541.068-.778.205c-.238.137-.433.339-.584.605-.144.26-.216.57-.216.93 0 .36.072.677.216.951.151.267.346.472.584.616.245.144.504.217.778.217.281 0 .544-.069.789-.206.245-.144.44-.346.584-.605.144-.267.216-.584.216-.951zm2.613-.022c0-.605.119-1.142.357-1.611.245-.468.576-.828.994-1.081.418-.252.883-.378 1.395-.378.389 0 .76.086 1.113.259.353.166.634.39.843.671v-2.843h1.535v7.999h-1.535v-.887c-.187.296-.45.534-.789.714-.339.18-.731.27-1.178.27-.505 0-.966-.13-1.384-.389-.418-.259-.749-.623-.994-1.092-.238-.475-.357-1.02-.357-1.632zm4.713.022c0-.368-.072-.681-.216-.941-.144-.267-.339-.468-.584-.605-.245-.144-.508-.216-.789-.216s-.54.068-.778.205c-.238.137-.433.339-.584.605-.144.26-.216.57-.216.93 0 .36.072.677.216.951.151.267.346.472.584.616.245.144.504.217.778.217.281 0 .544-.069.789-.206.245-.144.44-.346.584-.605.144-.267.216-.584.216-.951zm10.205 1.556h-3.005l-.498 1.438h-1.589l2.713-7.556h1.762l2.714 7.556h-1.6l-.497-1.438zm-.411-1.211l-1.092-3.156-1.092 3.156h2.184zm9.175-3.34v5.989h-1.524v-.757c-.194.26-.45.465-.767.616-.31.144-.649.217-1.016.217-.469 0-.883-.098-1.244-.292-.36-.202-.644-.494-.853-.876-.202-.389-.303-.85-.303-1.384v-3.513h1.513v3.297c0 .476.119.843.357 1.103.238.252.562.378.973.378.418 0 .746-.126.983-.378.238-.26.357-.627.357-1.103v-3.297h1.524zm1.104 2.973c0-.605.119-1.142.357-1.611.245-.468.577-.828.995-1.081.418-.252.882-.378 1.394-.378.389 0 .76.086 1.113.259.354.166.635.39.844.671v-2.843h1.535v7.999h-1.535v-.887c-.188.296-.451.534-.789.714-.339.18-.732.27-1.179.27-.504 0-.965-.13-1.383-.389-.418-.259-.75-.623-.995-1.092-.238-.475-.357-1.02-.357-1.632zm4.713.022c0-.368-.072-.681-.216-.941-.144-.267-.338-.468-.583-.605-.245-.144-.509-.216-.79-.216s-.54.068-.778.205c-.238.137-.432.339-.584.605-.144.26-.216.57-.216.93 0 .36.072.677.216.951.152.267.346.472.584.616.245.144.505.217.778.217.281 0 .545-.069.79-.206.245-.144.439-.346.583-.605.144-.267.216-.584.216-.951zm3.77-3.708c-.266 0-.49-.083-.67-.249-.173-.173-.259-.385-.259-.638 0-.252.086-.461.259-.627.18-.173.404-.259.67-.259.267 0 .487.086.66.259.18.166.27.375.27.627 0 .253-.09.465-.27.638-.173.166-.393.249-.66.249zm.746.713v5.989h-1.513v-5.989h1.513zm7.062 2.865c0 .216-.014.411-.043.584h-4.378c.036.432.187.771.454 1.016s.595.367.984.367c.562 0 .962-.241 1.2-.724h1.632c-.173.576-.505 1.052-.995 1.427-.49.367-1.091.551-1.805.551-.576 0-1.095-.126-1.556-.378-.454-.26-.811-.624-1.071-1.092-.252-.468-.378-1.009-.378-1.621 0-.62.126-1.164.378-1.633.253-.468.606-.828 1.06-1.081.454-.252.976-.378 1.567-.378.57 0 1.078.122 1.524.368.454.245.804.594 1.049 1.048.252.447.378.962.378 1.546zm-1.567-.433c-.007-.389-.148-.699-.422-.929-.274-.238-.609-.357-1.005-.357-.375 0-.692.115-.951.346-.253.223-.407.537-.465.94h2.843zm5.99-2.518c.714 0 1.29.227 1.73.681.44.447.659 1.074.659 1.881v3.513h-1.513v-3.308c0-.476-.119-.839-.357-1.092-.237-.259-.562-.389-.973-.389-.418 0-.749.13-.994.389-.238.253-.357.616-.357 1.092v3.308h-1.513v-5.989h1.513v.746c.202-.259.458-.461.768-.605.317-.152.663-.227 1.037-.227zm3.439 3.081c0-.62.127-1.161.379-1.622.252-.468.602-.829 1.048-1.081.447-.259.959-.389 1.535-.389.743 0 1.355.187 1.838.562.49.368.818.886.984 1.557h-1.633c-.086-.26-.234-.462-.443-.606-.202-.151-.454-.227-.757-.227-.432 0-.774.159-1.026.476-.253.31-.379.753-.379 1.33 0 .569.126 1.012.379 1.329.252.31.594.465 1.026.465.613 0 1.013-.274 1.2-.822h1.633c-.166.649-.494 1.164-.984 1.546-.49.382-1.103.573-1.838.573-.576 0-1.088-.126-1.535-.378-.446-.26-.796-.62-1.048-1.081-.252-.469-.379-1.013-.379-1.632zm12.459-.13c0 .216-.014.411-.043.584h-4.378c.036.432.187.771.454 1.016s.595.367.984.367c.562 0 .962-.241 1.2-.724h1.632c-.173.576-.504 1.052-.995 1.427-.49.367-1.091.551-1.805.551-.576 0-1.095-.126-1.556-.378-.454-.26-.811-.624-1.071-1.092-.252-.468-.378-1.009-.378-1.621 0-.62.126-1.164.378-1.633.253-.468.606-.828 1.06-1.081.454-.252.976-.378 1.567-.378.57 0 1.078.122 1.524.368.454.245.804.594 1.049 1.048.252.447.378.962.378 1.546zm-1.567-.433c-.007-.389-.148-.699-.422-.929-.274-.238-.609-.357-1.005-.357-.375 0-.692.115-.951.346-.252.223-.407.537-.465.94h2.843z"/>
            <path fill="#3F6DB4" fill-rule="evenodd" d="M100.099 407.951v3.86l3.86.001c.427 0 .773.346.773.772 0 .426-.346.772-.773.772h-3.86v3.861c0 .426-.346.772-.772.772-.427 0-.772-.346-.772-.772v-3.861h-3.861c-.426 0-.772-.346-.772-.772 0-.426.346-.772.772-.772l3.86-.001v-3.86c0-.426.346-.772.773-.772.426 0 .772.346.772.772z" clip-rule="evenodd"/>
        </g>
        <g clip-path="url(#prefix__clip17)">
            <path fill="#0D1331" d="M132.979 166.103c-.951 0-1.804-.154-2.557-.463-.754-.309-1.359-.766-1.816-1.371-.445-.606-.68-1.335-.705-2.187h3.373c.049.482.216.852.5 1.112.284.247.655.37 1.112.37.47 0 .84-.105 1.112-.315.272-.222.408-.525.408-.908 0-.321-.111-.586-.334-.796-.21-.21-.475-.383-.797-.519-.309-.136-.753-.291-1.334-.464-.84-.259-1.526-.518-2.057-.778-.531-.259-.988-.642-1.371-1.149-.383-.506-.575-1.167-.575-1.983 0-1.21.439-2.155 1.316-2.835.877-.692 2.02-1.038 3.428-1.038 1.433 0 2.588.346 3.466 1.038.877.68 1.346 1.631 1.408 2.854h-3.428c-.025-.42-.179-.748-.464-.982-.284-.247-.648-.371-1.093-.371-.383 0-.692.105-.926.315-.235.198-.352.488-.352.871 0 .42.197.748.593.982.395.235 1.013.488 1.853.76.84.284 1.519.556 2.038.815.531.26.988.637 1.371 1.131s.575 1.13.575 1.908c0 .742-.192 1.415-.575 2.02-.37.606-.914 1.088-1.63 1.446-.717.358-1.563.537-2.539.537zm16.441-5.466c0 .296-.018.605-.055.926h-7.172c.049.642.253 1.137.612 1.483.37.333.821.5 1.352.5.791 0 1.341-.334 1.65-1.001h3.372c-.173.68-.488 1.291-.945 1.835-.445.543-1.007.97-1.686 1.278-.68.309-1.439.464-2.279.464-1.013 0-1.915-.216-2.706-.649-.791-.432-1.408-1.05-1.853-1.853-.445-.803-.667-1.742-.667-2.817 0-1.074.216-2.013.648-2.816.445-.803 1.063-1.421 1.853-1.853.791-.433 1.699-.649 2.725-.649 1 0 1.89.21 2.668.63.778.42 1.384 1.019 1.816 1.797.445.779.667 1.687.667 2.725zm-3.243-.834c0-.544-.185-.976-.556-1.298-.37-.321-.834-.481-1.39-.481-.531 0-.982.154-1.352.463-.359.309-.581.747-.667 1.316h3.965zm11.215-4.281c1.211 0 2.175.395 2.891 1.186.729.778 1.094 1.853 1.094 3.224v6.041h-3.151v-5.614c0-.692-.179-1.23-.537-1.613-.358-.383-.84-.574-1.446-.574-.605 0-1.087.191-1.445.574-.358.383-.537.921-.537 1.613v5.614h-3.169v-10.34h3.169v1.371c.321-.457.753-.815 1.297-1.074.543-.272 1.155-.408 1.834-.408zm5.556 5.263c0-1.063.198-1.995.593-2.798.408-.803.958-1.421 1.65-1.853.692-.433 1.464-.649 2.316-.649.68 0 1.297.142 1.853.426.568.284 1.013.667 1.334 1.149v-4.799h3.169v13.712h-3.169v-1.482c-.296.494-.722.889-1.278 1.186-.544.296-1.18.445-1.909.445-.852 0-1.624-.216-2.316-.649-.692-.445-1.242-1.069-1.65-1.872-.395-.815-.593-1.754-.593-2.816zm7.746.018c0-.79-.222-1.414-.667-1.871-.432-.457-.963-.686-1.593-.686s-1.168.229-1.613.686c-.432.444-.648 1.062-.648 1.853 0 .79.216 1.42.648 1.89.445.457.983.686 1.613.686s1.161-.229 1.593-.686c.445-.457.667-1.081.667-1.872zm14.096 5.3c-.952 0-1.804-.154-2.558-.463-.753-.309-1.359-.766-1.816-1.371-.444-.606-.679-1.335-.704-2.187h3.373c.049.482.216.852.5 1.112.284.247.655.37 1.112.37.469 0 .84-.105 1.112-.315.272-.222.407-.525.407-.908 0-.321-.111-.586-.333-.796-.21-.21-.476-.383-.797-.519-.309-.136-.754-.291-1.334-.464-.84-.259-1.526-.518-2.057-.778-.531-.259-.988-.642-1.371-1.149-.383-.506-.575-1.167-.575-1.983 0-1.21.439-2.155 1.316-2.835.877-.692 2.02-1.038 3.428-1.038 1.433 0 2.588.346 3.465 1.038.877.68 1.347 1.631 1.409 2.854h-3.429c-.024-.42-.179-.748-.463-.982-.284-.247-.648-.371-1.093-.371-.383 0-.692.105-.927.315-.234.198-.352.488-.352.871 0 .42.198.748.593.982.396.235 1.013.488 1.853.76.84.284 1.52.556 2.039.815.531.26.988.637 1.371 1.131s.574 1.13.574 1.908c0 .742-.191 1.415-.574 2.02-.371.606-.914 1.088-1.631 1.446-.716.358-1.562.537-2.538.537zm16.904-10.47v10.34h-3.169v-1.408c-.321.457-.759.828-1.315 1.112-.544.272-1.149.408-1.816.408-.791 0-1.489-.173-2.094-.519-.606-.358-1.075-.871-1.409-1.538-.333-.667-.5-1.452-.5-2.354v-6.041h3.15v5.615c0 .692.179 1.229.538 1.612.358.383.84.575 1.445.575.618 0 1.106-.192 1.464-.575.358-.383.537-.92.537-1.612v-5.615h3.169zm5.445 1.724c.371-.569.834-1.013 1.39-1.335.556-.333 1.174-.5 1.853-.5v3.354h-.871c-.791 0-1.384.173-1.779.519-.395.334-.593.927-.593 1.779v4.799h-3.169v-10.34h3.169v1.724zm9.409 5.651l2.242-7.375h3.373l-3.669 10.34h-3.91l-3.67-10.34h3.392l2.242 7.375zm16.696-2.371c0 .296-.019.605-.056.926h-7.171c.049.642.253 1.137.611 1.483.371.333.822.5 1.353.5.791 0 1.34-.334 1.649-1.001h3.373c-.173.68-.488 1.291-.945 1.835-.445.543-1.007.97-1.686 1.278-.68.309-1.44.464-2.28.464-1.013 0-1.915-.216-2.705-.649-.791-.432-1.409-1.05-1.853-1.853-.445-.803-.667-1.742-.667-2.817 0-1.074.216-2.013.648-2.816.445-.803 1.063-1.421 1.853-1.853.791-.433 1.699-.649 2.724-.649 1.001 0 1.89.21 2.669.63.778.42 1.383 1.019 1.816 1.797.444.779.667 1.687.667 2.725zm-3.243-.834c0-.544-.185-.976-.556-1.298-.371-.321-.834-.481-1.39-.481-.531 0-.982.154-1.353.463-.358.309-.58.747-.667 1.316h3.966zm15.477-4.17l-6.486 15.251h-3.409l2.372-5.263-4.207-9.988h3.54l2.39 6.467 2.372-6.467h3.428z"/>
            <rect width="30.885" height="30.885" x="83.885" y="143.885" fill="#3F6DB4" fill-opacity=".04" rx="6.177"/>
            <path stroke="#1A3154" stroke-width="1.544" d="M101.644 157.011v.67l-.663.094c-2.525.361-4.286 1.431-5.512 2.833-.544.621-.988 1.314-1.348 2.053 1.806-1.275 4.032-1.867 6.75-1.867h.773v2.074l3.54-3.541-3.54-3.54v1.224z"/>
            <path fill="#3A3A3A" d="M84.35 195.351c0-.735.165-1.394.497-1.978.331-.591.782-1.052 1.351-1.384.577-.331 1.214-.497 1.913-.497.822 0 1.539.198 2.151.595.613.396 1.06.958 1.34 1.686h-1.177c-.21-.454-.512-.803-.908-1.048-.39-.245-.858-.368-1.406-.368-.526 0-.998.123-1.416.368-.418.245-.746.594-.983 1.048-.238.447-.357.973-.357 1.578 0 .598.119 1.125.357 1.579.237.446.565.792.983 1.037.418.245.89.368 1.416.368.548 0 1.016-.119 1.406-.357.396-.245.699-.594.908-1.048h1.178c-.281.72-.728 1.279-1.34 1.675-.613.389-1.33.584-2.152.584-.699 0-1.336-.162-1.913-.487-.57-.331-1.02-.789-1.351-1.373-.332-.583-.497-1.243-.497-1.978zm11.657-2.259c.447 0 .85.097 1.211.292.36.187.641.472.843.854.21.382.314.847.314 1.394v3.492h-.973v-3.351c0-.591-.148-1.041-.443-1.351-.296-.317-.7-.476-1.211-.476-.519 0-.933.162-1.243.486-.303.325-.454.797-.454 1.417v3.275h-.984v-7.999h.984v2.918c.195-.302.461-.537.8-.702.346-.166.731-.249 1.156-.249zm6.558 6.129c-.555 0-1.059-.126-1.513-.378-.447-.252-.8-.609-1.06-1.07-.252-.469-.378-1.009-.378-1.622 0-.605.13-1.138.389-1.6.267-.468.627-.825 1.081-1.07.454-.252.962-.378 1.524-.378.563 0 1.071.126 1.525.378.454.245.81.598 1.07 1.06.266.461.4.998.4 1.61 0 .613-.137 1.153-.411 1.622-.267.461-.631.818-1.092 1.07-.461.252-.973.378-1.535.378zm0-.865c.353 0 .685-.082.995-.248.31-.166.558-.415.746-.746.194-.332.291-.735.291-1.211 0-.475-.093-.879-.281-1.21-.187-.332-.432-.577-.735-.736-.302-.165-.63-.248-.983-.248-.361 0-.692.083-.995.248-.295.159-.533.404-.713.736-.181.331-.271.735-.271 1.21 0 .483.087.89.26 1.222.18.331.418.58.713.746.296.158.62.237.973.237zm6.915.865c-.555 0-1.06-.126-1.514-.378-.447-.252-.8-.609-1.059-1.07-.252-.469-.378-1.009-.378-1.622 0-.605.129-1.138.389-1.6.266-.468.627-.825 1.081-1.07.454-.252.962-.378 1.524-.378s1.07.126 1.524.378c.454.245.811.598 1.07 1.06.267.461.4.998.4 1.61 0 .613-.137 1.153-.411 1.622-.266.461-.63.818-1.091 1.07-.462.252-.973.378-1.535.378zm0-.865c.353 0 .684-.082.994-.248.31-.166.559-.415.746-.746.195-.332.292-.735.292-1.211 0-.475-.094-.879-.281-1.21-.188-.332-.433-.577-.735-.736-.303-.165-.631-.248-.984-.248-.36 0-.692.083-.994.248-.296.159-.534.404-.714.736-.18.331-.27.735-.27 1.21 0 .483.086.89.259 1.222.18.331.418.58.714.746.295.158.619.237.973.237zm6.428.865c-.454 0-.862-.075-1.222-.227-.36-.158-.645-.375-.854-.648-.209-.281-.324-.602-.346-.962h1.016c.029.295.166.536.411.724.252.187.58.281.984.281.375 0 .67-.083.886-.249.216-.166.324-.375.324-.627 0-.259-.115-.45-.345-.573-.231-.129-.588-.255-1.071-.378-.439-.115-.8-.231-1.081-.346-.273-.122-.511-.299-.713-.53-.195-.237-.292-.547-.292-.929 0-.303.09-.58.27-.833.181-.252.436-.45.768-.594.331-.151.71-.227 1.135-.227.656 0 1.185.166 1.589.497.403.332.62.786.648 1.362h-.983c-.022-.31-.148-.558-.379-.746-.223-.187-.526-.281-.908-.281-.353 0-.634.076-.843.227-.209.152-.313.35-.313.595 0 .194.061.356.184.486.129.123.288.224.475.303.195.072.461.155.8.249.425.115.771.23 1.038.345.266.109.493.274.681.498.194.223.295.515.303.875 0 .325-.091.616-.271.876-.18.259-.436.465-.767.616-.324.144-.699.216-1.124.216zm8.955-3.286c0 .187-.011.386-.032.595h-4.735c.036.583.234 1.041.594 1.372.368.325.811.487 1.33.487.425 0 .778-.097 1.059-.292.289-.202.49-.468.606-.8h1.059c-.158.569-.476 1.034-.951 1.395-.476.353-1.067.529-1.773.529-.562 0-1.066-.126-1.513-.378-.44-.252-.786-.609-1.038-1.07-.252-.469-.378-1.009-.378-1.622 0-.612.122-1.149.367-1.61.245-.462.587-.815 1.027-1.06.447-.252.959-.378 1.535-.378.562 0 1.059.122 1.492.367.432.245.764.584.994 1.017.238.425.357.908.357 1.448zm-1.016-.205c0-.375-.083-.696-.249-.962-.165-.274-.392-.48-.681-.617-.281-.144-.594-.216-.94-.216-.497 0-.923.159-1.276.476-.346.317-.544.757-.594 1.319h3.74zm4.829.41c0-.605.122-1.135.367-1.589.245-.461.58-.818 1.006-1.07.432-.252.911-.378 1.437-.378.519 0 .97.112 1.352.335.382.223.666.504.854.843V193.2h.994v5.924h-.994v-1.103c-.195.346-.487.634-.876.865-.382.223-.829.335-1.34.335-.527 0-1.002-.13-1.427-.389-.426-.259-.761-.623-1.006-1.092-.245-.468-.367-1.001-.367-1.6zm5.016.011c0-.447-.091-.836-.271-1.167-.18-.332-.425-.584-.735-.757-.302-.18-.638-.27-1.005-.27-.368 0-.703.086-1.005.259-.303.173-.544.425-.725.757-.18.331-.27.721-.27 1.167 0 .454.09.851.27 1.189.181.332.422.588.725.768.302.173.637.259 1.005.259.367 0 .703-.086 1.005-.259.31-.18.555-.436.735-.768.18-.338.271-.731.271-1.178zm7.91-2.951v5.924h-.984v-.876c-.187.303-.45.541-.789.714-.331.166-.699.248-1.102.248-.462 0-.876-.093-1.244-.281-.367-.194-.659-.483-.875-.864-.209-.382-.314-.847-.314-1.395v-3.47h.973v3.34c0 .584.148 1.035.443 1.352.296.309.699.464 1.211.464.526 0 .941-.162 1.243-.486.303-.324.454-.796.454-1.416V193.2h.984zm1.293 2.94c0-.605.123-1.135.368-1.589.245-.461.58-.818 1.005-1.07.432-.252.915-.378 1.449-.378.461 0 .89.108 1.286.324.396.209.699.487.908.833v-3.135h.994v7.999h-.994v-1.114c-.195.354-.483.645-.865.876-.382.223-.829.335-1.34.335-.526 0-1.006-.13-1.438-.389-.425-.259-.76-.623-1.005-1.092-.245-.468-.368-1.001-.368-1.6zm5.016.011c0-.447-.09-.836-.27-1.167-.18-.332-.425-.584-.735-.757-.303-.18-.638-.27-1.006-.27-.367 0-.702.086-1.005.259-.303.173-.544.425-.724.757-.18.331-.27.721-.27 1.167 0 .454.09.851.27 1.189.18.332.421.588.724.768.303.173.638.259 1.005.259.368 0 .703-.086 1.006-.259.31-.18.555-.436.735-.768.18-.338.27-.731.27-1.178zm3.165-3.913c-.187 0-.346-.065-.476-.194-.129-.13-.194-.289-.194-.476s.065-.346.194-.476c.13-.129.289-.194.476-.194.18 0 .331.065.454.194.13.13.194.289.194.476s-.064.346-.194.476c-.123.129-.274.194-.454.194zm.476.962v5.924h-.984V193.2h.984zm7.081 2.735c0 .187-.011.386-.033.595h-4.734c.036.583.234 1.041.594 1.372.368.325.811.487 1.33.487.425 0 .778-.097 1.059-.292.289-.202.49-.468.606-.8h1.059c-.159.569-.476 1.034-.951 1.395-.476.353-1.067.529-1.773.529-.562 0-1.067-.126-1.513-.378-.44-.252-.786-.609-1.038-1.07-.252-.469-.379-1.009-.379-1.622 0-.612.123-1.149.368-1.61.245-.462.587-.815 1.027-1.06.447-.252.958-.378 1.535-.378.562 0 1.059.122 1.492.367.432.245.764.584.994 1.017.238.425.357.908.357 1.448zm-1.016-.205c0-.375-.083-.696-.249-.962-.166-.274-.393-.48-.681-.617-.281-.144-.594-.216-.94-.216-.498 0-.923.159-1.276.476-.346.317-.544.757-.594 1.319h3.74zm5.201-2.638c.72 0 1.304.22 1.751.659.447.433.67 1.06.67 1.881v3.492h-.973v-3.351c0-.591-.148-1.041-.443-1.351-.296-.317-.699-.476-1.211-.476-.519 0-.933.162-1.243.486-.303.325-.454.797-.454 1.417v3.275h-.984V193.2h.984v.843c.195-.302.458-.537.789-.702.339-.166.71-.249 1.114-.249zm3.66 3.059c0-.612.123-1.146.368-1.6.245-.461.583-.818 1.016-1.07.439-.252.94-.378 1.502-.378.728 0 1.326.176 1.795.53.475.353.789.843.94 1.47h-1.059c-.101-.361-.299-.645-.595-.854-.288-.209-.648-.314-1.081-.314-.562 0-1.016.195-1.362.584-.346.382-.518.926-.518 1.632 0 .714.172 1.265.518 1.654.346.389.8.584 1.362.584.433 0 .793-.101 1.081-.303.289-.202.487-.49.595-.865h1.059c-.158.606-.475 1.092-.951 1.46-.476.36-1.07.54-1.784.54-.562 0-1.063-.126-1.502-.378-.433-.252-.771-.609-1.016-1.07-.245-.462-.368-1.002-.368-1.622zm12.339-.216c0 .187-.011.386-.033.595h-4.734c.036.583.234 1.041.594 1.372.368.325.811.487 1.33.487.425 0 .778-.097 1.059-.292.288-.202.49-.468.605-.8h1.06c-.159.569-.476 1.034-.951 1.395-.476.353-1.067.529-1.773.529-.562 0-1.067-.126-1.514-.378-.439-.252-.785-.609-1.037-1.07-.253-.469-.379-1.009-.379-1.622 0-.612.123-1.149.368-1.61.245-.462.587-.815 1.027-1.06.447-.252.958-.378 1.535-.378.562 0 1.059.122 1.491.367.433.245.764.584.995 1.017.238.425.357.908.357 1.448zm-1.016-.205c0-.375-.083-.696-.249-.962-.166-.274-.393-.48-.681-.617-.281-.144-.595-.216-.94-.216-.498 0-.923.159-1.276.476-.346.317-.544.757-.595 1.319h3.741zm4.411 3.491c-.454 0-.861-.075-1.221-.227-.361-.158-.645-.375-.854-.648-.209-.281-.325-.602-.346-.962h1.016c.029.295.166.536.411.724.252.187.58.281.983.281.375 0 .671-.083.887-.249.216-.166.324-.375.324-.627 0-.259-.115-.45-.346-.573-.23-.129-.587-.255-1.07-.378-.44-.115-.8-.231-1.081-.346-.274-.122-.512-.299-.713-.53-.195-.237-.292-.547-.292-.929 0-.303.09-.58.27-.833.18-.252.436-.45.767-.594.332-.151.71-.227 1.136-.227.655 0 1.185.166 1.589.497.403.332.619.786.648 1.362h-.984c-.021-.31-.147-.558-.378-.746-.223-.187-.526-.281-.908-.281-.353 0-.634.076-.843.227-.209.152-.314.35-.314.595 0 .194.062.356.184.486.13.123.288.224.476.303.194.072.461.155.8.249.425.115.771.23 1.037.345.267.109.494.274.681.498.195.223.296.515.303.875 0 .325-.09.616-.27.876-.18.259-.436.465-.768.616-.324.144-.699.216-1.124.216zm7.633-5.21v3.491c0 .289.061.494.183.617.123.115.335.173.638.173h.724v.832h-.886c-.548 0-.958-.126-1.232-.378-.274-.253-.411-.667-.411-1.244v-3.491h-.768v-.811h.768v-1.492h.984v1.492h1.545v.811h-1.545zm5.321 5.21c-.555 0-1.06-.126-1.514-.378-.446-.252-.8-.609-1.059-1.07-.252-.469-.378-1.009-.378-1.622 0-.605.129-1.138.389-1.6.266-.468.627-.825 1.081-1.07.454-.252.962-.378 1.524-.378s1.07.126 1.524.378c.454.245.811.598 1.07 1.06.267.461.4.998.4 1.61 0 .613-.137 1.153-.41 1.622-.267.461-.631.818-1.092 1.07-.461.252-.973.378-1.535.378zm0-.865c.353 0 .684-.082.994-.248.31-.166.559-.415.746-.746.195-.332.292-.735.292-1.211 0-.475-.094-.879-.281-1.21-.187-.332-.432-.577-.735-.736-.303-.165-.631-.248-.984-.248-.36 0-.692.083-.994.248-.296.159-.534.404-.714.736-.18.331-.27.735-.27 1.21 0 .483.086.89.259 1.222.181.331.418.58.714.746.295.158.62.237.973.237zm9.31.865c-.454 0-.862-.075-1.222-.227-.36-.158-.645-.375-.854-.648-.209-.281-.324-.602-.346-.962h1.016c.029.295.166.536.411.724.252.187.58.281.984.281.375 0 .67-.083.886-.249.216-.166.325-.375.325-.627 0-.259-.116-.45-.346-.573-.231-.129-.588-.255-1.071-.378-.439-.115-.799-.231-1.081-.346-.273-.122-.511-.299-.713-.53-.195-.237-.292-.547-.292-.929 0-.303.09-.58.27-.833.181-.252.436-.45.768-.594.331-.151.71-.227 1.135-.227.656 0 1.185.166 1.589.497.404.332.62.786.649 1.362h-.984c-.022-.31-.148-.558-.379-.746-.223-.187-.526-.281-.908-.281-.353 0-.634.076-.843.227-.209.152-.313.35-.313.595 0 .194.061.356.184.486.129.123.288.224.475.303.195.072.461.155.8.249.425.115.771.23 1.038.345.267.109.494.274.681.498.194.223.295.515.303.875 0 .325-.091.616-.271.876-.18.259-.436.465-.767.616-.324.144-.699.216-1.124.216zm8.955-3.286c0 .187-.011.386-.032.595h-4.735c.036.583.234 1.041.595 1.372.367.325.81.487 1.329.487.425 0 .778-.097 1.059-.292.289-.202.491-.468.606-.8h1.059c-.158.569-.475 1.034-.951 1.395-.476.353-1.067.529-1.773.529-.562 0-1.066-.126-1.513-.378-.44-.252-.786-.609-1.038-1.07-.252-.469-.378-1.009-.378-1.622 0-.612.122-1.149.367-1.61.245-.462.588-.815 1.027-1.06.447-.252.959-.378 1.535-.378.562 0 1.059.122 1.492.367.432.245.764.584.994 1.017.238.425.357.908.357 1.448zm-1.016-.205c0-.375-.083-.696-.249-.962-.165-.274-.392-.48-.681-.617-.281-.144-.594-.216-.94-.216-.497 0-.923.159-1.276.476-.346.317-.544.757-.594 1.319h3.74zm5.201-2.638c.72 0 1.304.22 1.751.659.447.433.67 1.06.67 1.881v3.492h-.973v-3.351c0-.591-.148-1.041-.443-1.351-.295-.317-.699-.476-1.211-.476-.519 0-.933.162-1.243.486-.302.325-.454.797-.454 1.417v3.275h-.983V193.2h.983v.843c.195-.302.458-.537.789-.702.339-.166.71-.249 1.114-.249zm3.66 3.048c0-.605.123-1.135.368-1.589.245-.461.58-.818 1.005-1.07.433-.252.915-.378 1.449-.378.461 0 .89.108 1.286.324.396.209.699.487.908.833v-3.135h.995v7.999h-.995v-1.114c-.194.354-.483.645-.865.876-.382.223-.828.335-1.34.335-.526 0-1.005-.13-1.438-.389-.425-.259-.76-.623-1.005-1.092-.245-.468-.368-1.001-.368-1.6zm5.016.011c0-.447-.09-.836-.27-1.167-.18-.332-.425-.584-.735-.757-.303-.18-.638-.27-1.005-.27-.368 0-.703.086-1.006.259-.302.173-.544.425-.724.757-.18.331-.27.721-.27 1.167 0 .454.09.851.27 1.189.18.332.422.588.724.768.303.173.638.259 1.006.259.367 0 .702-.086 1.005-.259.31-.18.555-.436.735-.768.18-.338.27-.731.27-1.178zm6.641-1.848h-1.599l1.167-2.724h1.049l-.617 2.724zm2.184 0h-1.6l1.168-2.724h1.048l-.616 2.724zm4.416-2.724c.793 0 1.489.155 2.087.465.605.309 1.07.753 1.394 1.329.332.569.497 1.232.497 1.989 0 .757-.165 1.42-.497 1.989-.324.562-.789.998-1.394 1.308-.598.31-1.294.465-2.087.465h-2.637v-7.545h2.637zm-.054 6.259c.793 0 1.406-.217 1.838-.649.432-.432.649-1.041.649-1.827 0-.785-.217-1.398-.649-1.838-.432-.446-1.045-.67-1.838-.67h-1.07v4.984h1.07zm4.776-1.73c0-.605.119-1.142.357-1.611.245-.468.573-.828.984-1.081.417-.252.882-.378 1.394-.378.447 0 .836.09 1.167.27.339.18.609.407.811.681v-.854h1.524v5.989h-1.524v-.876c-.194.281-.465.516-.811.703-.338.18-.731.27-1.178.27-.504 0-.966-.13-1.383-.389-.411-.259-.739-.623-.984-1.092-.238-.475-.357-1.019-.357-1.632zm4.713.022c0-.368-.072-.681-.216-.941-.144-.266-.339-.468-.584-.605-.245-.144-.508-.216-.789-.216s-.54.068-.778.205c-.238.137-.433.339-.584.605-.144.26-.216.57-.216.93 0 .36.072.677.216.951.151.267.346.472.584.616.245.145.504.217.778.217.281 0 .544-.069.789-.206.245-.144.44-.346.584-.605.144-.267.216-.584.216-.951zm4.764-1.752v2.897c0 .202.047.35.141.444.101.086.267.129.497.129h.703v1.276h-.951c-1.276 0-1.914-.62-1.914-1.859v-2.887h-.713v-1.243h.713v-1.481h1.524v1.481h1.341v1.243h-1.341zm2.04 1.73c0-.605.119-1.142.357-1.611.245-.468.573-.828.984-1.081.418-.252.882-.378 1.394-.378.447 0 .836.09 1.167.27.339.18.609.407.811.681v-.854h1.524v5.989h-1.524v-.876c-.194.281-.465.516-.811.703-.338.18-.731.27-1.178.27-.504 0-.965-.13-1.383-.389-.411-.259-.739-.623-.984-1.092-.238-.475-.357-1.019-.357-1.632zm4.713.022c0-.368-.072-.681-.216-.941-.144-.266-.339-.468-.584-.605-.245-.144-.508-.216-.789-.216s-.54.068-.778.205c-.238.137-.433.339-.584.605-.144.26-.216.57-.216.93 0 .36.072.677.216.951.151.267.346.472.584.616.245.145.504.217.778.217.281 0 .544-.069.789-.206.245-.144.44-.346.584-.605.144-.267.216-.584.216-.951zm13.804-4.551v7.545h-1.513v-4.908l-2.021 4.908h-1.146l-2.032-4.908v4.908h-1.514v-7.545h1.719l2.4 5.61 2.399-5.61h1.708zm1.107 4.529c0-.605.119-1.142.357-1.611.245-.468.573-.828.984-1.081.418-.252.883-.378 1.394-.378.447 0 .836.09 1.168.27.338.18.609.407.81.681v-.854h1.525v5.989h-1.525v-.876c-.194.281-.464.516-.81.703-.339.18-.732.27-1.179.27-.504 0-.965-.13-1.383-.389-.411-.259-.739-.623-.984-1.092-.238-.475-.357-1.019-.357-1.632zm4.713.022c0-.368-.072-.681-.216-.941-.144-.266-.338-.468-.583-.605-.245-.144-.508-.216-.79-.216-.281 0-.54.068-.778.205-.238.137-.432.339-.584.605-.144.26-.216.57-.216.93 0 .36.072.677.216.951.152.267.346.472.584.616.245.145.505.217.778.217.282 0 .545-.069.79-.206.245-.144.439-.346.583-.605.144-.267.216-.584.216-.951zm4.516-2.13c.195-.274.461-.501.8-.681.346-.187.739-.281 1.178-.281.512 0 .973.126 1.384.378.418.253.746.613.984 1.081.245.462.367.998.367 1.611s-.122 1.157-.367 1.632c-.238.469-.566.833-.984 1.092-.411.259-.872.389-1.384.389-.439 0-.828-.09-1.167-.27-.332-.18-.602-.407-.811-.681v3.708h-1.513v-8.843h1.513V194zm3.167 2.108c0-.36-.075-.67-.227-.93-.144-.266-.338-.468-.583-.605-.238-.137-.498-.205-.779-.205-.274 0-.533.072-.778.216-.238.137-.432.339-.584.605-.144.267-.216.58-.216.941 0 .36.072.673.216.94.152.267.346.472.584.616.245.137.504.206.778.206.281 0 .541-.072.779-.217.245-.144.439-.349.583-.616.152-.266.227-.583.227-.951zm4.159-2.108c.195-.274.461-.501.8-.681.346-.187.739-.281 1.178-.281.512 0 .973.126 1.384.378.418.253.746.613.984 1.081.245.462.367.998.367 1.611s-.122 1.157-.367 1.632c-.238.469-.566.833-.984 1.092-.411.259-.872.389-1.384.389-.439 0-.828-.09-1.167-.27-.332-.18-.602-.407-.811-.681v3.708h-1.513v-8.843h1.513V194zm3.167 2.108c0-.36-.075-.67-.227-.93-.144-.266-.338-.468-.583-.605-.238-.137-.498-.205-.779-.205-.273 0-.533.072-.778.216-.238.137-.432.339-.584.605-.144.267-.216.58-.216.941 0 .36.072.673.216.94.152.267.346.472.584.616.245.137.505.206.778.206.281 0 .541-.072.779-.217.245-.144.439-.349.583-.616.152-.266.227-.583.227-.951zm3.413-3.686c-.266 0-.49-.083-.67-.249-.173-.173-.259-.385-.259-.638 0-.252.086-.461.259-.626.18-.173.404-.26.67-.26.267 0 .487.087.66.26.18.165.27.374.27.626 0 .253-.09.465-.27.638-.173.166-.393.249-.66.249zm.746.713v5.989h-1.513v-5.989h1.513zm4.814-.086c.714 0 1.29.227 1.73.681.439.447.659 1.074.659 1.881v3.513h-1.513v-3.308c0-.476-.119-.839-.357-1.092-.238-.259-.562-.389-.973-.389-.418 0-.749.13-.994.389-.238.253-.357.616-.357 1.092v3.308h-1.513v-5.989h1.513v.746c.202-.259.458-.461.767-.605.317-.152.663-.227 1.038-.227zm6.174-.011c.447 0 .839.09 1.178.27.339.173.606.4.8.681v-.854h1.524v6.032c0 .555-.111 1.049-.335 1.481-.223.44-.558.786-1.005 1.038-.447.259-.987.389-1.622.389-.85 0-1.549-.198-2.097-.595-.54-.396-.846-.936-.919-1.621h1.503c.079.274.249.49.508.649.267.165.587.248.962.248.44 0 .796-.133 1.07-.4.274-.259.411-.656.411-1.189v-.929c-.194.281-.465.515-.811.702-.338.188-.727.281-1.167.281-.505 0-.966-.13-1.384-.389-.418-.259-.749-.623-.994-1.092-.238-.475-.357-1.019-.357-1.632 0-.605.119-1.142.357-1.611.245-.468.573-.828.983-1.081.418-.252.883-.378 1.395-.378zm1.978 3.092c0-.368-.072-.681-.216-.941-.144-.266-.339-.468-.584-.605-.245-.144-.508-.216-.789-.216s-.54.068-.778.205c-.238.137-.433.339-.584.605-.144.26-.216.57-.216.93 0 .36.072.677.216.951.151.267.346.472.584.616.245.145.504.217.778.217.281 0 .544-.069.789-.206.245-.144.44-.346.584-.605.144-.267.216-.584.216-.951zm8.183 3.07c-.526 0-1.001-.091-1.427-.271-.418-.18-.749-.439-.994-.778s-.371-.739-.378-1.2h1.621c.022.31.13.555.324.735.202.18.476.27.822.27.353 0 .63-.082.832-.248.202-.173.303-.397.303-.67 0-.224-.069-.408-.206-.552-.136-.144-.309-.256-.518-.335-.202-.086-.483-.18-.844-.281-.49-.144-.89-.284-1.199-.421-.303-.145-.566-.357-.79-.638-.216-.288-.324-.67-.324-1.146 0-.447.112-.836.335-1.167.224-.332.537-.584.941-.757.403-.18.864-.27 1.383-.27.779 0 1.409.191 1.892.573.49.374.76.9.811 1.578h-1.665c-.014-.26-.126-.472-.335-.638-.202-.173-.472-.259-.811-.259-.295 0-.533.075-.713.227-.173.151-.26.371-.26.659 0 .202.065.371.195.508.137.13.303.238.497.324.202.08.483.173.843.281.49.144.89.289 1.2.433.31.144.577.36.8.648.224.289.335.667.335 1.135 0 .404-.104.779-.313 1.125-.209.345-.515.623-.919.832-.404.202-.883.303-1.438.303zm9.636-6.065v5.989h-1.524v-.757c-.195.26-.451.465-.768.616-.31.145-.648.217-1.016.217-.468 0-.883-.098-1.243-.292-.36-.202-.645-.494-.854-.876-.202-.389-.303-.85-.303-1.384v-3.513h1.514v3.297c0 .476.118.843.356 1.103.238.252.562.378.973.378.418 0 .746-.126.984-.378.238-.26.357-.627.357-1.103v-3.297h1.524zm3.006.93c.195-.317.447-.566.757-.746.317-.18.677-.27 1.081-.27v1.589h-.4c-.476 0-.836.112-1.081.335-.238.223-.357.613-.357 1.167v2.984h-1.513v-5.989h1.513v.93zm5.354 3.664l1.514-4.594h1.61l-2.216 5.989h-1.837l-2.205-5.989h1.621l1.513 4.594zm9.541-1.729c0 .216-.014.411-.043.584h-4.378c.036.432.188.771.454 1.016.267.245.595.367.984.367.562 0 .962-.241 1.2-.724h1.632c-.173.577-.504 1.052-.994 1.427-.491.367-1.092.551-1.806.551-.576 0-1.095-.126-1.556-.378-.454-.26-.811-.624-1.07-1.092-.253-.468-.379-1.009-.379-1.621 0-.62.126-1.164.379-1.633.252-.468.605-.828 1.059-1.081.454-.252.976-.378 1.567-.378.57 0 1.078.123 1.524.368.454.245.804.594 1.049 1.048.252.447.378.962.378 1.546zm-1.567-.433c-.007-.389-.148-.699-.422-.929-.273-.238-.609-.357-1.005-.357-.375 0-.692.115-.951.346-.252.223-.407.537-.465.94h2.843zm8.401-2.432l-3.708 8.821h-1.61l1.297-2.983-2.4-5.838h1.697l1.546 4.184 1.567-4.184h1.611zm1.119-1.556h1.589l-1.168 2.724h-1.038l.617-2.724zm2.183 0h1.589l-1.167 2.724h-1.038l.616-2.724zm6.834 2.432v3.491c0 .289.061.494.183.617.123.115.336.173.638.173h.725v.832h-.887c-.548 0-.958-.126-1.232-.378-.274-.253-.411-.667-.411-1.244v-3.491h-.767v-.811h.767v-1.492h.984v1.492h1.546v.811h-1.546zm5.321 5.21c-.555 0-1.059-.126-1.513-.378-.447-.252-.8-.609-1.06-1.07-.252-.469-.378-1.009-.378-1.622 0-.605.13-1.138.389-1.6.267-.468.627-.825 1.081-1.07.454-.252.962-.378 1.524-.378s1.07.126 1.524.378c.454.245.811.598 1.07 1.06.267.461.4.998.4 1.61 0 .613-.136 1.153-.41 1.622-.267.461-.631.818-1.092 1.07-.461.252-.973.378-1.535.378zm0-.865c.353 0 .685-.082.994-.248.31-.166.559-.415.746-.746.195-.332.292-.735.292-1.211 0-.475-.094-.879-.281-1.21-.187-.332-.432-.577-.735-.736-.303-.165-.631-.248-.984-.248-.36 0-.692.083-.994.248-.296.159-.533.404-.714.736-.18.331-.27.735-.27 1.21 0 .483.087.89.26 1.222.18.331.418.58.713.746.295.158.62.237.973.237z"/>
        </g>
        <path fill="#CBD0DF" fill-rule="evenodd" d="M482.085 148.231l-4.92 4.919 4.92 4.92c.287.288.287.754 0 1.042-.288.287-.754.287-1.042 0l-4.919-4.92-4.921 4.92c-.287.287-.753.287-1.041 0-.288-.288-.288-.754 0-1.042l4.92-4.92-4.92-4.919c-.288-.288-.288-.754 0-1.042.288-.287.754-.287 1.041 0l4.921 4.92 4.919-4.92c.288-.287.754-.287 1.042 0 .287.288.287.754 0 1.042z" clip-rule="evenodd"/>
        <g filter="url(#prefix__filter4_d)">
            <rect width="67" height="64.578" fill="#fff" rx="6.796" transform="matrix(-1 0 0 1 551 0)"/>
        </g>
        <path stroke="#FFE9E9" stroke-width="1.914" d="M516.033 38.737c3.014 3.243 4.521 4.86 4.521 4.85v-7.749"/>
        <path fill-rule="evenodd" stroke="#DDE0E6" stroke-width="1.914" d="M520.169 35.769l-11.057 7.498-5.899-21.956 30.351 8.11-9.498 3.972-20.43-11.636 16.533 14.012z" clip-rule="evenodd"/>
        <path stroke="#FF696D" stroke-width="1.914" d="M516.68 38.091c3.013 3.243 4.52 4.86 4.52 4.85v-7.749"/>
        <path fill-rule="evenodd" stroke="#1A3154" stroke-width="1.914" d="M520.814 35.123l-11.057 7.499-5.9-21.957 30.352 8.11-9.499 3.972-20.429-11.635 16.533 14.01z" clip-rule="evenodd"/>
    </g>
    <defs>
        <clipPath id="prefix__clip0">
            <path fill="#fff" d="M0 0H551V477H0z"/>
        </clipPath>
        <clipPath id="prefix__clip1">
            <path fill="#fff" d="M0 0H370V123H0z"/>
        </clipPath>
        <clipPath id="prefix__clip2">
            <path fill="#fff" d="M0 0H103.923V27.408H0z" transform="translate(226.104 56.527)"/>
        </clipPath>
        <clipPath id="prefix__clip3">
            <path fill="#fff" d="M0 0H132.473V27.408H0z" transform="translate(30.834 56.527)"/>
        </clipPath>
        <clipPath id="prefix__clip4">
            <path fill="#fff" d="M0 0H68.521V10.278H0z" transform="translate(65.095 71.373)"/>
        </clipPath>
        <clipPath id="prefix__clip5">
            <path fill="#fff" d="M0 0H150V19H0z" transform="translate(102 250)"/>
        </clipPath>
        <clipPath id="prefix__clip6">
            <path fill="#fff" d="M0 0H30.885V30.885H0z" transform="translate(426.707 244.261)"/>
        </clipPath>
        <clipPath id="prefix__clip7">
            <path fill="#fff" d="M0 0H30.885V30.885H0z" transform="translate(401.228 244.261)"/>
        </clipPath>
        <clipPath id="prefix__clip8">
            <path fill="#fff" d="M0 0H30.885V30.885H0z" transform="translate(375.747 244.261)"/>
        </clipPath>
        <clipPath id="prefix__clip9">
            <path fill="#fff" d="M0 0H30.885V30.885H0z" transform="translate(350.268 244.261)"/>
        </clipPath>
        <clipPath id="prefix__clip10">
            <path fill="#fff" d="M0 0H138.982V18.531H0z" transform="translate(102.415 327.65)"/>
        </clipPath>
        <clipPath id="prefix__clip11">
            <path fill="#fff" d="M0 0H30.885V30.885H0z" transform="translate(426.707 321.473)"/>
        </clipPath>
        <clipPath id="prefix__clip12">
            <path fill="#fff" d="M0 0H30.885V30.885H0z" transform="translate(401.228 321.473)"/>
        </clipPath>
        <clipPath id="prefix__clip13">
            <path fill="#fff" d="M0 0H30.885V30.885H0z" transform="translate(375.747 321.473)"/>
        </clipPath>
        <clipPath id="prefix__clip14">
            <path fill="#fff" d="M0 0H30.885V30.885H0z" transform="translate(350.268 321.473)"/>
        </clipPath>
        <clipPath id="prefix__clip15">
            <path fill="#fff" d="M0 0H92.655V37.062H0z" transform="translate(392.734 394.053)"/>
        </clipPath>
        <clipPath id="prefix__clip16">
            <path fill="#fff" d="M0 0H148.248V37.062H0z" transform="translate(83.885 394.053)"/>
        </clipPath>
        <clipPath id="prefix__clip17">
            <path fill="#fff" d="M0 0H291.091V58.681H0z" transform="translate(83.885 143.885)"/>
        </clipPath>
        <filter id="prefix__filter0_d" width="395.076" height="139.076" x="-12.538" y="-11.493" color-interpolation-filters="sRGB" filterUnits="userSpaceOnUse">
            <feFlood flood-opacity="0" result="BackgroundImageFix"/>
            <feColorMatrix in="SourceAlpha" values="0 0 0 0 0 0 0 0 0 0 0 0 0 0 0 0 0 0 127 0"/>
            <feOffset dy="1.045"/>
            <feGaussianBlur stdDeviation="6.269"/>
            <feColorMatrix values="0 0 0 0 0.875229 0 0 0 0 0.906421 0 0 0 0 1 0 0 0 0.2 0"/>
            <feBlend in2="BackgroundImageFix" result="effect1_dropShadow"/>
            <feBlend in="SourceGraphic" in2="effect1_dropShadow" result="shape"/>
        </filter>
        <filter id="prefix__filter1_d" width="362.837" height="89.077" x="3.426" y="26.835" color-interpolation-filters="sRGB" filterUnits="userSpaceOnUse">
            <feFlood flood-opacity="0" result="BackgroundImageFix"/>
            <feColorMatrix in="SourceAlpha" values="0 0 0 0 0 0 0 0 0 0 0 0 0 0 0 0 0 0 127 0"/>
            <feOffset dy="1.142"/>
            <feGaussianBlur stdDeviation="6.852"/>
            <feColorMatrix values="0 0 0 0 0.875229 0 0 0 0 0.906421 0 0 0 0 1 0 0 0 0.2 0"/>
            <feBlend in2="BackgroundImageFix" result="effect1_dropShadow"/>
            <feBlend in="SourceGraphic" in2="effect1_dropShadow" result="shape"/>
        </filter>
        <filter id="prefix__filter2_d" width="117.627" height="41.112" x="219.251" y="51.959" color-interpolation-filters="sRGB" filterUnits="userSpaceOnUse">
            <feFlood flood-opacity="0" result="BackgroundImageFix"/>
            <feColorMatrix in="SourceAlpha" values="0 0 0 0 0 0 0 0 0 0 0 0 0 0 0 0 0 0 127 0"/>
            <feOffset dy="2.284"/>
            <feGaussianBlur stdDeviation="3.426"/>
            <feColorMatrix values="0 0 0 0 0.937274 0 0 0 0 0.153682 0 0 0 0 0.174578 0 0 0 0.3 0"/>
            <feBlend in2="BackgroundImageFix" result="effect1_dropShadow"/>
            <feBlend in="SourceGraphic" in2="effect1_dropShadow" result="shape"/>
        </filter>
        <filter id="prefix__filter3_d" width="491.451" height="377.176" x="38.912" y="100.086" color-interpolation-filters="sRGB" filterUnits="userSpaceOnUse">
            <feFlood flood-opacity="0" result="BackgroundImageFix"/>
            <feColorMatrix in="SourceAlpha" values="0 0 0 0 0 0 0 0 0 0 0 0 0 0 0 0 0 0 127 0"/>
            <feOffset dy="1.174"/>
            <feGaussianBlur stdDeviation="7.044"/>
            <feColorMatrix values="0 0 0 0 0.875229 0 0 0 0 0.906421 0 0 0 0 1 0 0 0 0.2 0"/>
            <feBlend in2="BackgroundImageFix" result="effect1_dropShadow"/>
            <feBlend in="SourceGraphic" in2="effect1_dropShadow" result="shape"/>
        </filter>
        <filter id="prefix__filter4_d" width="114.857" height="112.435" x="460.071" y="-22.796" color-interpolation-filters="sRGB" filterUnits="userSpaceOnUse">
            <feFlood flood-opacity="0" result="BackgroundImageFix"/>
            <feColorMatrix in="SourceAlpha" values="0 0 0 0 0 0 0 0 0 0 0 0 0 0 0 0 0 0 127 0"/>
            <feOffset dy="1.133"/>
            <feGaussianBlur stdDeviation="11.964"/>
            <feColorMatrix values="0 0 0 0 0 0 0 0 0 0 0 0 0 0 0 0 0 0 0.05 0"/>
            <feBlend in2="BackgroundImageFix" mode="multiply" result="effect1_dropShadow"/>
            <feBlend in="SourceGraphic" in2="effect1_dropShadow" result="shape"/>
        </filter>
    </defs>
</svg>
