<svg xmlns="http://www.w3.org/2000/svg" width="64" height="64" fill="none" viewBox="0 0 64 64">
    <path fill="#74D9B1" d="M51.2 0H12.8C5.73 0 0 5.73 0 12.8v38.4C0 58.27 5.73 64 12.8 64h38.4C58.27 64 64 58.27 64 51.2V12.8C64 5.73 58.27 0 51.2 0z" opacity=".2"/>
    <path fill-rule="evenodd" stroke="#6ACEA7" stroke-linecap="round" stroke-width="1.5" d="M21.702 14.4c-.973 0-1.348.045-2.264.792-.193.361-.238.737-.238 1.71v30.196c0 .973.045 1.349.792 2.264.362.193.737.238 1.71.238h20.596c.973 0 1.349-.045 2.264-.792.193-.361.238-.737.238-1.71V22.113c0-.615-.007-.83-.22-1.45-.128-.207-.275-.364-.71-.8l-4.505-4.526c-.435-.437-.593-.585-1.184-.875-.238-.054-.454-.062-1.071-.062H21.702v0z" clip-rule="evenodd"/>
    <path fill="#fff" stroke="#6ACEA7" stroke-linecap="round" stroke-width="1.5" d="M35 20H23c-.552 0-1 .448-1 1v3c0 .552.448 1 1 1h12c.552 0 1-.448 1-1v-3c0-.552-.448-1-1-1zM41 29H23c-.552 0-1 .448-1 1v3c0 .552.448 1 1 1h18c.552 0 1-.448 1-1v-3c0-.552-.448-1-1-1z"/>
    <path stroke="#6ACEA7" stroke-linecap="round" stroke-width="1.5" d="M23.6 42.282l2.012 1.918 4.389-4.8"/>
</svg>
