<svg xmlns="http://www.w3.org/2000/svg" width="64" height="64" fill="none" viewBox="0 0 64 64">
    <path fill="#F2F8FD" d="M51.2 0H12.8C5.73 0 0 5.73 0 12.8v38.4C0 58.27 5.73 64 12.8 64h38.4C58.27 64 64 58.27 64 51.2V12.8C64 5.73 58.27 0 51.2 0z"/>
    <path stroke="#192D4D" stroke-width="1.5" d="M22.4 44.86v1.54c0 1.767 1.432 3.2 3.2 3.2h20.8c1.767 0 3.2-1.433 3.2-3.2V23.054c0-1.708-.683-3.345-1.896-4.547l-2.274-2.253c-1.199-1.188-2.818-1.854-4.505-1.854H25.6c-1.768 0-3.2 1.433-3.2 3.2v1.865"/>
    <path stroke="#192D4D" stroke-width="1.5" d="M36.8 19.2H17.6c-1.768 0-3.2 1.433-3.2 3.2v19.2c0 1.767 1.432 3.2 3.2 3.2h19.2c1.767 0 3.2-1.433 3.2-3.2V22.4c0-1.767-1.433-3.2-3.2-3.2z"/>
    <path fill="#fff" d="M28.707 24.707l5.586 5.586c.39.39.39 1.024 0 1.414L31.5 34.5l-5.207 5.207c-.188.188-.442.293-.707.293H20c-.552 0-1-.448-1-1v-5.586c0-.265.105-.52.293-.707L24.5 27.5l2.793-2.793c.39-.39 1.024-.39 1.414 0z"/>
    <path stroke="#192D4D" stroke-width="1.5" d="M24.5 27.5l-5.207 5.207c-.188.188-.293.442-.293.707V39c0 .552.448 1 1 1h5.586c.265 0 .52-.105.707-.293L31.5 34.5m-7-7l2.793-2.793c.39-.39 1.024-.39 1.414 0l5.586 5.586c.39.39.39 1.024 0 1.414L31.5 34.5m-7-7l7 7"/>
</svg>
