<svg xmlns="http://www.w3.org/2000/svg" width="64" height="64" fill="none" viewBox="0 0 64 64">
    <path fill="#FFE9E9" d="M51.2 0H12.8C5.73 0 0 5.73 0 12.8v38.4C0 58.27 5.73 64 12.8 64h38.4C58.27 64 64 58.27 64 51.2V12.8C64 5.73 58.27 0 51.2 0z"/>
    <path fill-rule="evenodd" stroke="#FF696D" stroke-width="1.5" d="M31.98 14.4c-4.855 0-9.25 1.97-12.43 5.154C16.367 22.74 14.4 27.14 14.4 32s1.967 9.26 5.15 12.446c3.18 3.184 7.575 5.154 12.43 5.154 4.866 0 9.27-1.97 12.458-5.156C47.628 41.26 49.6 36.858 49.6 32c0-4.858-1.972-9.259-5.16-12.445C41.25 16.371 36.846 14.4 31.98 14.4z" clip-rule="evenodd"/>
    <path fill="#fff" fill-rule="evenodd" stroke="#FF696D" stroke-width="1.5" d="M44.995 14c-1.38 0-2.628.56-3.532 1.464C40.56 16.37 40 17.62 40 19s.559 2.63 1.463 3.536c.904.904 2.152 1.464 3.532 1.464 1.382 0 2.633-.56 3.539-1.465C49.44 21.63 50 20.38 50 19c0-1.38-.56-2.63-1.466-3.535-.906-.905-2.157-1.465-3.54-1.465z" clip-rule="evenodd"/>
    <path stroke="#FF696D" stroke-linecap="round" stroke-width="1.5" d="M31 22.5v13l9 4.5"/>
</svg>
