<svg xmlns="http://www.w3.org/2000/svg" width="64" height="64" fill="none" viewBox="0 0 64 64">
    <path fill="#FFE9E9" d="M51.2 0H12.8C5.73 0 0 5.73 0 12.8v38.4C0 58.27 5.73 64 12.8 64h38.4C58.27 64 64 58.27 64 51.2V12.8C64 5.73 58.27 0 51.2 0z"/>
    <path stroke="#FF696D" stroke-width="1.5" d="M26.177 21.18h-9.302c-.552 0-1 .447-1 1v15.602M32 26.564v11.218M38.27 21.18h9.302c.553 0 1 .447 1 1v15.602"/>
    <path fill="#fff" stroke="#FF696D" stroke-linecap="round" stroke-width="1.5" d="M20.25 38.23H11.5c-.552 0-1 .449-1 1V48c0 .552.448 1 1 1h8.75c.552 0 1-.448 1-1v-8.77c0-.551-.448-1-1-1z"/>
    <path stroke="#FF696D" stroke-linecap="round" stroke-linejoin="round" stroke-width="1.5" d="M14.083 42.188l1.792 2.773 1.791-3.14"/>
    <path stroke="#FF696D" stroke-linecap="round" stroke-width="1.5" d="M30.208 41.82l3.583 3.59M33.791 41.82l-3.583 3.59"/>
    <path stroke="#FF696D" stroke-width="1.5" d="M36.375 38.23h-8.75c-.552 0-1 .449-1 1V48c0 .552.448 1 1 1h8.75c.552 0 1-.448 1-1v-8.77c0-.551-.448-1-1-1z"/>
    <path fill="#fff" stroke="#FF696D" stroke-width="1.5" d="M52.5 38.23h-8.75c-.552 0-1 .449-1 1V48c0 .552.448 1 1 1h8.75c.552 0 1-.448 1-1v-8.77c0-.551-.448-1-1-1z"/>
    <path stroke="#FF696D" stroke-linecap="round" stroke-linejoin="round" stroke-width="1.5" d="M46.333 42.188l1.792 2.773 1.791-3.14"/>
    <ellipse cx="32" cy="20.282" fill="#fff" stroke="#FF696D" stroke-linecap="round" stroke-width="1.5" rx="6.271" ry="6.282"/>
</svg>
