<svg xmlns="http://www.w3.org/2000/svg" width="64" height="64" fill="none" viewBox="0 0 64 64">
    <path fill="#74D9B1" d="M51.2 0H12.8C5.73 0 0 5.73 0 12.8v38.4C0 58.27 5.73 64 12.8 64h38.4C58.27 64 64 58.27 64 51.2V12.8C64 5.73 58.27 0 51.2 0z" opacity=".2"/>
    <circle cx="42.5" cy="41.614" r="10.5" fill="#fff" stroke="#6ACEA7" stroke-linecap="round" stroke-width="1.5"/>
    <path stroke="#6ACEA7" stroke-linecap="square" stroke-width="1.5" d="M40 28V16c0-.552-.448-1-1-1H17c-.552 0-1 .448-1 1v30.5c0 .552.448 1 1 1h13.5"/>
    <path stroke="#6ACEA7" stroke-linecap="round" stroke-width="1.5" d="M20.5 33.614l4-4 3 1.5 5.5-5m0 0h-5m5 0v5"/>
    <path fill="#6ACEA7" d="M42.556 36.852c.915 0 1.643.252 2.184.756.55.494.826 1.185.826 2.072 0 .989-.308 1.731-.924 2.226-.607.485-1.442.737-2.506.756v1.652h-1.204v-2.52h.56c.859 0 1.54-.15 2.044-.448.513-.299.77-.854.77-1.666 0-.551-.163-.985-.49-1.302-.317-.318-.751-.476-1.302-.476-.579 0-1.045.163-1.4.49-.345.326-.518.756-.518 1.288h-1.232c0-.56.13-1.055.392-1.484.261-.43.635-.761 1.12-.994.485-.234 1.045-.35 1.68-.35zm-.238 8.764v1.498h-1.54v-1.498h1.54z"/>
</svg>
